<?xml version="1.0" encoding="UTF-8"?>
<svg width="226px" height="13px" viewBox="0 0 226 13" version="1.1" xmlns="http://www.w3.org/2000/svg" xmlns:xlink="http://www.w3.org/1999/xlink">
    <title>cert_divider_1</title>
    <g id="Page-1" stroke="none" stroke-width="1" fill="none" fill-rule="evenodd">
        <g id="cert_divider_1" fill="#4D3714" fill-rule="nonzero">
            <path d="M110.72,6.03 C110.629342,5.90425006 110.513566,5.79868959 110.38,5.72 L109.99,5.42 L108.85,4.6 L106.52,2.95 L105.32,2.08 L104.88,1.74 C104.75,1.64 104.62,1.55 104.5,1.44 L104.5,1.44 C104.458679,1.41590004 104.415148,1.39580851 104.37,1.38 L104.37,1.38 C104.293113,1.3711412 104.215505,1.38877943 104.15,1.43 C104.056649,1.42547293 103.964659,1.4537774 103.89,1.51 L103.8,1.59 L103.41,1.93 L103.41,1.93 C103.13,2.18 102.85,2.43 102.58,2.69 C102.31,2.95 101.79,3.45 101.39,3.81 L101.39,3.81 C101.05,4.11 100.68,4.39 100.34,4.69 C100,4.99 99.74,5.25 99.44,5.52 L99.44,5.52 C99.31,5.64 99.17,5.75 99.03,5.86 C98.9748273,5.88885124 98.92695,5.92988895 98.89,5.98 L96.97,5.98 L95.83,5.98 C96.64,5.45 97.43,4.89 98.21,4.33 C98.73,3.95 99.26,3.57 99.77,3.17 L100.92,2.26 C101.48,1.81 102.03,1.34 102.63,0.94 L102.63,0.94 L102.8,0.82 C102.980531,0.676585763 103.015822,0.416309525 102.88,0.23 C102.748073,0.0568927615 102.507605,0.00965795308 102.32,0.12 C101.94,0.35 101.58,0.63 101.22,0.9 C100.86,1.17 100.6,1.37 100.29,1.6 L99.05,2.52 C98.51,2.91 97.98,3.31 97.44,3.69 L96.35,4.47 C96.01,4.72 95.66,4.96 95.35,5.2 L94.61,5.74 C94.5156442,5.8078193 94.4254794,5.88128694 94.34,5.96 L93.83,5.96 L92.26,5.96 L90.68,5.96 L79.76,6.09 L78.32,6.09 C75.89,6.09 73.46,6.15 71.03,6.17 L65.2,6.24 L58.64,6.32 L52.08,6.4 L47.69,6.46 L38.9,6.57 L38.49,6.57 C38.73,6.31 38.98,6.06 39.23,5.8 C39.48,5.54 39.88,5.12 40.23,4.8 L41.05,3.98 C41.2024572,3.8244626 41.2024572,3.5755374 41.05,3.42 C40.8924056,3.27266611 40.6475944,3.27266611 40.49,3.42 C40.22,3.68 39.96,3.94 39.7,4.21 C39.44,4.48 39.08,4.85 38.77,5.21 C38.46,5.57 38.16,5.85 37.86,6.21 L37.55,6.54 L37.43,6.65 L35.73,6.65 L35.47,6.65 L35.35,6.65 L35.35,6.65 C35.6,6.16 35.9,5.7 36.16,5.29 L36.23,5.18 C36.5259735,4.75184657 36.780458,4.29645339 36.99,3.82 C37.0635056,3.69181883 37.1046921,3.54766622 37.11,3.4 C37.1344339,3.32528012 37.1344339,3.24471988 37.11,3.17 C37.0458917,3.02309386 36.9002793,2.92864251 36.74,2.93 C36.6910858,2.91526371 36.6389142,2.91526371 36.59,2.93 C36.3455114,3.03390649 36.1083068,3.15417925 35.88,3.29 C35.62,3.44 35.36,3.57 35.13,3.69 C34.9,3.81 34.38,4.07 34.02,4.28 C33.45,4.6 32.87,4.92 32.29,5.22 L32.08,5.31 L31.48,5.61 C31.21,5.74 30.94,5.9 30.68,6.05 L30.59,6.1 C30.39,6.2 30.19,6.32 30,6.44 C29.9085655,6.48749526 29.8297316,6.55604644 29.77,6.64 L27.7,6.64 L25.62,6.64 L12.52,6.81 L12.11,6.81 L11.72,6.81 C11.72,6.57 11.72,6.34 11.77,6.1 C11.82,5.86 11.77,5.49 11.77,5.15 C11.781732,5.00400226 11.7612494,4.85720964 11.71,4.72 C11.6480357,4.59503149 11.5194572,4.51710516 11.38,4.52 C11.2565511,4.51799353 11.1417163,4.58306662 11.08,4.69 C11.0263629,4.78132987 10.9954937,4.88422711 10.99,4.99 L10.99,5.24 L10.99,5.53 C10.99,5.77 10.99,6.02 10.93,6.3 L10.93,6.79 L10.68,6.79 C10.4404362,6.76953735 10.1995638,6.76953735 9.96,6.79 L9.96,6.79 C9.96,6.23 9.96,5.68 9.96,5.12 L9.96,4.58 L9.96,4.2 C9.96,4.03 9.96,3.81 9.75,3.71 C9.69563834,3.67733266 9.63342194,3.66005033 9.57,3.66 C9.42062998,3.66100698 9.28651628,3.75173096 9.23,3.89 C9.19762294,3.9939702 9.17748682,4.10136288 9.17,4.21 C9.17,4.4 9.17,4.6 9.17,4.8 L9.17,6.2 C9.15480769,6.38969631 9.15480769,6.58030369 9.17,6.77 L8.59,6.77 L8.07,6.77 L8.07,6.77 C8.07,6.42 8.07,6.08 8.07,5.77 L8.07,5.25 C8.07,5.04 8.07,4.84 8.07,4.58 L8.07,4.41 C8.06521778,4.32673528 8.06521778,4.24326472 8.07,4.16 C8.07054465,4.06095232 8.04278952,3.96380934 7.99,3.88 C7.92318508,3.7131637 7.75966115,3.60547721 7.58,3.61 L7.41,3.61 L6.74,3.87 L6.32,4.03 C5.85,4.22 5.37,4.4 4.91,4.6 C3.91,5.04 2.91,5.54 1.91,6.05 L1.57,6.21 L1.37,6.3 L0.83,6.56 L0.4,6.8 C0.350835616,6.82055317 0.306543633,6.85121685 0.27,6.89 C0.20081595,6.96704433 0.161757216,7.06646656 0.16,7.17 C0.230223881,7.29388276 0.277642339,7.42936407 0.3,7.57 C0.368787393,7.68347174 0.469719642,7.77396272 0.59,7.83 C0.76,7.93 0.93,8.01 1.11,8.1 L1.65,8.33 L1.85,8.41 C2.1,8.51 2.34,8.63 2.54,8.73 L3.77,9.37 L4.54,9.78 L4.98,10.01 L5.98,10.5 L6.14,10.57 C6.32321162,10.670837 6.51374922,10.7577489 6.71,10.83 C6.76227812,10.8450037 6.81772188,10.8450037 6.87,10.83 C6.92942718,10.8335843 6.98758287,10.8117759 7.03,10.77 L7.03,10.77 C7.12046976,10.8848449 7.25436081,10.9572185 7.4,10.97 C7.54091989,10.9670168 7.67306152,10.900946 7.76,10.79 C7.85388848,10.6485075 7.89625806,10.4790292 7.88,10.31 C7.88,10.19 7.88,10.06 7.88,9.94 L7.88,9.64 L7.88,9.35 C7.88,8.74 7.95,8.13 7.94,7.55 L8.53,7.55 L9.06,7.55 L9.06,7.55 C9.06,7.8 9.06,8.04 9.06,8.32 L9.06,8.97 C9.06,9.53 9.06,10.09 9.01,10.79 L9.01,10.9 L9.01,11.02 C9.01050682,11.1315996 9.05340177,11.238837 9.13,11.32 C9.21719439,11.4155912 9.34061477,11.4700414 9.47,11.47 C9.69641892,11.4663667 9.88486825,11.2950492 9.91,11.07 C9.92022438,10.8801375 9.92022438,10.6898625 9.91,10.5 L9.91,10.21 L9.91,9.72 L9.91,9.5 C9.91,8.85 9.91,8.2 9.91,7.58 L10.39,7.58 L10.84,7.58 L10.84,8.37 L10.84,9.21 C10.84,9.37 10.84,9.53 10.84,9.69 L10.84,10.03 C10.84,10.2619596 11.0280404,10.45 11.26,10.45 C11.4897356,10.4447166 11.6747166,10.2597356 11.68,10.03 L11.68,9.57 C11.68,9.38 11.68,9.19 11.68,8.99 C11.68,8.79 11.68,8.71 11.68,8.57 L11.68,8.36 L11.68,7.94 L11.68,7.75 L11.68,7.61 L14.68,7.61 L27.97,7.47 L28.97,7.47 L29.97,7.47 L30.1,7.56 L30.44,7.78 L30.57,7.85 L30.67,7.91 C31.37,8.33 32.08,8.74 32.81,9.12 L33.81,9.66 L34.2,9.88 L34.31,9.94 L34.73,10.18 L35.16,10.41 L35.81,10.77 L36.64,11.27 C36.7429459,11.3305157 36.8660672,11.3465896 36.981099,11.3145315 C37.0961307,11.2824735 37.1931918,11.2050373 37.25,11.1 C37.2751053,11.0556906 37.2952278,11.0087379 37.31,10.96 C37.32526,10.8975859 37.32526,10.8324141 37.31,10.77 C37.2823408,10.6654948 37.2420435,10.5647515 37.19,10.47 C37.09,10.22 36.98,9.98 36.87,9.74 C36.76,9.5 36.58,9.11 36.38,8.74 L36.13,8.26 L35.77,7.52 L35.71,7.44 L35.71,7.44 L37.44,7.44 L37.44,7.44 L37.67,7.71 C37.97,8.03 38.27,8.34 38.56,8.71 C38.85,9.08 39.31,9.66 39.7,10.12 C39.9110319,10.3961819 40.141625,10.6568524 40.39,10.9 C40.4662825,10.9778365 40.5710222,11.021177 40.68,11.02 C40.794501,11.0190976 40.9047342,10.9764267 40.99,10.9 C41.1282088,10.7389159 41.1282088,10.5010841 40.99,10.34 C40.79,10.1 40.56,9.87 40.35,9.64 L40.35,9.64 C39.92,9.14 39.52,8.64 39.07,8.11 C38.85,7.86 38.61,7.64 38.38,7.41 L41.1,7.41 L45.46,7.36 L49.79,7.36 L54.16,7.36 L67.44,7.22 L73.93,7.15 L80.38,7.07 L82.86,7.07 L92.77,6.96 L94.64,6.96 L94.8,7.12 L95.67,7.92 L97.67,9.71 C98.34,10.29 99.01,10.87 99.67,11.44 L100.44,12.1 C100.68,12.3 100.92,12.49 101.14,12.71 C101.222433,12.7909303 101.334561,12.8343347 101.45,12.83 C101.612296,12.8292248 101.764533,12.7512497 101.86,12.62 C102.004894,12.3982419 101.947313,12.101479 101.73,11.95 L101.67,11.89 L101.67,11.89 L101.67,11.89 L101.67,11.89 C101.53,11.78 101.39,11.65 101.25,11.53 L100.75,11.09 L99.57,10.09 L96.99,7.92 L95.86,6.98 L95.86,6.98 C96.86,6.98 97.91,6.98 98.93,6.98 L99.03,7.09 C99.35,7.48 99.67,7.87 100.03,8.24 C100.39,8.61 100.73,8.97 101.09,9.33 C101.6,9.85 102.09,10.38 102.58,10.93 L102.58,10.93 L102.84,11.24 C102.94,11.34 103.02,11.45 103.11,11.55 C103.275974,11.6954562 103.524026,11.6954562 103.69,11.55 C103.69,11.55 103.69,11.49 103.69,11.47 L103.93,11.36 L104.46,11.03 C104.99,10.69 105.52,10.35 106.05,10.03 C106.58,9.71 107.05,9.38 107.57,9.03 C108.09,8.68 108.32,8.52 108.69,8.25 C109.06,7.98 109.28,7.82 109.57,7.6 L110.31,7.02 L110.31,7.02 C110.31,7.02 110.31,7.02 110.31,7.02 L110.31,7.02 C110.510503,7.02007324 110.674581,6.86042974 110.68,6.66 C110.685595,6.62690142 110.685595,6.59309858 110.68,6.56 C110.76237,6.4995336 110.814203,6.4060908 110.822886,6.30419943 C110.829582,6.20230807 110.792362,6.10214424 110.72,6.03 Z M100.35,5.57 L100.35,5.57 L101.43,4.65 C101.67,4.46 101.89,4.25 102.11,4.05 L102.19,4.14 C102.27,4.24 102.36,4.33 102.44,4.42 L103.17,5.19 C103.36,5.38 103.56,5.57 103.75,5.77 L103.52,5.77 L102.52,5.77 C101.68,5.77 100.84,5.77 99.98,5.77 L100.35,5.57 Z M100.14,7.09 L100.14,7.09 L99.89,6.81 L99.89,6.81 C100.55,6.81 101.2,6.81 101.89,6.81 L103.7,6.81 L103.11,7.53 L102.48,8.33 L102.15,8.77 C102.088849,8.83368299 102.035168,8.90413918 101.99,8.98 C101.37,8.35 100.73,7.75 100.14,7.09 Z M109.39,6.63 L108.65,7.2 L107.23,8.2 L107.23,8.2 C106.88,8.44 106.52,8.67 106.16,8.89 L104.94,9.66 C104.58,9.88 104.23,10.12 103.87,10.35 L103.5,10.59 L103.5,10.59 C103.31,10.38 103.12,10.16 102.92,9.95 L102.52,9.51 L102.52,9.51 C102.58,9.44 102.62,9.36 102.67,9.29 C102.748862,9.19765479 102.822318,9.1008265 102.89,9 L103.38,8.4 C103.55,8.18 103.74,7.96 103.92,7.74 L104.49,7.06 L104.49,7.06 C104.59,6.94 104.7,6.83 104.79,6.7 C104.904286,6.57149102 104.935334,6.3890825 104.87,6.23 C104.87,6.23 104.87,6.23 104.87,6.23 C104.95,6 104.82,5.83 104.67,5.67 C104.52,5.51 104.46,5.46 104.36,5.34 L103.7,4.68 L102.97,3.92 L102.69,3.63 L102.63,3.56 C102.99,3.23 103.34,2.89 103.71,2.56 L104.17,2.17 L104.17,2.17 L104.81,2.68 L105.63,3.28 L106.53,3.95 C106.94,4.25 107.33,4.55 107.74,4.83 L108.61,5.44 C109,5.71 109.38,6 109.75,6.3 L109.39,6.63 Z" id="Shape"></path>
            <path d="M106.89,5.68 C106.524346,5.50763383 106.087657,5.64737445 105.89,6 C105.826631,6.12039267 105.79238,6.25396922 105.79,6.39 C105.79736,6.74860475 106.054435,7.05324662 106.406695,7.12080347 C106.758956,7.18836032 107.110495,7.00043891 107.25,6.67 C107.420951,6.29708023 107.26056,5.85600664 106.89,5.68 L106.89,5.68 Z" id="Path"></path>
            <path d="M114.47,6.29 C114.464405,6.32309858 114.464405,6.35690142 114.47,6.39 C114.47,6.58882251 114.631177,6.75 114.83,6.75 L114.83,6.75 L114.83,6.75 L114.83,6.75 L115.58,7.33 C115.87,7.55 116.16,7.77 116.46,7.98 C116.76,8.19 117.2,8.51 117.58,8.76 C117.96,9.01 118.58,9.43 119.1,9.76 C119.62,10.09 120.16,10.42 120.68,10.76 L121.22,11.09 C121.296154,11.1345356 121.37655,11.1713838 121.46,11.2 C121.46,11.2 121.46,11.26 121.46,11.28 C121.536622,11.3562437 121.642088,11.3962481 121.75,11.39 C121.854491,11.3934118 121.955772,11.3536228 122.03,11.28 C122.13,11.18 122.21,11.07 122.3,10.97 L122.57,10.66 L122.57,10.66 C123.05,10.11 123.57,9.58 124.06,9.06 C124.42,8.7 124.77,8.34 125.06,7.97 C125.35,7.6 125.73,7.21 126.06,6.82 L126.15,6.71 C127.15,6.71 128.15,6.71 129.22,6.71 L129.27,6.71 C128.89,7.02 128.51,7.33 128.14,7.65 L125.55,9.82 L124.38,10.82 L123.87,11.26 C123.73,11.38 123.6,11.51 123.46,11.62 L123.46,11.62 L123.46,11.62 L123.46,11.62 L123.39,11.68 C123.172687,11.831479 123.115106,12.1282419 123.26,12.35 C123.356516,12.4800181 123.508091,12.5576542 123.67,12.56 C123.78606,12.5682454 123.899741,12.5242401 123.98,12.44 C124.21,12.22 124.45,12.03 124.69,11.83 L125.46,11.17 L127.46,9.44 C128.14,8.85 128.81,8.25 129.46,7.65 C129.76,7.39 130.05,7.12 130.33,6.85 C130.39,6.85 130.44,6.74 130.49,6.69 L132.47,6.69 L142.38,6.8 L144.85,6.8 L151.31,6.88 L157.8,6.95 L171.07,7.09 L175.45,7.09 L179.78,7.09 L184.14,7.14 L186.85,7.14 C186.62,7.37 186.39,7.59 186.17,7.84 C185.72,8.33 185.32,8.84 184.88,9.37 L184.88,9.37 C184.68,9.6 184.45,9.83 184.24,10.07 C184.097399,10.2294324 184.097399,10.4705676 184.24,10.63 C184.406956,10.7925888 184.673044,10.7925888 184.84,10.63 C185.082906,10.3817086 185.313196,10.1213811 185.53,9.85 C185.92,9.39 186.27,8.9 186.67,8.44 C187.07,7.98 187.26,7.81 187.55,7.44 L187.79,7.17 L187.79,7.17 L189.52,7.17 L189.52,7.17 L189.45,7.25 C189.34,7.49 189.22,7.75 189.09,7.99 L188.84,8.47 C188.65,8.84 188.49,9.15 188.35,9.47 C188.21,9.79 188.14,9.95 188.03,10.2 C187.984975,10.2967339 187.948178,10.3970887 187.92,10.5 C187.900113,10.5617722 187.900113,10.6282278 187.92,10.69 C187.932904,10.7379261 187.949624,10.7847423 187.97,10.83 C188.052072,10.9683579 188.199205,11.0551288 188.36,11.06 C188.437602,11.0617696 188.514042,11.0409223 188.58,11 L189.42,10.5 L190.06,10.14 L190.49,9.91 L190.92,9.67 L191.03,9.61 L191.41,9.39 L192.41,8.85 C193.14,8.47 193.84,8.06 194.55,7.64 L194.65,7.58 L194.78,7.51 L195.12,7.29 L195.24,7.2 L196.24,7.2 L197.24,7.2 L210.54,7.34 L213.54,7.34 L213.54,7.48 L213.54,7.67 L213.54,8.09 L213.54,8.3 C213.54,8.44 213.54,8.58 213.54,8.72 C213.54,8.86 213.54,9.11 213.54,9.3 L213.54,9.76 C213.550472,9.9913441 213.738474,10.1749737 213.97,10.18 C214.20196,10.18 214.39,9.99195959 214.39,9.76 C214.39,9.71 214.39,9.66 214.39,9.61 L214.39,9.42 C214.39,9.26 214.39,9.1 214.39,8.94 L214.39,8.1 C214.39,7.84 214.39,7.57 214.39,7.31 L214.84,7.31 L215.33,7.31 C215.33,7.93 215.33,8.58 215.33,9.23 L215.33,9.45 L215.33,9.94 L215.33,10.23 L215.33,10.8 C215.363701,11.0245198 215.553077,11.1928542 215.78,11.2 C215.905894,11.1972759 216.025168,11.1430607 216.11,11.05 C216.189414,10.969836 216.235813,10.8627622 216.24,10.75 L216.24,10.63 L216.24,10.52 C216.24,9.82 216.24,9.26 216.19,8.7 L216.19,8.05 C216.19,7.77 216.19,7.53 216.19,7.28 L216.19,7.28 L216.73,7.28 L217.32,7.28 C217.32,7.86 217.32,8.47 217.37,9.08 L217.37,9.37 L217.37,9.67 C217.37998,9.79313144 217.37998,9.91686856 217.37,10.04 C217.356665,10.2102058 217.402593,10.3797869 217.5,10.52 C217.586938,10.630946 217.71908,10.6970168 217.86,10.7 C217.939253,10.7030404 218.017076,10.6782787 218.08,10.63 C218.138685,10.5978394 218.189825,10.5535178 218.23,10.5 L218.23,10.5 C218.27463,10.5381722 218.331275,10.5594138 218.39,10.56 C218.445694,10.5748464 218.504306,10.5748464 218.56,10.56 C218.755459,10.4858385 218.945865,10.3989869 219.13,10.3 L219.29,10.23 L220.29,9.74 L220.73,9.51 L221.49,9.1 L222.73,8.46 C222.92,8.36 223.17,8.24 223.42,8.14 L223.62,8.06 L224.15,7.83 C224.33,7.74 224.51,7.66 224.68,7.56 C224.79959,7.506792 224.898091,7.41532655 224.96,7.3 C224.978305,7.24481158 224.978305,7.18518842 224.96,7.13 C225.027725,7.07338264 225.064785,6.98814357 225.060919,6.9 C225.067282,6.79679011 225.031017,6.69524598 224.96,6.62 C224.919804,6.5809615 224.872203,6.55036079 224.82,6.53 C224.681544,6.441559 224.537958,6.36141794 224.39,6.29 L223.86,6.03 L223.66,5.94 L223.47,6.29 C222.47,5.78 221.47,5.29 220.47,4.84 C220.01,4.64 219.54,4.46 219.06,4.27 L218.65,4.11 L217.97,3.85 C217.913804,3.83966658 217.856196,3.83966658 217.8,3.85 C217.62221,3.84368694 217.460635,3.95274989 217.4,4.12 C217.343037,4.20188687 217.314896,4.30037961 217.32,4.4 L217.32,4.82 C217.32,5.08 217.32,5.28 217.32,5.49 L217.32,7.04 L217.32,7.04 L216.8,7.04 L216.22,7.04 C216.235192,6.85030369 216.235192,6.65969631 216.22,6.47 L216.22,5.07 C216.23015,4.87346428 216.23015,4.67653572 216.22,4.48 C216.222732,4.37030033 216.202287,4.26125862 216.16,4.16 C216.103484,4.02173096 215.96937,3.93100698 215.82,3.93 C215.756711,3.93099575 215.694735,3.94821115 215.64,3.98 C215.46,4.08 215.45,4.3 215.43,4.47 L215.43,5.06 L215.43,5.39 L215.43,7.06 L215.43,7.06 C215.187096,7.03954631 214.942904,7.03954631 214.7,7.06 L214.45,7.06 L214.45,6.57 C214.45,6.29 214.4,6.04 214.39,5.8 L214.39,5.51 L214.39,5.26 C214.392142,5.15445858 214.364409,5.05046097 214.31,4.96 C214.244986,4.85147104 214.126463,4.78647502 214,4.79 C213.862731,4.78592306 213.736487,4.86482552 213.68,4.99 C213.623553,5.12584285 213.602895,5.2738941 213.62,5.42 C213.62,5.76 213.62,6.07 213.62,6.37 C213.62,6.67 213.62,6.84 213.62,7.08 L213.24,7.08 L212.83,7.08 L199.73,6.91 L197.65,6.91 L195.57,6.91 C195.57,6.83 195.43,6.77 195.34,6.71 C195.25,6.65 194.96,6.47 194.76,6.37 L194.67,6.32 C194.41,6.17 194.14,6.01 193.87,5.88 L193.26,5.58 L193.06,5.49 C192.47,5.19 191.9,4.87 191.33,4.55 C190.96,4.34 190.59,4.15 190.21,3.96 C189.83,3.77 189.72,3.71 189.47,3.56 C189.241693,3.42417925 189.004489,3.30390649 188.76,3.2 C188.707722,3.18499626 188.652278,3.18499626 188.6,3.2 C188.441724,3.19720637 188.298297,3.29282486 188.24,3.44 C188.205713,3.51283317 188.205713,3.59716683 188.24,3.67 C188.242634,3.81677085 188.280351,3.96078067 188.35,4.09 C188.559542,4.56645339 188.814026,5.02184657 189.11,5.45 L189.18,5.56 C189.478159,5.99789369 189.751909,6.45191824 190,6.92 L190,6.92 L189.87,6.92 L189.71,6.92 L188,6.92 L187.88,6.81 L187.57,6.48 C187.28,6.15 186.97,5.82 186.67,5.48 L185.74,4.48 C185.48,4.21 185.21,3.95 184.95,3.69 C184.792406,3.54266611 184.547594,3.54266611 184.39,3.69 C184.237543,3.8455374 184.237543,4.0944626 184.39,4.25 L185.2,5.07 C185.54,5.4 185.86,5.74 186.2,6.07 L186.95,6.84 L186.47,6.84 L177.68,6.73 L173.29,6.67 L166.72,6.59 L160.16,6.51 L154.33,6.44 C151.9,6.44 149.47,6.44 147.05,6.36 L145.57,6.36 L134.65,6.23 L133.07,6.23 L131.49,6.23 L130.98,6.23 C130.900168,6.14895112 130.813145,6.07531569 130.72,6.01 L129.97,5.47 C129.63,5.23 129.27,4.99 128.97,4.74 L127.88,3.96 C127.34,3.58 126.81,3.18 126.28,2.79 L125.03,1.87 L124.11,1.17 C123.754643,0.88976123 123.384079,0.629364607 123,0.39 C122.815458,0.280940331 122.5784,0.328352014 122.45,0.5 C122.379378,0.587716126 122.347944,0.70061873 122.363075,0.812210225 C122.378206,0.923801721 122.43857,1.02425708 122.53,1.09 L122.7,1.21 L122.7,1.21 C123.29,1.61 123.85,2.08 124.41,2.53 L125.56,3.44 C126.06,3.84 126.56,4.22 127.11,4.6 C127.9,5.16 128.69,5.72 129.5,6.25 L128.35,6.25 L126.44,6.25 C126.400703,6.20212707 126.35332,6.16151254 126.3,6.13 C126.156909,6.02464561 126.020014,5.91112366 125.89,5.79 L125.89,5.79 C125.59,5.52 125.3,5.23 124.99,4.96 L123.93,4.08 L123.93,4.08 C123.52,3.72 123.14,3.33 122.74,2.96 L121.91,2.2 L121.91,2.2 L121.52,1.86 L121.43,1.78 C121.358815,1.72448461 121.27019,1.69612487 121.18,1.7 C121.113918,1.66019146 121.036796,1.64266375 120.96,1.65 L120.96,1.65 C120.918093,1.66593464 120.877892,1.68603539 120.84,1.71 L120.79,1.71 L120.41,2.01 L119.96,2.35 C119.57,2.65 119.17,2.93 118.77,3.22 L116.44,4.87 C116.05,5.14 115.67,5.41 115.3,5.69 L114.91,5.99 C114.773337,6.06827683 114.654209,6.17379048 114.56,6.3 C114.53056,6.29278348 114.500306,6.28942202 114.47,6.29 L114.47,6.29 Z M125.19,5.81 C124.34,5.81 123.49,5.81 122.66,5.81 L121.66,5.81 L121.43,5.81 C121.62,5.61 121.82,5.42 122.01,5.23 C122.2,5.04 122.5,4.72 122.74,4.46 C122.828532,4.37144142 122.911998,4.27795961 122.99,4.18 L123.08,4.09 C123.3,4.29 123.52,4.5 123.75,4.69 C123.98,4.88 124.48,5.3 124.83,5.61 L124.83,5.61 L125.19,5.81 Z M123.19,8.94 L123.03,8.73 L122.69,8.29 C122.49,8.02 122.27,7.76 122.06,7.49 L121.47,6.77 L123.28,6.77 C123.94,6.77 124.6,6.77 125.28,6.77 L125.28,6.77 C125.19,6.86 125.11,6.96 125.03,7.05 L125.03,7.05 C124.47,7.75 123.84,8.35 123.22,8.98 L123.19,8.94 Z M115.39,6.29 C115.75,5.99 116.14,5.7 116.52,5.43 L117.4,4.82 C117.8,4.54 118.2,4.24 118.6,3.94 L119.47,3.29 L120.29,2.69 L120.93,2.18 L120.93,2.18 L121.39,2.57 C121.76,2.9 122.11,3.24 122.46,3.57 L122.4,3.64 L122.13,3.93 C121.88,4.18 121.64,4.43 121.4,4.69 C121.16,4.95 120.96,5.13 120.74,5.35 L120.43,5.68 C120.28,5.84 120.15,6.01 120.23,6.24 C120.23,6.24 120.23,6.24 120.23,6.24 C120.161971,6.3972196 120.189109,6.57942808 120.3,6.71 C120.394988,6.83694109 120.498564,6.95722292 120.61,7.07 L120.61,7.07 L121.18,7.75 L121.72,8.41 L122.2,9.01 L122.42,9.3 C122.47,9.37 122.52,9.45 122.58,9.52 L122.58,9.52 C122.44,9.67 122.3,9.81 122.17,9.96 C122.04,10.11 121.79,10.39 121.59,10.6 L121.59,10.6 L121.22,10.36 C120.86,10.13 120.51,9.89 120.14,9.67 L118.92,8.9 C118.56,8.68 118.2,8.45 117.85,8.21 L117.85,8.21 C117.37,7.88 116.9,7.55 116.44,7.21 L115.7,6.64 L115.39,6.29 Z" id="Shape"></path>
            <path d="M118.32,5.68 C118.672099,5.53310076 119.078539,5.67000693 119.27,6 C119.411859,6.23297253 119.41605,6.52459453 119.280945,6.7615476 C119.14584,6.99850068 118.892742,7.14342273 118.62,7.14 C118.311154,7.137719 118.032742,6.95341803 117.91,6.67 C117.756985,6.28342852 117.938475,5.84519608 118.32,5.68 L118.32,5.68 Z" id="Path"></path>
        </g>
    </g>
</svg>