<?xml version="1.0" encoding="UTF-8"?>
<svg width="109px" height="23px" viewBox="0 0 109 23" version="1.1" xmlns="http://www.w3.org/2000/svg" xmlns:xlink="http://www.w3.org/1999/xlink">
    <title>Group 2</title>
    <g id="Page-1" stroke="none" stroke-width="1" fill="none" fill-rule="evenodd">
        <g id="4909907" transform="translate(-280.000000, -292.000000)" fill="#3D2F17">
            <g id="Group-2" transform="translate(280.032339, 292.682069)">
                <path d="M55.6696606,13.8809308 C55.6566606,14.0179308 55.6366606,14.1499308 55.6126606,14.2849308 C55.5756606,14.4469308 55.5326606,14.6049308 55.4796606,14.7599308 C55.4296606,14.8919308 55.3746606,15.0229308 55.3156606,15.1499308 C55.2236606,15.3329308 55.1256606,15.5119308 55.0166606,15.6889308 C54.9776606,15.7429308 54.9376606,15.7949308 54.8966606,15.8469308 C54.8466606,15.8979308 54.7956606,15.9469308 54.7406606,15.9959308 C54.6846606,16.0429308 54.6296606,16.0889308 54.5716606,16.1329308 C54.5386606,16.1529308 54.5046606,16.1729308 54.4706606,16.1919308 C54.4636606,16.1949308 54.4566606,16.1979308 54.4496606,16.2009308 C54.3646606,16.2269308 54.2796606,16.2489308 54.1936606,16.2699308 C54.1096606,16.2849308 54.0256606,16.2969308 53.9396606,16.3059308 C53.8986606,16.3069308 53.8586606,16.3069308 53.8186606,16.3059308 C53.8096606,16.3049308 53.7996606,16.3039308 53.7906606,16.3029308 C53.7086606,16.2459308 53.6296606,16.1859308 53.5536606,16.1159308 C53.4946606,16.0599308 53.4386606,16.0029308 53.3846606,15.9439308 C53.3156606,15.8589308 53.2496606,15.7729308 53.1866606,15.6839308 C53.1186606,15.5799308 53.0556606,15.4739308 52.9996606,15.3629308 C52.9376606,15.2269308 52.8806606,15.0909308 52.8286606,14.9519308 C52.7886606,14.8259308 52.7536606,14.6989308 52.7246606,14.5679308 C52.6966606,14.4159308 52.6746606,14.2649308 52.6596606,14.1139308 C52.6606606,14.1289308 52.6616606,14.1439308 52.6616606,14.1599308 C52.6596606,14.1359308 52.6586606,14.1119308 52.6576606,14.0879308 C52.6566606,14.0759308 52.6546606,14.0649308 52.6536606,14.0529308 C52.6546606,14.0629308 52.6556606,14.0729308 52.6566606,14.0829308 C52.6506606,13.9609308 52.6486606,13.8399308 52.6536606,13.7169308 C52.6526606,13.7299308 52.6516606,13.7429308 52.6506606,13.7559308 C52.6516606,13.7379308 52.6526606,13.7199308 52.6546606,13.7019308 C52.6556606,13.6829308 52.6566606,13.6639308 52.6576606,13.6449308 C52.6576606,13.6569308 52.6576606,13.6699308 52.6566606,13.6819308 C52.6656606,13.5809308 52.6796606,13.4789308 52.6976606,13.3789308 C52.6966606,13.3859308 52.6956606,13.3929308 52.6946606,13.3999308 C52.7246606,13.2439308 52.7686606,13.0919308 52.8206606,12.9439308 C52.8196606,12.9459308 52.8186606,12.9479308 52.8176606,12.9499308 C52.8516606,12.8619308 52.8886606,12.7759308 52.9276606,12.6909308 C52.9906606,12.5659308 53.0606606,12.4469308 53.1376606,12.3289308 C53.1866606,12.2599308 53.2386606,12.1939308 53.2916606,12.1289308 C53.3846606,12.0259308 53.4826606,11.9269308 53.5876606,11.8309308 C53.6606606,11.7719308 53.7356606,11.7149308 53.8126606,11.6599308 C53.8676606,11.6239308 53.9236606,11.5899308 53.9846606,11.5589308 C54.0206606,11.5429308 54.0566606,11.5279308 54.0936606,11.5129308 C54.1416606,11.4989308 54.1886606,11.4869308 54.2346606,11.4749308 C54.2856606,11.4659308 54.3366606,11.4579308 54.3886606,11.4499308 C54.4216606,11.4489308 54.4536606,11.4489308 54.4866606,11.4489308 C54.5346606,11.4539308 54.5816606,11.4609308 54.6276606,11.4689308 C54.6666606,11.4779308 54.7066606,11.4869308 54.7466606,11.4979308 C54.7566606,11.5019308 54.7676606,11.5069308 54.7786606,11.5119308 C54.7826606,11.5149308 54.7876606,11.5179308 54.7926606,11.5209308 C54.8096606,11.5339308 54.8256606,11.5479308 54.8416606,11.5609308 C54.9146606,11.6279308 54.9846606,11.6989308 55.0506606,11.7729308 C55.0866606,11.8179308 55.1216606,11.8639308 55.1556606,11.9109308 C55.2056606,11.9889308 55.2516606,12.0669308 55.2946606,12.1469308 C55.3656606,12.2949308 55.4296606,12.4459308 55.4896606,12.5979308 C55.5406606,12.7499308 55.5806606,12.9039308 55.6136606,13.0609308 C55.6126606,13.0549308 55.6116606,13.0499308 55.6106606,13.0439308 C55.6116606,13.0499308 55.6126606,13.0559308 55.6136606,13.0629308 C55.6176606,13.0809308 55.6216606,13.0989308 55.6256606,13.1169308 C55.6226606,13.1059308 55.6206606,13.0939308 55.6186606,13.0829308 C55.6426606,13.2009308 55.6596606,13.3169308 55.6706606,13.4369308 C55.6756606,13.5859308 55.6766606,13.7339308 55.6696606,13.8809308 Z M57.2236606,12.8209308 C57.1456606,12.4249308 57.0306606,12.0459308 56.8636606,11.6749308 C56.7226606,11.3639308 56.5526606,11.0519308 56.3296606,10.7889308 C56.1226606,10.5399308 55.8996606,10.2919308 55.6216606,10.1209308 C55.3246606,9.93593083 54.9796606,9.84693083 54.6306606,9.82093083 C54.2306606,9.79093083 53.8186606,9.86893083 53.4436606,10.0169308 C53.3506606,10.0549308 53.2586606,10.0989308 53.1706606,10.1469308 C52.6626606,10.3579308 52.2206606,10.6879308 51.9006606,11.1479308 C51.6486606,11.5159308 51.4526606,11.8979308 51.3116606,12.3239308 C51.2796606,12.4219308 51.2526606,12.5209308 51.2286606,12.6209308 C51.0576606,13.1939308 51.0076606,13.7999308 51.0706606,14.3939308 C51.1166606,14.8529308 51.2316606,15.3019308 51.4066606,15.7259308 C51.4246606,15.7819308 51.4436606,15.8369308 51.4636606,15.8929308 C51.5376606,16.1109308 51.6196606,16.3379308 51.7346606,16.5379308 C51.9046606,16.8349308 52.1086606,17.0979308 52.3756606,17.3129308 C52.6056606,17.5019308 52.8506606,17.6579308 53.1246606,17.7729308 C53.1496606,17.7839308 53.1756606,17.7929308 53.2006606,17.8029308 C53.4646606,17.9429308 53.7596606,18.0509308 54.0486606,18.0509308 C54.1966606,18.0509308 54.3436606,18.0229308 54.4826606,17.9549308 C54.5526606,17.9219308 54.6156606,17.8799308 54.6726606,17.8319308 C54.8036606,17.8019308 54.9326606,17.7639308 55.0536606,17.7139308 C55.5506606,17.4989308 55.9996606,17.1239308 56.3116606,16.6829308 C56.5856606,16.2929308 56.8156606,15.8479308 56.9786606,15.3959308 C57.2756606,14.5719308 57.3946606,13.6889308 57.2236606,12.8209308 L57.2236606,12.8209308 Z" id="Fill-227"></path>
                <path d="M54.4536606,13.0289308 C54.4466606,12.9179308 54.4426606,12.8179308 54.3726606,12.7249308 C54.2426606,12.5539308 53.9716606,12.5539308 53.8416606,12.7249308 C53.7676606,12.8179308 53.7636606,12.9249308 53.7606606,13.0369308 C53.7526606,13.1739308 53.7486606,13.3109308 53.7486606,13.4479308 C53.7416606,13.8339308 53.7456606,14.2229308 53.7226606,14.6089308 C53.7086606,14.8169308 53.9046606,14.9879308 54.1016606,14.9879308 C54.2976606,14.9879308 54.4876606,14.8169308 54.4756606,14.6089308 C54.4616606,14.2229308 54.4646606,13.8339308 54.4646606,13.4479308 C54.4646606,13.3069308 54.4616606,13.1659308 54.4536606,13.0289308" id="Fill-228"></path>
                <path d="M51.7626606,16.8969308 C51.3866606,16.9069308 51.0116606,16.9039308 50.6396606,16.8809308 C50.6416606,16.8809308 50.6436606,16.8809308 50.6456606,16.8819308 C50.6406606,16.8809308 50.6366606,16.8809308 50.6316606,16.8799308 C50.6176606,16.8799308 50.6036606,16.8789308 50.5896606,16.8779308 C50.5956606,16.8779308 50.6026606,16.8779308 50.6096606,16.8779308 C50.0996606,16.8309308 49.5966606,16.7579308 49.0936606,16.6569308 C48.5476606,16.5399308 48.0126606,16.3909308 47.4856606,16.2179308 C47.4946606,16.2209308 47.5026606,16.2249308 47.5106606,16.2289308 C46.9216606,16.0199308 46.3396606,15.7929308 45.7756606,15.5169308 C45.1646606,15.1949308 44.5676606,14.8429308 43.9956606,14.4569308 C43.6796606,14.2399308 43.3716606,14.0149308 43.0816606,13.7619308 C43.0856606,13.7659308 43.0896606,13.7699308 43.0936606,13.7729308 C43.0826606,13.7639308 43.0726606,13.7549308 43.0626606,13.7459308 C43.0606606,13.7439308 43.0586606,13.7419308 43.0566606,13.7399308 C43.0576606,13.7409308 43.0576606,13.7409308 43.0586606,13.7419308 C42.9156606,13.6129308 42.7786606,13.4789308 42.6466606,13.3389308 C42.6506606,13.3439308 42.6556606,13.3489308 42.6596606,13.3539308 C42.6546606,13.3489308 42.6506606,13.3429308 42.6456606,13.3379308 C42.6386606,13.3309308 42.6326606,13.3239308 42.6256606,13.3169308 C42.6316606,13.3229308 42.6376606,13.3289308 42.6436606,13.3349308 C42.5786606,13.2569308 42.5156606,13.1799308 42.4576606,13.0999308 C42.4956606,13.0899308 42.5336606,13.0809308 42.5716606,13.0719308 C42.6646606,13.0549308 42.7556606,13.0439308 42.8476606,13.0349308 C42.8406606,13.0349308 42.8336606,13.0349308 42.8266606,13.0349308 C42.8366606,13.0349308 42.8476606,13.0339308 42.8586606,13.0339308 C42.8666606,13.0329308 42.8736606,13.0319308 42.8816606,13.0319308 C42.8776606,13.0319308 42.8736606,13.0329308 42.8696606,13.0329308 C43.1516606,13.0219308 43.4366606,13.0349308 43.7216606,13.0489308 C44.2106606,13.0829308 44.6986606,13.1409308 45.1766606,13.2319308 C45.6746606,13.3389308 46.1586606,13.4899308 46.6436606,13.6579308 L46.6426606,13.6579308 C47.2136606,13.8619308 47.7716606,14.0969308 48.3126606,14.3709308 C48.3016606,14.3629308 48.2916606,14.3569308 48.2816606,14.3519308 C48.7076606,14.5669308 49.1226606,14.8009308 49.5166606,15.0669308 C50.3146606,15.6139308 51.0386606,16.2609308 51.7656606,16.8969308 C51.7546606,16.8879308 51.7416606,16.8799308 51.7316606,16.8709308 C51.7416606,16.8789308 51.7516606,16.8879308 51.7626606,16.8969308 Z M53.0786606,16.7959308 C53.0646606,16.7959308 53.0516606,16.7969308 53.0376606,16.7989308 C52.9786606,16.7999308 52.9186606,16.8039308 52.8556606,16.8109308 C52.7696606,16.8219308 52.6826606,16.8319308 52.5956606,16.8409308 C52.6236606,16.6969308 52.5696606,16.5419308 52.4476606,16.4439308 C52.3216606,16.3439308 52.1916606,16.2399308 52.0656606,16.1319308 C51.5616606,15.7099308 51.0796606,15.2569308 50.5596606,14.8529308 C49.9216606,14.3519308 49.2316606,13.9249308 48.5086606,13.5619308 C48.5236606,13.5689308 48.5386606,13.5769308 48.5566606,13.5839308 C47.3516606,12.9799308 46.0606606,12.4899308 44.7176606,12.3079308 C44.3096606,12.2529308 43.8986606,12.2119308 43.4866606,12.2009308 C43.1896606,12.1929308 42.8856606,12.1859308 42.5926606,12.2299308 C42.3626606,12.2669308 42.1176606,12.3159308 41.9106606,12.4269308 C41.7506606,12.5119308 41.6176606,12.6459308 41.5726606,12.8239308 C41.5356606,12.9609308 41.5686606,13.1129308 41.6316606,13.2389308 C41.8176606,13.6139308 42.1256606,13.9289308 42.4296606,14.2069308 C42.9786606,14.7159308 43.5826606,15.1419308 44.2096606,15.5429308 C44.5846606,15.7799308 44.9586606,16.0059308 45.3486606,16.2139308 C45.7636606,16.4329308 46.2016606,16.6149308 46.6436606,16.7849308 C47.4626606,17.1079308 48.3126606,17.3749308 49.1796606,17.5419308 C49.8846606,17.6789308 50.6036606,17.7559308 51.3236606,17.7559308 C51.5206606,17.7559308 51.7166606,17.7499308 51.9136606,17.7389308 C52.2516606,17.7159308 52.5816606,17.6789308 52.9116606,17.6009308 C53.0176606,17.5749308 53.1166606,17.5449308 53.2106606,17.4959308 C53.2276606,17.4889308 53.2446606,17.4809308 53.2606606,17.4719308 C53.4016606,17.3899308 53.4716606,17.2189308 53.4276606,17.0599308 C53.3866606,16.9079308 53.2376606,16.7959308 53.0786606,16.7959308 L53.0786606,16.7959308 Z" id="Fill-229"></path>
                <path d="M40.8896606,18.8589308 C40.5666606,18.8769308 40.2396606,18.8909308 39.9156606,18.8909308 C39.6056606,18.8939308 39.2956606,18.8769308 38.9866606,18.8619308 C38.7076606,18.8409308 38.4286606,18.8229308 38.1496606,18.7869308 C37.8286606,18.7479308 37.5116606,18.6959308 37.1936606,18.6329308 C37.0146606,18.5929308 36.8346606,18.5489308 36.6586606,18.4979308 C36.4776606,18.4489308 36.2996606,18.3899308 36.1246606,18.3299308 C36.1286606,18.3319308 36.1316606,18.3339308 36.1356606,18.3359308 C35.9216606,18.2589308 35.7046606,18.1809308 35.4946606,18.0889308 C35.2886606,18.0009308 35.0856606,17.9079308 34.8796606,17.8129308 C34.8876606,17.8169308 34.8936606,17.8209308 34.9006606,17.8259308 C34.7006606,17.7219308 34.4966606,17.6259308 34.3076606,17.5109308 C34.1306606,17.4029308 33.9566606,17.2949308 33.7826606,17.1819308 C33.5236606,16.9939308 33.2796606,16.7999308 33.0376606,16.5949308 C32.7496606,16.3269308 32.4716606,16.0489308 32.2076606,15.7559308 C32.2176606,15.7639308 32.2256606,15.7709308 32.2336606,15.7799308 C32.0116606,15.5149308 31.8046606,15.2459308 31.6066606,14.9679308 C31.2496606,14.4389308 30.9426606,13.8859308 30.6546606,13.3169308 C30.4216606,12.8469308 30.2076606,12.3709308 30.0066606,11.8889308 C30.1506606,11.9359308 30.2956606,11.9779308 30.4396606,12.0159308 C30.8956606,12.1379308 31.3556606,12.2419308 31.8156606,12.3539308 C32.2666606,12.4619308 32.7066606,12.5829308 33.1466606,12.7319308 C33.7666606,12.9559308 34.3786606,13.2089308 34.9736606,13.4989308 C35.3796606,13.7059308 35.7826606,13.9199308 36.1666606,14.1559308 C36.5566606,14.3969308 36.9386606,14.6499308 37.3166606,14.9049308 C37.3136606,14.9019308 37.3096606,14.8989308 37.3056606,14.8959308 C38.0816606,15.4279308 38.8476606,15.9729308 39.6196606,16.5149308 C40.1146606,16.8619308 40.6056606,17.2049308 41.1486606,17.4789308 C41.3056606,17.5539308 41.4626606,17.6299308 41.6266606,17.6909308 C41.9906606,17.8319308 42.3686606,17.9399308 42.7506606,18.0209308 C43.1106606,18.0989308 43.4736606,18.1659308 43.8376606,18.2069308 C44.1356606,18.2389308 44.4346606,18.2609308 44.7336606,18.2819308 C44.1496606,18.3959308 43.5666606,18.5149308 42.9796606,18.6129308 C42.2866606,18.7259308 41.5896606,18.8029308 40.8896606,18.8589308 Z M48.0226606,17.9529308 C47.9496606,17.8569308 47.8396606,17.7909308 47.7126606,17.7909308 C47.6076606,17.7909308 47.5056606,17.7859308 47.4026606,17.7829308 C47.3416606,17.7179308 47.2646606,17.6689308 47.1716606,17.6579308 C46.6926606,17.6039308 46.2106606,17.5709308 45.7286606,17.5389308 C45.7196606,17.5379308 45.7106606,17.5379308 45.7016606,17.5369308 C45.6946606,17.5369308 45.6876606,17.5359308 45.6806606,17.5359308 C45.4036606,17.5169308 45.1286606,17.5019308 44.8526606,17.4829308 C44.2426606,17.4429308 43.6336606,17.3869308 43.0346606,17.2669308 C42.7176606,17.2019308 42.4046606,17.1169308 42.0946606,17.0099308 C41.8946606,16.9379308 41.6976606,16.8529308 41.5066606,16.7599308 C41.4856606,16.7499308 41.4646606,16.7399308 41.4446606,16.7299308 C41.4596606,16.7379308 41.4786606,16.7449308 41.4936606,16.7529308 C41.1706606,16.5899308 40.8656606,16.3989308 40.5636606,16.1979308 C40.5626606,16.1979308 40.5616606,16.1969308 40.5616606,16.1969308 C40.5556606,16.1929308 40.5506606,16.1899308 40.5446606,16.1859308 C40.5476606,16.1869308 40.5496606,16.1889308 40.5516606,16.1899308 C40.0146606,15.8259308 39.4896606,15.4439308 38.9596606,15.0689308 C37.5836606,14.0929308 36.1816606,13.1289308 34.6166606,12.4759308 C33.8186606,12.1459308 33.0106606,11.8599308 32.1686606,11.6559308 C31.4156606,11.4709308 30.6476606,11.3339308 29.9096606,11.0809308 C29.9246606,11.0889308 29.9386606,11.0929308 29.9536606,11.0999308 C29.8536606,11.0629308 29.7536606,11.0069308 29.6496606,10.9849308 C29.5236606,10.9569308 29.4036606,11.0029308 29.3176606,11.0949308 C29.3076606,11.0979308 29.2956606,11.0969308 29.2846606,11.1009308 C29.0956606,11.1829308 29.0256606,11.3909308 29.0926606,11.5799308 C29.3146606,12.2139308 29.5896606,12.8339308 29.8786606,13.4459308 C30.1826606,14.0979308 30.5166606,14.7399308 30.9096606,15.3449308 C31.1026606,15.6449308 31.3176606,15.9309308 31.5436606,16.2049308 C31.7706606,16.4829308 32.0116606,16.7499308 32.2746606,16.9919308 C32.7756606,17.4589308 33.3136606,17.8929308 33.9146606,18.2299308 C34.3296606,18.4599308 34.7526606,18.6869308 35.1936606,18.8649308 C35.6686606,19.0539308 36.1476606,19.2389308 36.6446606,19.3579308 C37.1416606,19.4799308 37.6416606,19.5839308 38.1536606,19.6359308 C38.6356606,19.6839308 39.1186606,19.7179308 39.6006606,19.7289308 C39.7006606,19.7309308 39.7996606,19.7329308 39.8996606,19.7329308 C40.7336606,19.7329308 41.5656606,19.6519308 42.3936606,19.5359308 C43.3326606,19.4049308 44.2606606,19.2009308 45.1886606,19.0069308 C45.1856606,19.0079308 45.1816606,19.0089308 45.1786606,19.0089308 C45.8716606,18.8699308 46.5706606,18.7379308 47.2736606,18.6819308 C47.5026606,18.6679308 47.7286606,18.6639308 47.9576606,18.6499308 C48.0576606,18.6459308 48.1496606,18.6309308 48.2356606,18.5719308 C48.4096606,18.4379308 48.4096606,18.1599308 48.2356606,18.0259308 C48.1716606,17.9779308 48.0976606,17.9619308 48.0226606,17.9529308 L48.0226606,17.9529308 Z" id="Fill-230"></path>
                <path d="M41.1556606,17.4829308 C41.1526606,17.4819308 41.1506606,17.4799308 41.1486606,17.4789308 C41.1346606,17.4729308 41.1206606,17.4679308 41.1076606,17.4609308 C41.1256606,17.4689308 41.1406606,17.4759308 41.1556606,17.4829308" id="Fill-231"></path>
                <path d="M30.0186606,17.1309308 C29.7326606,17.1379308 29.4466606,17.1519308 29.1616606,17.1719308 C28.0336606,17.2459308 26.9096606,17.3939308 25.8006606,17.6199308 C24.1876606,17.9499308 22.5926606,18.3589308 21.0126606,18.8219308 C20.1486606,19.0779308 19.2806606,19.3269308 18.4196606,19.5939308 C17.9676606,19.7349308 17.5146606,19.8759308 17.0546606,20.0019308 C16.5986606,20.1239308 16.1386606,20.2319308 15.6746606,20.3289308 C15.2726606,20.4089308 14.8706606,20.4739308 14.4646606,20.5119308 C14.1746606,20.5279308 13.8866606,20.5279308 13.5996606,20.5069308 C13.3826606,20.4889308 13.1686606,20.4609308 12.9546606,20.4219308 C12.7916606,20.3879308 12.6296606,20.3469308 12.4726606,20.2979308 C12.3986606,20.2719308 12.3256606,20.2449308 12.2556606,20.2119308 C12.2346606,20.1999308 12.2146606,20.1879308 12.1926606,20.1759308 C12.1796606,20.1659308 12.1666606,20.1549308 12.1536606,20.1449308 C12.1486606,20.1379308 12.1426606,20.1319308 12.1366606,20.1269308 C12.1276606,20.1169308 12.1196606,20.1069308 12.1116606,20.0959308 C12.1106606,20.0959308 12.1096606,20.0949308 12.1096606,20.0939308 C12.1066606,20.0889308 12.1036606,20.0829308 12.1006606,20.0769308 C12.0986606,20.0719308 12.0956606,20.0669308 12.0936606,20.0619308 C12.0926606,20.0589308 12.0926606,20.0559308 12.0916606,20.0539308 C12.0916606,20.0529308 12.0916606,20.0519308 12.0916606,20.0499308 C12.0926606,20.0429308 12.0936606,20.0359308 12.0956606,20.0289308 C12.0986606,20.0209308 12.1026606,20.0119308 12.1066606,20.0029308 C12.1166606,19.9869308 12.1266606,19.9739308 12.1366606,19.9569308 C12.1256606,19.9709308 12.1186606,19.9819308 12.1116606,19.9919308 C12.1236606,19.9729308 12.1376606,19.9539308 12.1506606,19.9349308 C12.1486606,19.9379308 12.1456606,19.9399308 12.1436606,19.9419308 C12.1466606,19.9389308 12.1496606,19.9349308 12.1526606,19.9309308 C12.1586606,19.9219308 12.1646606,19.9139308 12.1696606,19.9049308 C12.1656606,19.9119308 12.1606606,19.9199308 12.1556606,19.9279308 C12.1916606,19.8819308 12.2286606,19.8369308 12.2646606,19.7909308 C12.2596606,19.7969308 12.2536606,19.8029308 12.2476606,19.8089308 C12.2556606,19.7999308 12.2646606,19.7909308 12.2726606,19.7819308 C12.2736606,19.7789308 12.2756606,19.7769308 12.2776606,19.7759308 C12.2766606,19.7769308 12.2756606,19.7779308 12.2746606,19.7789308 C12.3416606,19.7059308 12.4136606,19.6369308 12.4886606,19.5679308 C12.4856606,19.5689308 12.4826606,19.5709308 12.4806606,19.5729308 C12.8706606,19.2349308 13.2906606,18.9349308 13.7146606,18.6449308 C14.0166606,18.4449308 14.3186606,18.2419308 14.6326606,18.0539308 C14.9406606,17.8719308 15.2526606,17.7029308 15.5746606,17.5409308 C16.3116606,17.1819308 17.0596606,16.8549308 17.8316606,16.5699308 C17.8286606,16.5719308 17.8256606,16.5729308 17.8226606,16.5739308 C18.1936606,16.4449308 18.5676606,16.3259308 18.9496606,16.2179308 C19.2926606,16.1189308 19.6376606,16.0389308 19.9836606,15.9639308 C20.4406606,15.8719308 20.9006606,15.7909308 21.3606606,15.7249308 C21.7556606,15.6669308 22.1576606,15.6299308 22.5556606,15.5979308 C22.9336606,15.5759308 23.3156606,15.5579308 23.6946606,15.5659308 C24.0956606,15.5729308 24.4936606,15.5879308 24.8946606,15.6099308 C25.1776606,15.6309308 25.4596606,15.6529308 25.7376606,15.6919308 C26.0666606,15.7359308 26.3916606,15.7909308 26.7176606,15.8539308 C26.9916606,15.9139308 27.2656606,15.9769308 27.5366606,16.0479308 C27.8146606,16.1219308 28.0886606,16.2069308 28.3586606,16.2989308 C28.7606606,16.4529308 29.1516606,16.6239308 29.5366606,16.8159308 C29.7286606,16.9149308 29.9176606,17.0179308 30.1016606,17.1289308 C30.0736606,17.1289308 30.0456606,17.1299308 30.0186606,17.1309308 Z M31.4576606,17.2309308 C31.3236606,17.0899308 31.1716606,16.9639308 31.0196606,16.8489308 C30.6046606,16.5299308 30.1556606,16.2699308 29.6916606,16.0329308 C28.7426606,15.5429308 27.6996606,15.2429308 26.6536606,15.0419308 C25.6856606,14.8569308 24.7026606,14.7939308 23.7166606,14.7789308 C22.7966606,14.7639308 21.8806606,14.8569308 20.9716606,14.9909308 C20.4786606,15.0649308 19.9926606,15.1689308 19.5066606,15.2759308 C19.0686606,15.3759308 18.6306606,15.4949308 18.2046606,15.6359308 C17.7186606,15.7989308 17.2366606,15.9739308 16.7616606,16.1699308 C16.3386606,16.3409308 15.9266606,16.5339308 15.5156606,16.7339308 C14.6956606,17.1349308 13.9166606,17.6059308 13.1716606,18.1319308 C12.8266606,18.3769308 12.4816606,18.6259308 12.1586606,18.8959308 C11.8876606,19.1259308 11.6096606,19.3709308 11.4466606,19.6899308 C11.3496606,19.8829308 11.3236606,20.1059308 11.3986606,20.3099308 C11.4646606,20.5059308 11.5946606,20.6579308 11.7576606,20.7809308 C11.9136606,20.8989308 12.1106606,20.9729308 12.2956606,21.0329308 C12.5036606,21.1029308 12.7186606,21.1519308 12.9376606,21.1919308 C13.2936606,21.2579308 13.6526606,21.2859308 14.0116606,21.2859308 C14.5296606,21.2859308 15.0476606,21.2269308 15.5596606,21.1329308 C16.5246606,20.9589308 17.4696606,20.6839308 18.4086606,20.4059308 C19.2616606,20.1499308 20.1106606,19.8899308 20.9676606,19.6459308 C21.7576606,19.4159308 22.5476606,19.1969308 23.3496606,18.9999308 C24.1446606,18.8029308 24.9396606,18.6099308 25.7456606,18.4449308 C25.7416606,18.4459308 25.7376606,18.4469308 25.7346606,18.4479308 C26.8456606,18.2249308 27.9636606,18.0669308 29.0926606,17.9879308 C29.0926606,17.9879308 29.0916606,17.9879308 29.0906606,17.9879308 C29.0936606,17.9879308 29.0956606,17.9869308 29.0976606,17.9869308 C29.1056606,17.9869308 29.1136606,17.9859308 29.1216606,17.9859308 C29.1196606,17.9859308 29.1176606,17.9859308 29.1156606,17.9859308 C29.5996606,17.9539308 30.0936606,17.9269308 30.5806606,17.9549308 C30.5786606,17.9549308 30.5766606,17.9549308 30.5746606,17.9539308 C30.5836606,17.9549308 30.5926606,17.9559308 30.6016606,17.9559308 C30.6106606,17.9569308 30.6206606,17.9569308 30.6306606,17.9579308 C30.6276606,17.9579308 30.6246606,17.9579308 30.6216606,17.9579308 C30.7236606,17.9659308 30.8236606,17.9789308 30.9236606,17.9989308 C31.0236606,18.0179308 31.1226606,17.9899308 31.2036606,17.9339308 C31.3096606,17.9709308 31.4276606,17.9599308 31.5246606,17.8839308 C31.6506606,17.7869308 31.6876606,17.6239308 31.6316606,17.4759308 C31.5946606,17.3829308 31.5246606,17.3009308 31.4576606,17.2309308 L31.4576606,17.2309308 Z" id="Fill-232"></path>
                <path d="M14.4686606,6.45593083 C14.4676606,6.45493083 14.4666606,6.45393083 14.4656606,6.45293083 C14.4666606,6.45393083 14.4676606,6.45493083 14.4686606,6.45593083" id="Fill-233"></path>
                <path d="M7.55366056,1.08793083 C7.55766056,1.07493083 7.56066056,1.06193083 7.56466056,1.04893083 C7.56966056,1.03393083 7.57566056,1.01993083 7.58266056,1.00593083 C7.58766056,0.996930835 7.59166056,0.987930835 7.59666056,0.979930835 C7.60366056,0.970930835 7.61066056,0.960930835 7.61666056,0.951930835 C7.64066056,0.926930835 7.66566056,0.901930835 7.69266056,0.877930835 C7.68966056,0.880930835 7.68766056,0.882930835 7.68566056,0.884930835 C7.68966056,0.880930835 7.69466056,0.875930835 7.69966056,0.871930835 C7.70366056,0.867930835 7.70766056,0.864930835 7.71166056,0.860930835 C7.71966056,0.853930835 7.72866056,0.847930835 7.73766056,0.841930835 C7.76466056,0.826930835 7.78966056,0.811930835 7.81566056,0.796930835 C7.83866056,0.785930835 7.86066056,0.775930835 7.88366056,0.765930835 C7.88966056,0.762930835 7.89666056,0.759930835 7.90366056,0.757930835 C7.91366056,0.755930835 7.92266056,0.753930835 7.93266056,0.751930835 C7.95366056,0.751930835 7.97366056,0.751930835 7.99466056,0.751930835 C8.01166056,0.752930835 8.02766056,0.754930835 8.04366056,0.756930835 C8.04166056,0.755930835 8.03966056,0.755930835 8.03766056,0.754930835 C8.03966056,0.755930835 8.04166056,0.755930835 8.04366056,0.756930835 C8.05766056,0.757930835 8.07166056,0.759930835 8.08566056,0.762930835 C8.07266056,0.762930835 8.06066056,0.760930835 8.04966056,0.757930835 C8.13066056,0.776930835 8.21066056,0.798930835 8.29166056,0.824930835 C8.28766056,0.823930835 8.28366056,0.822930835 8.27866056,0.821930835 C8.38466056,0.860930835 8.48466056,0.906930835 8.58366056,0.955930835 C8.70166056,1.02293083 8.81366056,1.09593083 8.92966056,1.17093083 C9.25166056,1.39693083 9.55166056,1.65093083 9.85066056,1.91093083 C9.84666056,1.90793083 9.84366056,1.90493083 9.84066056,1.90093083 C10.2816606,2.29093083 10.7116606,2.68793083 11.1196606,3.11093083 C11.5096606,3.51093083 11.8806606,3.92993083 12.2626606,4.33793083 C12.9606606,5.07993083 13.7026606,5.77893083 14.4656606,6.45293083 C14.4736606,6.45993083 14.4816606,6.46693083 14.4896606,6.47393083 C14.4866606,6.47093083 14.4836606,6.46793083 14.4806606,6.46593083 C14.4866606,6.47093083 14.4926606,6.47693083 14.4986606,6.48193083 C14.4966606,6.47893083 14.4936606,6.47693083 14.4906606,6.47493083 C14.8426606,6.78293083 15.1946606,7.08993083 15.5636606,7.37993083 C15.9086606,7.65393083 16.2606606,7.91393083 16.6166606,8.16993083 C17.2736606,8.63693083 17.9486606,9.08193083 18.6496606,9.48293083 C19.3436606,9.87993083 20.0666606,10.2029308 20.8156606,10.4769308 C21.3646606,10.6769308 21.9206606,10.8589308 22.4816606,11.0409308 C23.2696606,11.3029308 24.0646606,11.5479308 24.8486606,11.8169308 C24.8446606,11.8159308 24.8406606,11.8139308 24.8366606,11.8119308 C24.8526606,11.8179308 24.8676606,11.8239308 24.8836606,11.8289308 C24.8856606,11.8299308 24.8866606,11.8299308 24.8886606,11.8309308 L24.8876606,11.8309308 C25.1966606,11.9399308 25.5026606,12.0569308 25.8046606,12.1799308 C25.8536606,12.1989308 25.9036606,12.2189308 25.9526606,12.2389308 C25.5876606,12.2409308 25.2256606,12.2569308 24.8626606,12.2799308 C24.3956606,12.3059308 23.9316606,12.3349308 23.4646606,12.3579308 C22.5516606,12.4089308 21.6426606,12.4499308 20.7306606,12.4799308 C20.2516606,12.4949308 19.7736606,12.5129308 19.2946606,12.5239308 C18.8426606,12.5349308 18.3906606,12.5179308 17.9386606,12.4969308 C17.9416606,12.4969308 17.9456606,12.4979308 17.9486606,12.4989308 C17.9336606,12.4979308 17.9186606,12.4959308 17.9036606,12.4949308 C17.8996606,12.4949308 17.8966606,12.4949308 17.8926606,12.4949308 C17.8946606,12.4949308 17.8956606,12.4949308 17.8966606,12.4949308 C17.0176606,12.4329308 16.1396606,12.3519308 15.2676606,12.2009308 C15.0366606,12.1519308 14.8046606,12.1019308 14.5766606,12.0419308 C14.3096606,11.9759308 14.0486606,11.8919308 13.7886606,11.8039308 C13.5006606,11.6909308 13.2206606,11.5649308 12.9416606,11.4269308 C12.4746606,11.1799308 12.0186606,10.9109308 11.5726606,10.6169308 C11.3516606,10.4589308 11.1306606,10.3009308 10.9166606,10.1289308 C10.6446606,9.88493083 10.3906606,9.62793083 10.1436606,9.35793083 C9.96166056,9.13093083 9.78766056,8.89993083 9.62266056,8.66293083 C9.36366056,8.25493083 9.12766056,7.83693083 8.91066056,7.40793083 C8.72466056,7.01793083 8.55466056,6.62393083 8.40766056,6.21493083 C8.15466056,5.44893083 7.96766056,4.66193083 7.80366056,3.87093083 C7.80366056,3.87493083 7.80466056,3.87893083 7.80466056,3.88293083 C7.68766056,3.27193083 7.59266056,2.65593083 7.54366056,2.03793083 C7.54366056,2.03593083 7.54366056,2.03493083 7.54366056,2.03293083 C7.54366056,2.02893083 7.54266056,2.02493083 7.54266056,2.02093083 C7.54266056,2.02293083 7.54266056,2.02393083 7.54366056,2.02593083 C7.52566056,1.76893083 7.51566056,1.51193083 7.52866056,1.25493083 C7.53466056,1.19893083 7.54266056,1.14393083 7.55366056,1.08793083 Z M7.02166056,3.72593083 C7.18066056,4.64993083 7.38866056,5.56593083 7.68566056,6.45593083 C7.97866056,7.33493083 8.39766056,8.18793083 8.89066056,8.96693083 C9.41366056,9.79393083 10.0856606,10.5329308 10.8826606,11.1039308 C11.2756606,11.3859308 11.6766606,11.6489308 12.0996606,11.8869308 C12.5076606,12.1199308 12.9266606,12.3349308 13.3636606,12.5059308 C14.2356606,12.8429308 15.1706606,13.0549308 16.1016606,13.1659308 C17.0196606,13.2729308 17.9476606,13.3559308 18.8736606,13.3559308 C18.9126606,13.3559308 18.9516606,13.3559308 18.9906606,13.3549308 C19.9556606,13.3519308 20.9196606,13.3109308 21.8836606,13.2699308 C22.8386606,13.2299308 23.7936606,13.1609308 24.7516606,13.0919308 C24.7506606,13.0919308 24.7486606,13.0919308 24.7476606,13.0919308 C24.7586606,13.0909308 24.7686606,13.0909308 24.7796606,13.0899308 C24.7876606,13.0899308 24.7956606,13.0889308 24.8036606,13.0879308 C24.8026606,13.0879308 24.8016606,13.0879308 24.8006606,13.0889308 C25.4216606,13.0499308 26.0426606,13.0129308 26.6596606,13.0499308 C26.8046606,13.0639308 26.9496606,13.0789308 27.0916606,13.1069308 C27.0736606,13.1029308 27.0586606,13.0999308 27.0436606,13.0959308 C27.1186606,13.1109308 27.1826606,13.1269308 27.2566606,13.1199308 C27.2546606,13.1209308 27.2526606,13.1209308 27.2516606,13.1219308 C27.2616606,13.1209308 27.2726606,13.1189308 27.2826606,13.1169308 C27.2886606,13.1159308 27.2936606,13.1149308 27.2996606,13.1139308 C27.2976606,13.1139308 27.2966606,13.1139308 27.2946606,13.1139308 C27.4156606,13.0849308 27.5146606,12.9779308 27.5476606,12.8619308 C27.5586606,12.8259308 27.5626606,12.7889308 27.5606606,12.7529308 C27.6316606,12.7059308 27.6896606,12.6399308 27.7226606,12.5619308 C27.8076606,12.3539308 27.7186606,12.1349308 27.5366606,12.0129308 C27.4846606,11.9759308 27.4186606,11.9529308 27.3586606,11.9239308 C27.3066606,11.8979308 27.2546606,11.8719308 27.1996606,11.8459308 C27.0876606,11.7939308 26.9766606,11.7419308 26.8616606,11.6939308 C26.6396606,11.5969308 26.4126606,11.5079308 26.1866606,11.4149308 C24.6136606,10.7919308 22.9706606,10.3949308 21.3756606,9.84593083 C21.3906606,9.84993083 21.4096606,9.85793083 21.4246606,9.86093083 C20.7996606,9.64493083 20.1856606,9.40893083 19.5936606,9.11993083 C18.9956606,8.81693083 18.4176606,8.46693083 17.8616606,8.09393083 C17.8646606,8.09593083 17.8676606,8.09793083 17.8706606,8.09893083 C17.3516606,7.75093083 16.8436606,7.38393083 16.3426606,7.00493083 C15.8236606,6.61593083 15.3336606,6.19993083 14.8436606,5.77393083 C14.8536606,5.78093083 14.8616606,5.78693083 14.8696606,5.79293083 C14.0016606,5.02493083 13.1786606,4.20793083 12.3926606,3.35893083 C12.0696606,3.00993083 11.7506606,2.66193083 11.4166606,2.32393083 C11.0866606,1.98993083 10.7346606,1.67093083 10.3816606,1.35993083 C10.0586606,1.06993083 9.72566056,0.795930835 9.36966056,0.550930835 C9.04666056,0.331930835 8.69066056,0.127930835 8.30866056,0.0429308345 C8.09666056,-0.0050691655 7.89266056,-0.0200691655 7.68166056,0.0359308345 C7.54066056,0.0729308345 7.37766056,0.157930835 7.26566056,0.250930835 C7.19966056,0.309930835 7.12866056,0.368930835 7.06966056,0.435930835 C6.99166056,0.528930835 6.93566056,0.624930835 6.88766056,0.736930835 C6.81766056,0.899930835 6.79866056,1.08893083 6.79166056,1.26693083 C6.77666056,1.67493083 6.80666056,2.08293083 6.84666056,2.48693083 C6.88766056,2.90293083 6.94766056,3.31493083 7.02166056,3.72593083 L7.02166056,3.72593083 Z" id="Fill-234"></path>
                <path d="M9.28066056,15.9949308 C8.43466056,16.3209308 7.60066056,16.6629308 6.74366056,16.9629308 C6.74766056,16.9609308 6.75266056,16.9599308 6.75666056,16.9579308 C6.04966056,17.2009308 5.33566056,17.4329308 4.60066056,17.5899308 C4.30466056,17.6419308 4.00866056,17.6869308 3.70966056,17.7089308 C3.41166056,17.7219308 3.11366056,17.7129308 2.81566056,17.6959308 C2.59966056,17.6779308 2.38466056,17.6519308 2.17266056,17.6149308 C2.00966056,17.5809308 1.84866056,17.5369308 1.69166056,17.4829308 C1.60166056,17.4489308 1.51666056,17.4149308 1.43166056,17.3739308 C1.37466056,17.3429308 1.31966056,17.3109308 1.26466056,17.2779308 C1.20666056,17.2329308 1.14866056,17.1869308 1.09166056,17.1399308 C1.03966056,17.0899308 0.987660558,17.0409308 0.941660558,16.9879308 C0.920660558,16.9619308 0.900660558,16.9359308 0.881660558,16.9099308 C0.865660558,16.8849308 0.851660558,16.8599308 0.837660558,16.8349308 C0.833660558,16.8209308 0.826660558,16.8059308 0.820660558,16.7899308 C0.818660558,16.7819308 0.815660558,16.7749308 0.813660558,16.7679308 C0.813660558,16.7619308 0.812660558,16.7559308 0.812660558,16.7499308 C0.812660558,16.7339308 0.812660558,16.7169308 0.812660558,16.7009308 C0.815660558,16.6739308 0.819660558,16.6479308 0.823660558,16.6209308 C0.829660558,16.6019308 0.836660558,16.5819308 0.842660558,16.5629308 C0.845660558,16.5559308 0.848660558,16.5479308 0.851660558,16.5399308 C0.862660558,16.5219308 0.874660558,16.5019308 0.884660558,16.4839308 C0.906660558,16.4539308 0.929660558,16.4269308 0.953660558,16.3989308 C0.973660558,16.3779308 0.994660558,16.3559308 1.01466056,16.3349308 C1.09366056,16.2689308 1.17466056,16.2059308 1.25566056,16.1449308 C1.37866056,16.0649308 1.50166056,15.9909308 1.62866056,15.9199308 C1.90966056,15.7829308 2.19766056,15.6679308 2.48866056,15.5609308 C2.47466056,15.5649308 2.45966056,15.5719308 2.44066056,15.5759308 C2.94166056,15.4049308 3.44666056,15.2459308 3.95466056,15.1009308 C4.41666056,14.9679308 4.88566056,14.8639308 5.35566056,14.7629308 C5.59566056,14.7149308 5.83966056,14.6629308 6.08366056,14.6189308 C6.29866056,14.5739308 6.51766056,14.5299308 6.73666056,14.4929308 C6.97366056,14.4589308 7.20766056,14.4219308 7.44466056,14.3999308 C7.65166056,14.3789308 7.85566056,14.3609308 8.06166056,14.3459308 C8.61866056,14.3099308 9.17666056,14.2919308 9.73366056,14.2849308 C10.3406606,14.2739308 10.9476606,14.2779308 11.5546606,14.3129308 C12.1186606,14.3559308 12.6856606,14.4099308 13.2426606,14.5059308 C12.5646606,14.7739308 11.8716606,15.0119308 11.1906606,15.2679308 C10.5526606,15.5049308 9.91466056,15.7499308 9.28066056,15.9949308 Z M12.9006606,15.5649308 C13.0526606,15.5089308 13.2046606,15.4499308 13.3566606,15.3899308 C13.5356606,15.3239308 13.7136606,15.2569308 13.8876606,15.1749308 C14.0746606,15.0859308 14.1836606,14.8869308 14.1386606,14.6869308 C14.1936606,14.6859308 14.2486606,14.6709308 14.2996606,14.6409308 C14.4596606,14.5479308 14.5146606,14.3529308 14.4456606,14.1919308 C14.4456606,14.1929308 14.4466606,14.1949308 14.4476606,14.1959308 C14.4466606,14.1929308 14.4446606,14.1899308 14.4436606,14.1869308 C14.4326606,14.1629308 14.4196606,14.1399308 14.4026606,14.1179308 C14.4056606,14.1229308 14.4086606,14.1269308 14.4106606,14.1319308 C14.3556606,14.0539308 14.2766606,14.0009308 14.1876606,13.9619308 C14.0396606,13.8949308 13.8836606,13.8439308 13.7246606,13.8069308 C13.2236606,13.6769308 12.7156606,13.6029308 12.1996606,13.5429308 C11.2726606,13.4389308 10.3336606,13.4389308 9.39966056,13.4619308 C8.49466056,13.4839308 7.58166056,13.5429308 6.68466056,13.6839308 C6.19066056,13.7619308 5.70166056,13.8729308 5.21566056,13.9769308 C4.73666056,14.0769308 4.26566056,14.1919308 3.79466056,14.3179308 C3.34266056,14.4369308 2.89366056,14.5819308 2.44866056,14.7299308 C2.02166056,14.8709308 1.59566056,15.0309308 1.19866056,15.2459308 C0.790660558,15.4719308 0.385660558,15.7459308 0.144660558,16.1579308 C-0.00733944153,16.4179308 -0.0333394415,16.7439308 0.0376605585,17.0299308 C0.0896605585,17.2449308 0.237660558,17.4419308 0.382660558,17.6009308 C0.638660558,17.8869308 0.975660558,18.1019308 1.33566056,18.2389308 C1.73666056,18.3909308 2.15166056,18.4879308 2.58166056,18.5169308 C2.83666056,18.5369308 3.09166056,18.5489308 3.34566056,18.5489308 C3.47366056,18.5489308 3.60066056,18.5459308 3.72766056,18.5389308 C4.11366056,18.5249308 4.49966056,18.4649308 4.87766056,18.3869308 C5.28966056,18.3059308 5.69766056,18.1909308 6.09866056,18.0649308 C6.46566056,17.9499308 6.83266056,17.8269308 7.19666056,17.7009308 C8.05666056,17.3969308 8.90266056,17.0629308 9.75166056,16.7399308 C10.3746606,16.5029308 11.0016606,16.2689308 11.6246606,16.0359308 C12.0476606,15.8759308 12.4746606,15.7239308 12.9006606,15.5649308 L12.9006606,15.5649308 Z" id="Fill-235"></path>
                <path d="M9.35766056,14.7179308 C8.84166056,14.8029308 8.32666056,14.9109308 7.81066056,15.0109308 C7.15766056,15.1409308 6.50866056,15.2819308 5.85566056,15.4149308 C5.85866056,15.4149308 5.86266056,15.4139308 5.86566056,15.4129308 C5.43866056,15.5029308 5.01066056,15.5879308 4.57966056,15.6529308 C4.21366056,15.7099308 3.84066056,15.7629308 3.46666056,15.7899308 C3.46566056,15.7909308 3.46566056,15.7909308 3.46466056,15.7909308 C3.46366056,15.7909308 3.46266056,15.7909308 3.46266056,15.7909308 C3.46366056,15.7909308 3.46566056,15.7909308 3.46666056,15.7899308 C3.46366056,15.7899308 3.46066056,15.7909308 3.45766056,15.7909308 C3.34466056,15.7859308 3.23066056,15.8339308 3.15966056,15.9269308 C3.05566056,16.0639308 3.06666056,16.2649308 3.18866056,16.3869308 C3.20166056,16.3999308 3.21466056,16.4099308 3.22866056,16.4209308 L3.22966056,16.4209308 C3.22866056,16.4199308 3.22866056,16.4189308 3.22766056,16.4179308 C3.23466056,16.4239308 3.24066056,16.4289308 3.24766056,16.4339308 C3.24466056,16.4319308 3.24166056,16.4299308 3.23966056,16.4289308 C3.24466056,16.4329308 3.25166056,16.4359308 3.25766056,16.4399308 C3.29066056,16.4609308 3.32666056,16.4779308 3.36666056,16.4909308 C3.43566056,16.5129308 3.51066056,16.5189308 3.58366056,16.5189308 C3.60866056,16.5189308 3.63466056,16.5179308 3.65966056,16.5169308 C3.76766056,16.5169308 3.87166056,16.5099308 3.97866056,16.5019308 C4.19766056,16.4869308 4.41666056,16.4609308 4.63566056,16.4349308 C5.09966056,16.3759308 5.55566056,16.2909308 6.01166056,16.1979308 C6.82366056,16.0309308 7.63666056,15.8459308 8.44866056,15.6789308 C8.42966056,15.6819308 8.41566056,15.6859308 8.39666056,15.6899308 C8.75266056,15.6189308 9.10866056,15.5529308 9.46466056,15.4929308 C9.67666056,15.4559308 9.82866056,15.2669308 9.79866056,15.0519308 C9.77266056,14.8439308 9.56866056,14.6809308 9.35766056,14.7179308" id="Fill-236"></path>
                <path d="M55.6546606,16.8709308 C55.6456606,16.8799308 55.6326606,16.8879308 55.6216606,16.8969308 C56.3486606,16.2609308 57.0726606,15.6139308 57.8706606,15.0669308 C58.2646606,14.8009308 58.6796606,14.5669308 59.1056606,14.3519308 C59.0956606,14.3569308 59.0846606,14.3629308 59.0746606,14.3709308 C59.6156606,14.0969308 60.1726606,13.8619308 60.7446606,13.6579308 L60.7436606,13.6579308 C61.2286606,13.4899308 61.7126606,13.3389308 62.2096606,13.2319308 C62.6886606,13.1409308 63.1766606,13.0829308 63.6656606,13.0489308 C63.9506606,13.0349308 64.2356606,13.0219308 64.5176606,13.0329308 C64.5136606,13.0329308 64.5096606,13.0319308 64.5056606,13.0319308 C64.5126606,13.0319308 64.5206606,13.0329308 64.5286606,13.0339308 C64.5396606,13.0339308 64.5496606,13.0349308 64.5606606,13.0349308 C64.5536606,13.0349308 64.5466606,13.0349308 64.5386606,13.0349308 C64.6316606,13.0439308 64.7226606,13.0549308 64.8146606,13.0719308 C64.8526606,13.0809308 64.8916606,13.0899308 64.9296606,13.0999308 C64.8716606,13.1799308 64.8086606,13.2569308 64.7436606,13.3349308 C64.7496606,13.3289308 64.7556606,13.3229308 64.7606606,13.3169308 C64.7546606,13.3239308 64.7476606,13.3309308 64.7416606,13.3379308 C64.7366606,13.3429308 64.7326606,13.3489308 64.7276606,13.3539308 C64.7316606,13.3489308 64.7356606,13.3439308 64.7396606,13.3389308 C64.6086606,13.4789308 64.4706606,13.6129308 64.3286606,13.7419308 C64.3286606,13.7409308 64.3296606,13.7409308 64.3306606,13.7399308 C64.3286606,13.7419308 64.3266606,13.7439308 64.3246606,13.7459308 C64.3136606,13.7549308 64.3036606,13.7639308 64.2936606,13.7729308 C64.2976606,13.7699308 64.3016606,13.7659308 64.3056606,13.7619308 C64.0156606,14.0149308 63.7076606,14.2399308 63.3916606,14.4569308 C62.8196606,14.8429308 62.2226606,15.1949308 61.6106606,15.5169308 C61.0466606,15.7929308 60.4646606,16.0199308 59.8756606,16.2289308 C59.8836606,16.2249308 59.8926606,16.2209308 59.9016606,16.2179308 C59.3746606,16.3909308 58.8396606,16.5399308 58.2936606,16.6569308 C57.7906606,16.7579308 57.2876606,16.8309308 56.7776606,16.8779308 C56.7846606,16.8779308 56.7906606,16.8779308 56.7976606,16.8779308 C56.7836606,16.8789308 56.7686606,16.8799308 56.7546606,16.8799308 C56.7506606,16.8809308 56.7466606,16.8809308 56.7416606,16.8819308 C56.7436606,16.8809308 56.7456606,16.8809308 56.7476606,16.8809308 C56.3756606,16.9039308 55.9996606,16.9069308 55.6246606,16.8969308 C55.6346606,16.8879308 55.6456606,16.8789308 55.6546606,16.8709308 Z M53.9596606,17.0599308 C53.9156606,17.2189308 53.9856606,17.3899308 54.1266606,17.4719308 C54.1426606,17.4809308 54.1596606,17.4889308 54.1766606,17.4959308 C54.2706606,17.5449308 54.3696606,17.5749308 54.4756606,17.6009308 C54.8056606,17.6789308 55.1356606,17.7159308 55.4736606,17.7389308 C55.6696606,17.7499308 55.8666606,17.7559308 56.0636606,17.7559308 C56.7836606,17.7559308 57.5016606,17.6789308 58.2066606,17.5419308 C59.0746606,17.3749308 59.9246606,17.1079308 60.7436606,16.7849308 C61.1856606,16.6149308 61.6236606,16.4329308 62.0386606,16.2139308 C62.4276606,16.0059308 62.8026606,15.7799308 63.1776606,15.5429308 C63.8036606,15.1419308 64.4086606,14.7159308 64.9576606,14.2069308 C65.2616606,13.9289308 65.5696606,13.6139308 65.7556606,13.2389308 C65.8186606,13.1129308 65.8516606,12.9609308 65.8146606,12.8239308 C65.7696606,12.6459308 65.6366606,12.5119308 65.4766606,12.4269308 C65.2696606,12.3159308 65.0246606,12.2669308 64.7946606,12.2299308 C64.5016606,12.1859308 64.1976606,12.1929308 63.9006606,12.2009308 C63.4886606,12.2119308 63.0766606,12.2529308 62.6686606,12.3079308 C61.3266606,12.4899308 60.0356606,12.9799308 58.8296606,13.5839308 C58.8486606,13.5769308 58.8636606,13.5689308 58.8786606,13.5619308 C58.1546606,13.9249308 57.4656606,14.3519308 56.8266606,14.8529308 C56.3076606,15.2569308 55.8256606,15.7099308 55.3206606,16.1319308 C55.1946606,16.2399308 55.0656606,16.3439308 54.9396606,16.4439308 C54.8176606,16.5419308 54.7636606,16.6969308 54.7916606,16.8409308 C54.7046606,16.8319308 54.6176606,16.8219308 54.5316606,16.8109308 C54.4686606,16.8039308 54.4086606,16.7999308 54.3496606,16.7989308 C54.3356606,16.7969308 54.3226606,16.7959308 54.3086606,16.7959308 C54.1496606,16.7959308 54.0006606,16.9079308 53.9596606,17.0599308 L53.9596606,17.0599308 Z" id="Fill-237"></path>
                <path d="M64.4076606,18.6129308 C63.8206606,18.5149308 63.2366606,18.3959308 62.6526606,18.2819308 C62.9526606,18.2609308 63.2516606,18.2389308 63.5496606,18.2069308 C63.9136606,18.1659308 64.2766606,18.0989308 64.6366606,18.0209308 C65.0186606,17.9399308 65.3966606,17.8319308 65.7606606,17.6909308 C65.9246606,17.6299308 66.0816606,17.5539308 66.2386606,17.4789308 C66.7806606,17.2049308 67.2726606,16.8619308 67.7666606,16.5149308 C68.5396606,15.9729308 69.3056606,15.4279308 70.0816606,14.8959308 C70.0776606,14.8989308 70.0736606,14.9019308 70.0706606,14.9049308 C70.4486606,14.6499308 70.8306606,14.3969308 71.2206606,14.1559308 C71.6046606,13.9199308 72.0076606,13.7059308 72.4136606,13.4989308 C73.0086606,13.2089308 73.6206606,12.9559308 74.2406606,12.7319308 C74.6806606,12.5829308 75.1206606,12.4619308 75.5716606,12.3539308 C76.0306606,12.2419308 76.4906606,12.1379308 76.9476606,12.0159308 C77.0906606,11.9779308 77.2366606,11.9359308 77.3796606,11.8889308 C77.1796606,12.3709308 76.9656606,12.8469308 76.7326606,13.3169308 C76.4446606,13.8859308 76.1366606,14.4389308 75.7806606,14.9679308 C75.5826606,15.2459308 75.3756606,15.5149308 75.1536606,15.7799308 C75.1616606,15.7709308 75.1696606,15.7639308 75.1796606,15.7559308 C74.9156606,16.0489308 74.6376606,16.3269308 74.3486606,16.5949308 C74.1076606,16.7999308 73.8626606,16.9939308 73.6046606,17.1819308 C73.4306606,17.2949308 73.2566606,17.4029308 73.0796606,17.5109308 C72.8906606,17.6259308 72.6866606,17.7219308 72.4866606,17.8259308 C72.4926606,17.8209308 72.4996606,17.8169308 72.5076606,17.8129308 C72.3016606,17.9079308 72.0986606,18.0009308 71.8926606,18.0889308 C71.6826606,18.1809308 71.4656606,18.2589308 71.2516606,18.3359308 C71.2556606,18.3339308 71.2586606,18.3319308 71.2626606,18.3299308 C71.0876606,18.3899308 70.9096606,18.4489308 70.7286606,18.4979308 C70.5526606,18.5489308 70.3726606,18.5929308 70.1936606,18.6329308 C69.8756606,18.6959308 69.5576606,18.7479308 69.2366606,18.7869308 C68.9586606,18.8229308 68.6796606,18.8409308 68.4006606,18.8619308 C68.0906606,18.8769308 67.7806606,18.8939308 67.4716606,18.8909308 C67.1476606,18.8909308 66.8206606,18.8769308 66.4966606,18.8589308 C65.7966606,18.8029308 65.1006606,18.7259308 64.4076606,18.6129308 Z M59.1516606,18.0259308 C58.9776606,18.1599308 58.9776606,18.4379308 59.1516606,18.5719308 C59.2366606,18.6309308 59.3296606,18.6459308 59.4296606,18.6499308 C59.6586606,18.6639308 59.8846606,18.6679308 60.1136606,18.6819308 C60.8166606,18.7379308 61.5156606,18.8699308 62.2076606,19.0089308 C62.2046606,19.0089308 62.2016606,19.0079308 62.1986606,19.0069308 C63.1266606,19.2009308 64.0546606,19.4049308 64.9936606,19.5359308 C65.8216606,19.6519308 66.6536606,19.7329308 67.4876606,19.7329308 C67.5876606,19.7329308 67.6866606,19.7309308 67.7866606,19.7289308 C68.2686606,19.7179308 68.7506606,19.6839308 69.2336606,19.6359308 C69.7446606,19.5839308 70.2456606,19.4799308 70.7426606,19.3579308 C71.2396606,19.2389308 71.7186606,19.0539308 72.1936606,18.8649308 C72.6346606,18.6869308 73.0576606,18.4599308 73.4726606,18.2299308 C74.0736606,17.8929308 74.6116606,17.4589308 75.1126606,16.9919308 C75.3756606,16.7499308 75.6166606,16.4829308 75.8426606,16.2049308 C76.0696606,15.9309308 76.2846606,15.6449308 76.4776606,15.3449308 C76.8706606,14.7399308 77.2046606,14.0979308 77.5086606,13.4459308 C77.7976606,12.8339308 78.0726606,12.2139308 78.2946606,11.5799308 C78.3616606,11.3909308 78.2906606,11.1829308 78.1016606,11.1009308 C78.0916606,11.0969308 78.0796606,11.0979308 78.0696606,11.0949308 C77.9836606,11.0029308 77.8636606,10.9569308 77.7376606,10.9849308 C77.6336606,11.0069308 77.5336606,11.0629308 77.4336606,11.0999308 C77.4476606,11.0929308 77.4626606,11.0889308 77.4776606,11.0809308 C76.7396606,11.3339308 75.9716606,11.4709308 75.2186606,11.6559308 C74.3766606,11.8599308 73.5686606,12.1459308 72.7706606,12.4759308 C71.2056606,13.1289308 69.8036606,14.0929308 68.4276606,15.0689308 C67.8976606,15.4439308 67.3726606,15.8259308 66.8356606,16.1899308 C66.8376606,16.1889308 66.8396606,16.1869308 66.8416606,16.1859308 C66.8366606,16.1899308 66.8316606,16.1929308 66.8256606,16.1969308 C66.8246606,16.1969308 66.8246606,16.1979308 66.8236606,16.1979308 C66.5216606,16.3989308 66.2166606,16.5899308 65.8936606,16.7529308 C65.9086606,16.7449308 65.9276606,16.7379308 65.9426606,16.7299308 C65.9226606,16.7399308 65.9006606,16.7499308 65.8796606,16.7599308 C65.6886606,16.8529308 65.4926606,16.9379308 65.2926606,17.0099308 C64.9826606,17.1169308 64.6686606,17.2019308 64.3526606,17.2669308 C63.7536606,17.3869308 63.1446606,17.4429308 62.5346606,17.4829308 C62.2576606,17.5019308 61.9836606,17.5169308 61.7066606,17.5359308 C61.6996606,17.5359308 61.6926606,17.5369308 61.6856606,17.5369308 C61.6766606,17.5379308 61.6676606,17.5379308 61.6576606,17.5389308 L61.6586606,17.5389308 C61.1766606,17.5709308 60.6936606,17.6039308 60.2156606,17.6579308 C60.1226606,17.6689308 60.0446606,17.7179308 59.9846606,17.7829308 C59.8816606,17.7859308 59.7796606,17.7909308 59.6736606,17.7909308 C59.5476606,17.7909308 59.4376606,17.8569308 59.3646606,17.9529308 C59.2896606,17.9619308 59.2156606,17.9779308 59.1516606,18.0259308 L59.1516606,18.0259308 Z" id="Fill-238"></path>
                <path d="M66.2316606,17.4829308 C66.2336606,17.4819308 66.2366606,17.4799308 66.2386606,17.4789308 C66.2526606,17.4729308 66.2666606,17.4679308 66.2796606,17.4609308 C66.2616606,17.4689308 66.2466606,17.4759308 66.2316606,17.4829308" id="Fill-239"></path>
                <path d="M77.2856606,17.1289308 C77.4696606,17.0179308 77.6586606,16.9149308 77.8496606,16.8159308 C78.2346606,16.6239308 78.6266606,16.4529308 79.0286606,16.2989308 C79.2986606,16.2069308 79.5726606,16.1219308 79.8506606,16.0479308 C80.1206606,15.9769308 80.3956606,15.9139308 80.6696606,15.8539308 C80.9946606,15.7909308 81.3206606,15.7359308 81.6496606,15.6919308 C81.9276606,15.6529308 82.2096606,15.6309308 82.4916606,15.6099308 C82.8936606,15.5879308 83.2916606,15.5729308 83.6926606,15.5659308 C84.0716606,15.5579308 84.4526606,15.5759308 84.8316606,15.5979308 C85.2296606,15.6299308 85.6316606,15.6669308 86.0256606,15.7249308 C86.4866606,15.7909308 86.9466606,15.8719308 87.4036606,15.9639308 C87.7486606,16.0389308 88.0946606,16.1189308 88.4366606,16.2179308 C88.8186606,16.3259308 89.1936606,16.4449308 89.5646606,16.5739308 C89.5616606,16.5729308 89.5586606,16.5719308 89.5556606,16.5699308 C90.3276606,16.8549308 91.0756606,17.1819308 91.8126606,17.5409308 C92.1346606,17.7029308 92.4466606,17.8719308 92.7546606,18.0539308 C93.0676606,18.2419308 93.3706606,18.4449308 93.6726606,18.6449308 C94.0966606,18.9349308 94.5166606,19.2349308 94.9066606,19.5729308 C94.9046606,19.5709308 94.9016606,19.5689308 94.8986606,19.5679308 C94.9736606,19.6369308 95.0456606,19.7059308 95.1126606,19.7789308 C95.1116606,19.7779308 95.1106606,19.7769308 95.1096606,19.7759308 C95.1116606,19.7769308 95.1126606,19.7789308 95.1146606,19.7819308 C95.1226606,19.7909308 95.1316606,19.7999308 95.1396606,19.8089308 C95.1336606,19.8029308 95.1276606,19.7969308 95.1216606,19.7909308 C95.1586606,19.8369308 95.1956606,19.8819308 95.2316606,19.9279308 C95.2266606,19.9199308 95.2216606,19.9119308 95.2176606,19.9049308 C95.2226606,19.9139308 95.2286606,19.9219308 95.2346606,19.9309308 C95.2376606,19.9349308 95.2406606,19.9389308 95.2436606,19.9419308 C95.2406606,19.9399308 95.2386606,19.9379308 95.2366606,19.9349308 C95.2496606,19.9539308 95.2636606,19.9729308 95.2746606,19.9919308 L95.2756606,19.9919308 C95.2686606,19.9819308 95.2616606,19.9709308 95.2506606,19.9569308 C95.2606606,19.9739308 95.2706606,19.9869308 95.2806606,20.0029308 C95.2846606,20.0119308 95.2886606,20.0209308 95.2916606,20.0289308 C95.2936606,20.0359308 95.2946606,20.0429308 95.2956606,20.0499308 C95.2956606,20.0519308 95.2956606,20.0529308 95.2956606,20.0539308 C95.2946606,20.0559308 95.2936606,20.0589308 95.2936606,20.0619308 C95.2906606,20.0669308 95.2886606,20.0719308 95.2866606,20.0769308 C95.2836606,20.0829308 95.2806606,20.0889308 95.2776606,20.0939308 C95.2776606,20.0949308 95.2766606,20.0959308 95.2756606,20.0959308 C95.2676606,20.1069308 95.2596606,20.1169308 95.2506606,20.1269308 C95.2446606,20.1319308 95.2386606,20.1379308 95.2326606,20.1449308 C95.2206606,20.1549308 95.2076606,20.1659308 95.1946606,20.1759308 C95.1726606,20.1879308 95.1516606,20.1999308 95.1306606,20.2119308 C95.0606606,20.2449308 94.9876606,20.2719308 94.9146606,20.2979308 C94.7576606,20.3469308 94.5956606,20.3879308 94.4316606,20.4219308 C94.2186606,20.4609308 94.0046606,20.4889308 93.7876606,20.5069308 C93.5006606,20.5279308 93.2126606,20.5279308 92.9226606,20.5119308 C92.5166606,20.4739308 92.1146606,20.4089308 91.7126606,20.3289308 C91.2486606,20.2319308 90.7886606,20.1239308 90.3326606,20.0019308 C89.8726606,19.8759308 89.4196606,19.7349308 88.9676606,19.5939308 C88.1066606,19.3269308 87.2386606,19.0779308 86.3746606,18.8219308 C84.7946606,18.3589308 83.1996606,17.9499308 81.5856606,17.6199308 C80.4766606,17.3939308 79.3536606,17.2459308 78.2256606,17.1719308 C77.9406606,17.1519308 77.6546606,17.1379308 77.3686606,17.1309308 C77.3406606,17.1299308 77.3136606,17.1289308 77.2856606,17.1289308 Z M75.7556606,17.4759308 C75.6996606,17.6239308 75.7366606,17.7869308 75.8626606,17.8839308 C75.9596606,17.9599308 76.0776606,17.9709308 76.1836606,17.9339308 C76.2636606,17.9899308 76.3626606,18.0179308 76.4636606,17.9989308 C76.5636606,17.9789308 76.6636606,17.9659308 76.7656606,17.9579308 C76.7626606,17.9579308 76.7596606,17.9579308 76.7566606,17.9579308 C76.7666606,17.9569308 76.7756606,17.9569308 76.7856606,17.9559308 C76.7946606,17.9559308 76.8036606,17.9549308 76.8126606,17.9539308 C76.8106606,17.9549308 76.8086606,17.9549308 76.8066606,17.9549308 C77.2936606,17.9269308 77.7876606,17.9539308 78.2716606,17.9859308 C78.2696606,17.9859308 78.2676606,17.9859308 78.2656606,17.9859308 C78.2736606,17.9859308 78.2816606,17.9869308 78.2896606,17.9869308 C78.2916606,17.9869308 78.2936606,17.9879308 78.2956606,17.9879308 L78.2946606,17.9879308 C79.4236606,18.0669308 80.5416606,18.2249308 81.6526606,18.4479308 C81.6496606,18.4469308 81.6456606,18.4459308 81.6416606,18.4449308 C82.4476606,18.6099308 83.2426606,18.8029308 84.0376606,18.9999308 C84.8386606,19.1969308 85.6286606,19.4159308 86.4196606,19.6459308 C87.2756606,19.8899308 88.1256606,20.1499308 88.9786606,20.4059308 C89.9166606,20.6839308 90.8626606,20.9589308 91.8276606,21.1329308 C92.3396606,21.2269308 92.8576606,21.2859308 93.3756606,21.2859308 C93.7346606,21.2859308 94.0936606,21.2579308 94.4496606,21.1919308 C94.6686606,21.1519308 94.8836606,21.1029308 95.0916606,21.0329308 C95.2766606,20.9729308 95.4736606,20.8989308 95.6286606,20.7809308 C95.7926606,20.6579308 95.9226606,20.5059308 95.9886606,20.3099308 C96.0626606,20.1059308 96.0376606,19.8829308 95.9406606,19.6899308 C95.7776606,19.3709308 95.4996606,19.1259308 95.2286606,18.8959308 C94.9056606,18.6259308 94.5606606,18.3769308 94.2156606,18.1319308 C93.4706606,17.6059308 92.6916606,17.1349308 91.8716606,16.7339308 C91.4596606,16.5339308 91.0486606,16.3409308 90.6256606,16.1699308 C90.1506606,15.9739308 89.6686606,15.7989308 89.1826606,15.6359308 C88.7556606,15.4949308 88.3186606,15.3759308 87.8806606,15.2759308 C87.3946606,15.1689308 86.9086606,15.0649308 86.4156606,14.9909308 C85.5066606,14.8569308 84.5906606,14.7639308 83.6706606,14.7789308 C82.6836606,14.7939308 81.7006606,14.8569308 80.7326606,15.0419308 C79.6866606,15.2429308 78.6446606,15.5429308 77.6956606,16.0329308 C77.2316606,16.2699308 76.7826606,16.5299308 76.3676606,16.8489308 C76.2156606,16.9639308 76.0626606,17.0899308 75.9296606,17.2309308 C75.8626606,17.3009308 75.7926606,17.3829308 75.7556606,17.4759308 L75.7556606,17.4759308 Z" id="Fill-240"></path>
                <path d="M92.9176606,6.45593083 C92.9196606,6.45493083 92.9206606,6.45393083 92.9216606,6.45293083 C92.9206606,6.45393083 92.9196606,6.45493083 92.9176606,6.45593083" id="Fill-241"></path>
                <path d="M99.8586606,1.25493083 C99.8716606,1.51193083 99.8616606,1.76893083 99.8436606,2.02593083 C99.8436606,2.02393083 99.8446606,2.02293083 99.8446606,2.02093083 C99.8436606,2.02493083 99.8436606,2.02893083 99.8436606,2.03293083 C99.8436606,2.03493083 99.8436606,2.03593083 99.8426606,2.03793083 C99.7946606,2.65593083 99.6986606,3.27193083 99.5826606,3.88293083 C99.5826606,3.87893083 99.5836606,3.87493083 99.5836606,3.87093083 C99.4186606,4.66193083 99.2316606,5.44893083 98.9796606,6.21493083 C98.8326606,6.62393083 98.6616606,7.01793083 98.4766606,7.40793083 C98.2586606,7.83693083 98.0236606,8.25493083 97.7646606,8.66293083 C97.5986606,8.89993083 97.4256606,9.13093083 97.2436606,9.35793083 C96.9966606,9.62793083 96.7426606,9.88493083 96.4706606,10.1289308 C96.2566606,10.3009308 96.0356606,10.4589308 95.8146606,10.6169308 C95.3686606,10.9109308 94.9126606,11.1799308 94.4456606,11.4269308 C94.1666606,11.5649308 93.8866606,11.6909308 93.5986606,11.8039308 C93.3386606,11.8919308 93.0776606,11.9759308 92.8106606,12.0419308 C92.5816606,12.1019308 92.3506606,12.1519308 92.1186606,12.2009308 C91.2476606,12.3519308 90.3686606,12.4329308 89.4906606,12.4949308 C89.4916606,12.4949308 89.4926606,12.4949308 89.4946606,12.4949308 C89.4906606,12.4949308 89.4876606,12.4949308 89.4836606,12.4949308 C89.4686606,12.4959308 89.4536606,12.4979308 89.4386606,12.4989308 C89.4416606,12.4979308 89.4456606,12.4969308 89.4486606,12.4969308 C88.9966606,12.5179308 88.5446606,12.5349308 88.0916606,12.5239308 C87.6136606,12.5129308 87.1346606,12.4949308 86.6566606,12.4799308 C85.7446606,12.4499308 84.8356606,12.4089308 83.9226606,12.3579308 C83.4556606,12.3349308 82.9916606,12.3059308 82.5246606,12.2799308 C82.1616606,12.2569308 81.7996606,12.2409308 81.4336606,12.2389308 C81.4836606,12.2189308 81.5326606,12.1989308 81.5826606,12.1799308 C81.8846606,12.0569308 82.1906606,11.9399308 82.4996606,11.8309308 L82.4986606,11.8309308 C82.5006606,11.8299308 82.5016606,11.8299308 82.5036606,11.8289308 C82.5196606,11.8239308 82.5346606,11.8179308 82.5506606,11.8119308 C82.5466606,11.8139308 82.5426606,11.8159308 82.5386606,11.8169308 C83.3226606,11.5479308 84.1176606,11.3029308 84.9056606,11.0409308 C85.4656606,10.8589308 86.0226606,10.6769308 86.5716606,10.4769308 C87.3206606,10.2029308 88.0436606,9.87993083 88.7376606,9.48293083 C89.4386606,9.08193083 90.1136606,8.63693083 90.7696606,8.16993083 C91.1256606,7.91393083 91.4786606,7.65393083 91.8236606,7.37993083 C92.1926606,7.08993083 92.5446606,6.78293083 92.8956606,6.47493083 C92.8936606,6.47693083 92.8906606,6.47893083 92.8876606,6.48193083 C92.8946606,6.47693083 92.9006606,6.47093083 92.9066606,6.46593083 C92.9036606,6.46793083 92.9006606,6.47093083 92.8966606,6.47393083 C92.9056606,6.46693083 92.9136606,6.45993083 92.9216606,6.45293083 C93.6846606,5.77893083 94.4266606,5.07993083 95.1246606,4.33793083 C95.5066606,3.92993083 95.8776606,3.51093083 96.2666606,3.11093083 C96.6756606,2.68793083 97.1056606,2.29093083 97.5466606,1.90093083 C97.5436606,1.90493083 97.5406606,1.90793083 97.5366606,1.91093083 C97.8356606,1.65093083 98.1356606,1.39693083 98.4576606,1.17093083 C98.5726606,1.09593083 98.6856606,1.02293083 98.8036606,0.955930835 C98.9026606,0.906930835 99.0026606,0.860930835 99.1086606,0.821930835 C99.1036606,0.822930835 99.0996606,0.823930835 99.0956606,0.824930835 C99.1756606,0.798930835 99.2566606,0.776930835 99.3376606,0.757930835 C99.3266606,0.760930835 99.3146606,0.762930835 99.3016606,0.762930835 C99.3156606,0.759930835 99.3296606,0.757930835 99.3436606,0.756930835 C99.3456606,0.755930835 99.3476606,0.755930835 99.3496606,0.754930835 C99.3476606,0.755930835 99.3456606,0.755930835 99.3436606,0.756930835 C99.3596606,0.754930835 99.3756606,0.752930835 99.3916606,0.751930835 C99.4136606,0.751930835 99.4336606,0.751930835 99.4546606,0.751930835 C99.4636606,0.753930835 99.4736606,0.755930835 99.4836606,0.757930835 C99.4906606,0.759930835 99.4976606,0.762930835 99.5036606,0.765930835 C99.5266606,0.775930835 99.5486606,0.785930835 99.5716606,0.796930835 C99.5976606,0.811930835 99.6226606,0.826930835 99.6496606,0.841930835 C99.6576606,0.847930835 99.6676606,0.853930835 99.6756606,0.860930835 C99.6796606,0.864930835 99.6836606,0.867930835 99.6876606,0.871930835 C99.6926606,0.875930835 99.6976606,0.880930835 99.7016606,0.884930835 C99.6996606,0.882930835 99.6976606,0.880930835 99.6946606,0.877930835 C99.7216606,0.901930835 99.7466606,0.926930835 99.7706606,0.951930835 C99.7766606,0.960930835 99.7836606,0.970930835 99.7906606,0.979930835 C99.7956606,0.987930835 99.7996606,0.996930835 99.8046606,1.00593083 C99.8106606,1.01993083 99.8176606,1.03393083 99.8226606,1.04893083 C99.8266606,1.06193083 99.8296606,1.07493083 99.8336606,1.08793083 C99.8436606,1.14393083 99.8526606,1.19893083 99.8586606,1.25493083 Z M100.539661,2.48693083 C100.580661,2.08293083 100.610661,1.67493083 100.595661,1.26693083 C100.588661,1.08893083 100.569661,0.899930835 100.499661,0.736930835 C100.450661,0.624930835 100.395661,0.528930835 100.317661,0.435930835 C100.258661,0.368930835 100.187661,0.309930835 100.120661,0.250930835 C100.009661,0.157930835 99.8466606,0.0729308345 99.7056606,0.0359308345 C99.4936606,-0.0200691655 99.2906606,-0.0050691655 99.0786606,0.0429308345 C98.6966606,0.127930835 98.3406606,0.331930835 98.0176606,0.550930835 C97.6616606,0.795930835 97.3276606,1.06993083 97.0056606,1.35993083 C96.6526606,1.67093083 96.3006606,1.98993083 95.9706606,2.32393083 C95.6366606,2.66193083 95.3176606,3.00993083 94.9946606,3.35893083 C94.2086606,4.20793083 93.3846606,5.02493083 92.5176606,5.79293083 C92.5256606,5.78693083 92.5336606,5.78093083 92.5426606,5.77393083 C92.0536606,6.19993083 91.5636606,6.61593083 91.0446606,7.00493083 C90.5436606,7.38393083 90.0356606,7.75093083 89.5166606,8.09893083 C89.5196606,8.09793083 89.5226606,8.09593083 89.5256606,8.09393083 C88.9696606,8.46693083 88.3916606,8.81693083 87.7936606,9.11993083 C87.2016606,9.40893083 86.5876606,9.64493083 85.9626606,9.86093083 C85.9776606,9.85793083 85.9966606,9.84993083 86.0116606,9.84593083 C84.4166606,10.3949308 82.7736606,10.7919308 81.2006606,11.4149308 C80.9736606,11.5079308 80.7476606,11.5969308 80.5256606,11.6939308 C80.4106606,11.7419308 80.2986606,11.7939308 80.1876606,11.8459308 C80.1326606,11.8719308 80.0806606,11.8979308 80.0286606,11.9239308 C79.9686606,11.9529308 79.9026606,11.9759308 79.8506606,12.0129308 C79.6686606,12.1349308 79.5796606,12.3539308 79.6646606,12.5619308 C79.6976606,12.6399308 79.7556606,12.7059308 79.8256606,12.7529308 C79.8246606,12.7889308 79.8286606,12.8259308 79.8386606,12.8619308 C79.8726606,12.9779308 79.9706606,13.0849308 80.0926606,13.1139308 C80.0906606,13.1139308 80.0896606,13.1139308 80.0876606,13.1139308 C80.0936606,13.1149308 80.0986606,13.1159308 80.1046606,13.1169308 C80.1146606,13.1189308 80.1256606,13.1209308 80.1356606,13.1219308 C80.1336606,13.1209308 80.1326606,13.1209308 80.1306606,13.1199308 C80.2046606,13.1269308 80.2686606,13.1109308 80.3436606,13.0959308 C80.3286606,13.0999308 80.3136606,13.1029308 80.2956606,13.1069308 C80.4376606,13.0789308 80.5826606,13.0639308 80.7276606,13.0499308 C81.3446606,13.0129308 81.9656606,13.0499308 82.5866606,13.0889308 C82.5856606,13.0879308 82.5846606,13.0879308 82.5836606,13.0879308 C82.5916606,13.0889308 82.5996606,13.0899308 82.6076606,13.0899308 C82.6186606,13.0909308 82.6286606,13.0909308 82.6396606,13.0919308 C82.6376606,13.0919308 82.6366606,13.0919308 82.6346606,13.0919308 C83.5936606,13.1609308 84.5486606,13.2299308 85.5026606,13.2699308 C86.4676606,13.3109308 87.4316606,13.3519308 88.3956606,13.3549308 C88.4356606,13.3559308 88.4746606,13.3559308 88.5136606,13.3559308 C89.4396606,13.3559308 90.3676606,13.2729308 91.2856606,13.1659308 C92.2166606,13.0549308 93.1516606,12.8429308 94.0226606,12.5059308 C94.4606606,12.3349308 94.8796606,12.1199308 95.2876606,11.8869308 C95.7106606,11.6489308 96.1116606,11.3859308 96.5046606,11.1039308 C97.3016606,10.5329308 97.9736606,9.79393083 98.4966606,8.96693083 C98.9896606,8.18793083 99.4086606,7.33493083 99.7016606,6.45593083 C99.9986606,5.56593083 100.206661,4.64993083 100.365661,3.72593083 C100.439661,3.31493083 100.499661,2.90293083 100.539661,2.48693083 L100.539661,2.48693083 Z" id="Fill-242"></path>
                <path d="M96.1966606,15.2679308 C95.5156606,15.0119308 94.8226606,14.7739308 94.1446606,14.5059308 C94.7016606,14.4099308 95.2686606,14.3559308 95.8326606,14.3129308 C96.4396606,14.2779308 97.0466606,14.2739308 97.6536606,14.2849308 C98.2106606,14.2919308 98.7676606,14.3099308 99.3246606,14.3459308 C99.5316606,14.3609308 99.7356606,14.3789308 99.9426606,14.3999308 C100.179661,14.4219308 100.413661,14.4589308 100.650661,14.4929308 C100.869661,14.5299308 101.088661,14.5739308 101.303661,14.6189308 C101.547661,14.6629308 101.791661,14.7149308 102.031661,14.7629308 C102.500661,14.8639308 102.970661,14.9679308 103.432661,15.1009308 C103.940661,15.2459308 104.445661,15.4049308 104.945661,15.5759308 C104.927661,15.5719308 104.912661,15.5649308 104.897661,15.5609308 C105.189661,15.6679308 105.477661,15.7829308 105.758661,15.9199308 C105.885661,15.9909308 106.008661,16.0649308 106.131661,16.1449308 C106.212661,16.2059308 106.293661,16.2689308 106.372661,16.3349308 C106.392661,16.3559308 106.412661,16.3779308 106.433661,16.3989308 C106.456661,16.4269308 106.480661,16.4539308 106.502661,16.4839308 C106.512661,16.5019308 106.524661,16.5219308 106.535661,16.5399308 C106.538661,16.5479308 106.541661,16.5559308 106.544661,16.5629308 C106.550661,16.5819308 106.557661,16.6019308 106.563661,16.6209308 C106.567661,16.6479308 106.571661,16.6739308 106.574661,16.7009308 C106.574661,16.7169308 106.574661,16.7339308 106.574661,16.7499308 C106.573661,16.7559308 106.573661,16.7619308 106.572661,16.7679308 C106.570661,16.7749308 106.568661,16.7819308 106.566661,16.7899308 C106.559661,16.8059308 106.553661,16.8209308 106.549661,16.8349308 C106.535661,16.8599308 106.520661,16.8849308 106.505661,16.9099308 C106.486661,16.9359308 106.466661,16.9619308 106.445661,16.9879308 C106.399661,17.0409308 106.347661,17.0899308 106.295661,17.1399308 C106.237661,17.1869308 106.180661,17.2329308 106.122661,17.2779308 C106.067661,17.3109308 106.011661,17.3429308 105.955661,17.3739308 C105.870661,17.4149308 105.785661,17.4489308 105.695661,17.4829308 C105.538661,17.5369308 105.377661,17.5809308 105.214661,17.6149308 C105.002661,17.6519308 104.787661,17.6779308 104.571661,17.6959308 C104.273661,17.7129308 103.975661,17.7219308 103.677661,17.7089308 C103.378661,17.6869308 103.082661,17.6419308 102.786661,17.5899308 C102.051661,17.4329308 101.337661,17.2009308 100.630661,16.9579308 C100.634661,16.9599308 100.639661,16.9609308 100.643661,16.9629308 C99.7866606,16.6629308 98.9516606,16.3209308 98.1066606,15.9949308 C97.4716606,15.7499308 96.8346606,15.5049308 96.1966606,15.2679308 Z M95.7626606,16.0359308 C96.3856606,16.2689308 97.0126606,16.5029308 97.6356606,16.7399308 C98.4846606,17.0629308 99.3306606,17.3969308 100.190661,17.7009308 C100.554661,17.8269308 100.921661,17.9499308 101.288661,18.0649308 C101.689661,18.1909308 102.097661,18.3059308 102.508661,18.3869308 C102.887661,18.4649308 103.273661,18.5249308 103.658661,18.5389308 C103.786661,18.5459308 103.913661,18.5489308 104.040661,18.5489308 C104.295661,18.5489308 104.550661,18.5369308 104.805661,18.5169308 C105.235661,18.4879308 105.650661,18.3909308 106.051661,18.2389308 C106.411661,18.1019308 106.748661,17.8869308 107.004661,17.6009308 C107.149661,17.4419308 107.297661,17.2449308 107.349661,17.0299308 C107.420661,16.7439308 107.394661,16.4179308 107.242661,16.1579308 C107.000661,15.7459308 106.596661,15.4719308 106.188661,15.2459308 C105.791661,15.0309308 105.365661,14.8709308 104.938661,14.7299308 C104.493661,14.5819308 104.044661,14.4369308 103.592661,14.3179308 C103.121661,14.1919308 102.650661,14.0769308 102.171661,13.9769308 C101.685661,13.8729308 101.196661,13.7619308 100.702661,13.6839308 C99.8056606,13.5429308 98.8926606,13.4839308 97.9876606,13.4619308 C97.0526606,13.4389308 96.1146606,13.4389308 95.1876606,13.5429308 C94.6716606,13.6029308 94.1636606,13.6769308 93.6626606,13.8069308 C93.5036606,13.8439308 93.3476606,13.8949308 93.1996606,13.9619308 C93.1106606,14.0009308 93.0306606,14.0539308 92.9766606,14.1319308 C92.9786606,14.1269308 92.9816606,14.1229308 92.9836606,14.1179308 C92.9676606,14.1399308 92.9546606,14.1629308 92.9436606,14.1869308 C92.9426606,14.1899308 92.9406606,14.1929308 92.9396606,14.1959308 C92.9406606,14.1949308 92.9406606,14.1929308 92.9416606,14.1919308 C92.8726606,14.3529308 92.9276606,14.5479308 93.0876606,14.6409308 C93.1386606,14.6709308 93.1936606,14.6859308 93.2486606,14.6869308 C93.2036606,14.8869308 93.3116606,15.0859308 93.4996606,15.1749308 C93.6736606,15.2569308 93.8516606,15.3239308 94.0296606,15.3899308 C94.1816606,15.4499308 94.3346606,15.5089308 94.4866606,15.5649308 C94.9126606,15.7239308 95.3396606,15.8759308 95.7626606,16.0359308 L95.7626606,16.0359308 Z" id="Fill-243"></path>
                <path d="M98.0296606,14.7179308 C98.5456606,14.8029308 99.0606606,14.9109308 99.5766606,15.0109308 C100.229661,15.1409308 100.878661,15.2819308 101.531661,15.4149308 C101.527661,15.4149308 101.524661,15.4139308 101.520661,15.4129308 C101.948661,15.5029308 102.376661,15.5879308 102.807661,15.6529308 C103.173661,15.7099308 103.546661,15.7629308 103.919661,15.7899308 C103.920661,15.7909308 103.921661,15.7909308 103.922661,15.7909308 L103.924661,15.7909308 C103.923661,15.7909308 103.921661,15.7909308 103.920661,15.7899308 C103.923661,15.7899308 103.926661,15.7909308 103.929661,15.7909308 C104.042661,15.7859308 104.156661,15.8339308 104.227661,15.9269308 C104.331661,16.0639308 104.320661,16.2649308 104.197661,16.3869308 C104.185661,16.3999308 104.172661,16.4099308 104.158661,16.4209308 L104.157661,16.4209308 C104.157661,16.4199308 104.158661,16.4189308 104.159661,16.4179308 C104.152661,16.4239308 104.145661,16.4289308 104.139661,16.4339308 C104.142661,16.4319308 104.144661,16.4299308 104.147661,16.4289308 C104.141661,16.4329308 104.135661,16.4359308 104.129661,16.4399308 C104.096661,16.4609308 104.060661,16.4779308 104.019661,16.4909308 C103.951661,16.5129308 103.876661,16.5189308 103.803661,16.5189308 C103.777661,16.5189308 103.752661,16.5179308 103.726661,16.5169308 C103.619661,16.5169308 103.515661,16.5099308 103.408661,16.5019308 C103.189661,16.4869308 102.970661,16.4609308 102.751661,16.4349308 C102.287661,16.3759308 101.831661,16.2909308 101.375661,16.1979308 C100.563661,16.0309308 99.7506606,15.8459308 98.9386606,15.6789308 C98.9576606,15.6819308 98.9716606,15.6859308 98.9906606,15.6899308 C98.6346606,15.6189308 98.2786606,15.5529308 97.9226606,15.4929308 C97.7106606,15.4559308 97.5586606,15.2669308 97.5886606,15.0519308 C97.6146606,14.8439308 97.8186606,14.6809308 98.0296606,14.7179308" id="Fill-244"></path>
            </g>
        </g>
    </g>
</svg>