<?xml version="1.0" encoding="UTF-8"?>
<svg width="222px" height="16px" viewBox="0 0 222 16" version="1.1" xmlns="http://www.w3.org/2000/svg" xmlns:xlink="http://www.w3.org/1999/xlink">
    <title>Group</title>
    <g id="Page-1" stroke="none" stroke-width="1" fill="none" fill-rule="evenodd">
        <g id="4909907" transform="translate(-458.000000, -153.000000)" fill="#3D2F17">
            <g id="Group" transform="translate(458.906540, 153.903532)">
                <path d="M8.85745973,6.48546843 L8.41245973,6.50746843 L8.21245973,6.30346843 L7.96345973,6.05146843 C7.71145973,5.79546843 7.45945973,5.53946843 7.19945973,5.28746843 L6.62445973,4.72746843 C6.49845973,4.60846843 6.38045973,4.48946843 6.25745973,4.36746843 L6.03845973,4.14846843 L5.76445973,3.88146843 L5.66745973,3.79946843 L5.48245973,3.61846843 L5.41945973,3.58446843 L6.38045973,3.57746843 L6.86245973,3.57346843 C6.87745973,3.59946843 6.89945973,3.62546843 6.95845973,3.69946843 L7.02545973,3.78146843 L7.38545973,4.21946843 L7.88245973,4.82346843 L8.19745973,5.19446843 L8.64645973,5.72846843 L8.80245973,5.91746843 C8.93945973,6.08846843 9.08045973,6.25546843 9.22545973,6.41446843 L9.29145973,6.45946843 C9.29545973,6.46646843 9.29945973,6.47046843 9.30245973,6.47446843 L8.85745973,6.48546843 Z M8.79845973,8.26546843 L8.27945973,8.85546843 L8.02345973,9.14146843 L7.76345973,9.42646843 L7.49245973,9.73846843 L7.32545973,9.93446843 L7.20345973,10.0724684 L7.10345973,10.1944684 L6.69145973,10.2014684 C6.42045973,10.2054684 6.15345973,10.2094684 5.83445973,10.2204684 C5.79045973,10.2244684 5.74945973,10.2244684 5.69745973,10.2424684 C5.69345973,10.2424684 5.69345973,10.2424684 5.69345973,10.2424684 C5.69045973,10.2424684 5.68645973,10.2424684 5.68245973,10.2424684 L6.00545973,9.94246843 C6.30245973,9.65646843 6.59145973,9.36346843 6.88045973,9.06646843 L7.20745973,8.73646843 L7.34845973,8.59246843 L7.63045973,8.30246843 C7.81545973,8.10946843 8.00145973,7.91646843 8.17945973,7.72746843 L8.34945973,7.72746843 L8.53545973,7.73146843 L9.00645973,7.72746843 L9.16145973,7.72746843 L9.25145973,7.70946843 C9.26245973,7.70946843 9.27345973,7.70946843 9.28045973,7.70946843 L8.79845973,8.26546843 Z M5.04145973,10.1124684 C4.98145973,10.1354684 4.93345973,10.1794684 4.92945973,10.2164684 L4.74045973,10.2204684 L4.55145973,10.2204684 L3.87645973,10.2274684 L3.44245973,10.2424684 C3.38645973,10.2464684 3.33145973,10.2464684 3.25645973,10.2644684 C3.24945973,10.2644684 3.24245973,10.2644684 3.23845973,10.2644684 L3.37945973,10.0864684 C3.45745973,9.98646843 3.53845973,9.88646843 3.62445973,9.79346843 L3.99145973,9.35246843 L4.16545973,9.14146843 L4.67345973,8.55146843 C4.94045973,8.24746843 5.20445973,7.95046843 5.47545973,7.65746843 L5.46745973,7.64946843 L5.48645973,7.66146843 C6.03845973,7.67546843 6.59145973,7.69046843 7.13645973,7.69846843 L7.27745973,7.69846843 C7.32545973,7.69846843 7.37445973,7.69446843 7.45545973,7.68346843 C7.46345973,7.68346843 7.47445973,7.68346843 7.48145973,7.68346843 L7.27045973,7.90246843 L7.03645973,8.14346843 L6.71345973,8.47346843 L6.07245973,9.11846843 C5.75345973,9.43746843 5.43445973,9.75346843 5.12645973,10.0314684 L5.04145973,10.1124684 Z M2.90445973,9.81946843 L2.70445973,10.0574684 C2.68545973,10.0834684 2.66345973,10.1054684 2.60745973,10.1644684 L2.55245973,10.2384684 L2.34845973,10.2424684 L2.14745973,10.2424684 L1.84745973,10.2504684 C1.54345973,10.2534684 1.23945973,10.2574684 0.890459734,10.2724684 C0.845459734,10.2764684 0.808459734,10.2764684 0.756459734,10.2944684 C0.753459734,10.2944684 0.753459734,10.2944684 0.753459734,10.2944684 C0.749459734,10.2944684 0.745459734,10.2944684 0.742459734,10.2944684 L0.808459734,10.2164684 L0.879459734,10.1424684 L0.949459734,10.0644684 L1.09045973,9.90846843 L1.43945973,9.52646843 L1.66945973,9.27846843 L1.79145973,9.13746843 L2.05545973,8.83646843 L2.19245973,8.68146843 L2.31845973,8.53246843 L2.59645973,8.22146843 L2.59245973,8.22446843 C2.77045973,8.01746843 2.95645973,7.81346843 3.18645973,7.56046843 L3.36445973,7.57546843 C3.76545973,7.60546843 4.16945973,7.62446843 4.57345973,7.63546843 L4.70745973,7.63846843 L4.78845973,7.60946843 L4.79945973,7.60946843 L4.35145973,8.11346843 C4.13645973,8.35846843 3.92445973,8.60646843 3.71645973,8.85546843 L3.49445973,9.11846843 L3.27145973,9.38246843 L3.04945973,9.64146843 L2.90445973,9.81946843 Z M2.28145973,5.72146843 L2.06645973,5.44246843 L1.85145973,5.17246843 L1.42045973,4.63046843 C1.24645973,4.40446843 1.07945973,4.18146843 0.905459734,3.95146843 L0.845459734,3.85946843 L0.779459734,3.79646843 L0.775459734,3.77346843 C0.775459734,3.77346843 0.760459734,3.75946843 0.742459734,3.74046843 C0.738459734,3.73646843 0.734459734,3.72946843 0.730459734,3.72146843 C0.727459734,3.71846843 0.723459734,3.71046843 0.719459734,3.70746843 C0.719459734,3.71046843 0.723459734,3.71046843 0.723459734,3.71446843 C0.719459734,3.71046843 0.716459734,3.70746843 0.716459734,3.69946843 C0.716459734,3.70346843 0.716459734,3.70346843 0.716459734,3.70746843 C0.701459734,3.67746843 0.679459734,3.65146843 0.660459734,3.62146843 C1.02445973,3.62146843 1.39445973,3.61846843 1.74345973,3.58446843 C1.74345973,3.59246843 1.74345973,3.59946843 1.80645973,3.67746843 L1.95545973,3.80346843 L2.07345973,3.90746843 C2.55945973,4.33746843 3.03445973,4.77946843 3.50545973,5.22746843 L3.64245973,5.35746843 C3.90945973,5.61346843 4.18045973,5.86946843 4.45145973,6.12146843 C4.60745973,6.27046843 4.76245973,6.41446843 4.92645973,6.54846843 L4.99645973,6.58546843 C5.00045973,6.58946843 5.00345973,6.59246843 5.00745973,6.59646843 C4.62945973,6.61146843 4.25445973,6.62646843 3.87645973,6.64846843 L3.67645973,6.65946843 C3.50945973,6.66746843 3.34245973,6.67446843 3.17545973,6.70746843 L3.13845973,6.72646843 L3.06045973,6.68946843 L3.04545973,6.67846843 L3.05245973,6.67046843 C2.79645973,6.38546843 2.55545973,6.07746843 2.28145973,5.72146843 Z M3.05645973,3.59946843 L3.90245973,3.59246843 L4.72245973,3.57346843 C4.74445973,3.61446843 4.77045973,3.64746843 4.79245973,3.67746843 L4.95245973,3.83346843 L5.45645973,4.33046843 C5.57845973,4.44846843 5.70145973,4.56746843 5.82045973,4.69046843 L6.09445973,4.96446843 L6.69545973,5.54646843 L6.97745973,5.82146843 L7.54145973,6.37046843 L7.62645973,6.45946843 L7.69345973,6.50046843 C7.69645973,6.50346843 7.70045973,6.50746843 7.70845973,6.51146843 L6.95545973,6.53746843 L6.36845973,6.55146843 L5.70845973,6.54846843 C5.18545973,6.08046843 4.67345973,5.59846843 4.16145973,5.11646843 C3.76545973,4.73446843 3.36445973,4.35246843 2.96045973,3.97746843 L2.62645973,3.68446843 L2.51545973,3.62546843 C2.50745973,3.61846843 2.50045973,3.61046843 2.49245973,3.60646843 C2.67845973,3.60346843 2.86745973,3.59946843 3.05645973,3.59946843 Z M105.111584,6.84546843 C105.11546,6.63346843 105.02246,6.41146843 104.86646,6.25546843 C104.71046,6.09946843 104.51046,6.01046843 104.29846,6.01046843 L101.09446,6.01746843 C99.7584597,6.01746843 98.4234597,6.01746843 97.0884597,6.02146843 C94.8514597,6.02946843 92.6144597,6.02946843 90.3824597,6.02946843 C88.6424597,6.02946843 86.9024597,6.02946843 85.1664597,6.03646843 L78.9944597,6.05546843 L72.8264597,6.06946843 C70.9534597,6.08046843 69.0764597,6.08046843 67.1994597,6.08046843 C64.9484597,6.08046843 62.6964597,6.08446843 60.4454597,6.09546843 C59.7964597,6.10646843 59.1504597,6.10646843 58.5054597,6.11046843 L56.9954597,6.11046843 L54.2324597,6.11846843 C53.6124597,6.12946843 52.9894597,6.12946843 52.3704597,6.13246843 L50.9164597,6.13246843 L48.2644597,6.14046843 L46.7874597,6.15146843 L45.6864597,6.15846843 C44.5774597,6.16646843 43.4644597,6.16946843 42.3514597,6.16946843 C41.5874597,6.16946843 40.8274597,6.17746843 40.0594597,6.18446843 L39.2994597,6.18846843 C38.4084597,6.19546843 37.5154597,6.20346843 36.6244597,6.20346843 C33.8884597,6.21146843 31.1534597,6.23046843 28.4194597,6.25046843 C28.4174597,6.17946843 28.4194597,6.10746843 28.4174597,6.03646843 C28.4064597,5.69946843 28.3954597,5.36546843 28.3764597,5.02846843 C28.3614597,4.84246843 28.3464597,4.65746843 28.3244597,4.47546843 C28.3064597,4.30646843 28.2754597,4.13046843 28.1194597,4.03746843 C28.0414597,3.98946843 27.9454597,3.97046843 27.8424597,3.99646843 C27.7164597,4.03346843 27.6344597,4.12646843 27.6014597,4.23446843 C27.5494597,4.38246843 27.5674597,4.55346843 27.5644597,4.70946843 C27.5604597,4.92446843 27.5604597,5.14346843 27.5604597,5.35846843 C27.5614597,5.65646843 27.5644597,5.95546843 27.5664597,6.25446843 C26.8894597,6.26046843 26.2114597,6.25946843 25.5344597,6.26646843 C25.3194597,6.14446843 25.1044597,6.02146843 24.8884597,5.89946843 C24.6214597,5.74746843 24.3584597,5.59546843 24.0914597,5.44246843 C23.7654597,5.25346843 23.4314597,5.07246843 23.1014597,4.89446843 C22.2774597,4.44546843 21.4654597,3.97046843 20.6384597,3.52946843 C20.2634597,3.32846843 19.8924597,3.13246843 19.5184597,2.93546843 C19.3324597,2.83946843 19.1394597,2.74246843 18.9654597,2.62446843 C18.9654597,2.62446843 18.9654597,2.62446843 18.9694597,2.62446843 C18.9504597,2.61646843 18.9354597,2.60546843 18.9244597,2.59846843 C18.8874597,2.56446843 18.8394597,2.54246843 18.7904597,2.53846843 C18.7574597,2.52346843 18.7204597,2.52046843 18.6794597,2.52346843 C18.5534597,2.54246843 18.4574597,2.66446843 18.4754597,2.79046843 C18.4944597,2.89446843 18.5754597,2.98046843 18.6314597,3.06546843 C18.6244597,3.05746843 18.6204597,3.04646843 18.6124597,3.03946843 C18.7244597,3.20246843 18.8354597,3.36546843 18.9504597,3.52146843 C19.1134597,3.74046843 19.2844597,3.95546843 19.4514597,4.17046843 C19.8254597,4.65646843 20.2304597,5.12046843 20.6304597,5.58446843 C20.8424597,5.83246843 21.0574597,6.07346843 21.2794597,6.31046843 C19.5554597,6.32946843 17.8264597,6.35146843 16.1124597,6.38146843 C15.9274597,6.28146843 15.7454597,6.18146843 15.5644597,6.07746843 C15.1784597,5.86246843 14.7994597,5.64346843 14.4214597,5.42046843 L14.0244597,5.19046843 C13.7534597,5.03846843 13.4834597,4.88246843 13.1934597,4.69046843 C13.0604597,4.60446843 12.9264597,4.51246843 12.8304597,4.44146843 C12.7854597,4.37146843 12.7044597,4.32646843 12.6184597,4.32646843 C12.5414597,4.32646843 12.4554597,4.37146843 12.4184597,4.43046843 C12.3074597,4.46046843 12.2224597,4.56746843 12.2224597,4.68246843 C12.2224597,4.81246843 12.2334597,4.94246843 12.2484597,5.12446843 L12.2554597,5.25346843 L12.2884597,5.62146843 C12.2994597,5.79546843 12.3074597,5.96646843 12.3114597,6.13646843 L12.3184597,6.30746843 L12.3484597,6.39646843 L12.3554597,6.42246843 L11.1424597,6.44446843 L9.93745973,6.44446843 C9.69645973,6.16946843 9.46245973,5.88446843 9.23245973,5.60246843 L8.72745973,4.99046843 C8.46045973,4.67546843 8.19345973,4.35946843 7.93445973,4.04046843 C7.81145973,3.88846843 7.68945973,3.73646843 7.56345973,3.58846843 L7.49245973,3.50646843 C7.42245973,3.42546843 7.35545973,3.34346843 7.28845973,3.25846843 C7.25545973,3.15846843 7.16245973,3.09146843 7.05845973,3.09146843 C7.05545973,3.09146843 7.05545973,3.09146843 7.05145973,3.09146843 C6.99545973,3.05046843 6.94745973,3.03246843 6.89145973,3.03246843 L5.43745973,3.04346843 L3.98745973,3.05046843 L2.96345973,3.06146843 L1.94745973,3.06946843 L1.42045973,3.07646843 C1.06845973,3.08046843 0.719459734,3.08046843 0.367459734,3.08046843 C0.237459734,3.08046843 0.126459734,3.17646843 0.111459734,3.29546843 C0.0444597338,3.36946843 0.0224597338,3.47346843 0.0524597338,3.55446843 C0.0704597338,3.63246843 0.115459734,3.69946843 0.204459734,3.82546843 C0.304459734,3.98946843 0.412459734,4.14446843 0.556459734,4.35246843 L0.623459734,4.45246843 L0.730459734,4.59746843 C0.823459734,4.73046843 0.916459734,4.86046843 1.01645973,4.98646843 L1.39445973,5.46546843 L2.02545973,6.25946843 L2.44445973,6.78546843 C2.52645973,6.88246843 2.60745973,6.97846843 2.68245973,7.04146843 C2.66345973,7.13846843 2.67845973,7.23046843 2.72245973,7.27546843 L2.26645973,7.78346843 L1.84745973,8.26946843 L1.58045973,8.57746843 C1.42045973,8.75946843 1.26145973,8.93346843 1.09845973,9.10746843 L0.938459734,9.27846843 L0.708459734,9.53046843 C0.586459734,9.66746843 0.463459734,9.80146843 0.337459734,9.93446843 C0.245459734,10.0354684 0.156459734,10.1384684 0.0704597338,10.2384684 C0.0184597338,10.3134684 -0.00354026623,10.3984684 -1.42108547e-14,10.5244684 C-1.42108547e-14,10.5954684 0.0334597338,10.6694684 0.0814597338,10.7214684 C0.133459734,10.7734684 0.196459734,10.8024684 0.263459734,10.8024684 C0.527459734,10.8024684 0.786459734,10.7994684 1.04645973,10.7954684 L1.85845973,10.7874684 L2.67045973,10.7804684 L7.15845973,10.7354684 C7.20345973,10.7354684 7.26245973,10.7174684 7.29945973,10.6874684 C7.36345973,10.6764684 7.42245973,10.6354684 7.47045973,10.5724684 C7.56645973,10.4684684 7.66345973,10.3614684 7.75645973,10.2534684 L7.99345973,9.98346843 L8.09745973,9.85646843 L8.28245973,9.64946843 L8.86145973,9.00046843 L9.03245973,8.80346843 L9.37745973,8.40646843 L9.77745973,7.95746843 L9.95545973,7.75046843 L11.1794597,7.76146843 L12.3664597,7.74246843 L12.3744597,7.74246843 C12.3814597,7.89146843 12.3854597,8.03946843 12.3894597,8.18746843 L12.4034597,8.79246843 C12.4074597,9.14446843 12.4144597,9.50046843 12.4294597,9.85346843 C12.4484597,10.0094684 12.5594597,10.1244684 12.7004597,10.1244684 C12.7824597,10.1244684 12.8674597,10.0794684 12.9784597,9.98346843 L13.0674597,9.93846843 C13.0934597,9.91246843 13.1194597,9.89046843 13.2344597,9.80546843 L13.3384597,9.72746843 L13.7314597,9.40446843 L13.9174597,9.25246843 L14.0324597,9.15946843 L14.2884597,8.94846843 L14.8554597,8.46946843 L15.6714597,7.80546843 C17.3294597,7.82046843 18.9874597,7.83146843 20.6454597,7.83946843 C20.8164597,7.83946843 20.9834597,7.83946843 21.1534597,7.84246843 C20.7864597,8.30646843 20.4114597,8.76246843 20.0184597,9.21146843 C20.0224597,9.20746843 20.0224597,9.20746843 20.0224597,9.20746843 C19.8144597,9.44546843 19.6034597,9.68246843 19.3914597,9.92046843 C19.1874597,10.1494684 18.9764597,10.3724684 18.7654597,10.5984684 C18.6244597,10.7474684 18.4904597,10.8994684 18.3494597,11.0474684 C18.2904597,11.1104684 18.2194597,11.1704684 18.1794597,11.2514684 C18.1534597,11.3034684 18.1534597,11.3624684 18.1714597,11.4144684 C18.1714597,11.4184684 18.1714597,11.4224684 18.1714597,11.4254684 C18.1714597,11.5554684 18.2794597,11.6634684 18.4084597,11.6634684 C18.4124597,11.6634684 18.4164597,11.6634684 18.4164597,11.6634684 C18.4494597,11.6634684 18.4834597,11.6554684 18.5124597,11.6484684 C18.5904597,11.6264684 18.6644597,11.5964684 18.7394597,11.5634684 C18.8354597,11.5264684 18.9354597,11.4854684 19.0324597,11.4444684 C19.0984597,11.4184684 19.1654597,11.3884684 19.2324597,11.3594684 C19.4694597,11.2734684 19.7034597,11.1814684 19.9374597,11.0884684 C20.2564597,10.9624684 20.5634597,10.8214684 20.8714597,10.6724684 C21.1984597,10.5134684 21.5204597,10.3534684 21.8364597,10.1874684 C22.3074597,9.93446843 22.7704597,9.67546843 23.2344597,9.41546843 C23.5944597,9.21146843 23.9544597,9.01846843 24.3104597,8.81846843 C24.6294597,8.63646843 24.9484597,8.45446843 25.2634597,8.26946843 C25.5004597,8.13246843 25.7424597,7.99146843 25.9864597,7.86146843 C26.5164597,7.86346843 27.0464597,7.86346843 27.5764597,7.86446843 C27.5774597,8.10046843 27.5794597,8.33646843 27.5824597,8.57046843 C27.5824597,8.79646843 27.5864597,9.02246843 27.5864597,9.25246843 C27.5824597,9.44146843 27.5754597,9.63846843 27.5824597,9.83146843 C27.5904597,10.0654684 27.7754597,10.2614684 28.0124597,10.2614684 C28.2574597,10.2614684 28.4354597,10.0654684 28.4464597,9.83146843 C28.4544597,9.55646843 28.4464597,9.28246843 28.4434597,9.00746843 C28.4434597,8.76346843 28.4394597,8.51446843 28.4394597,8.26946843 C28.4394597,8.13546843 28.4354597,8.00146843 28.4354597,7.86646843 C29.8504597,7.87046843 31.2644597,7.87346843 32.6784597,7.87646843 C33.2384597,7.87646843 33.7984597,7.87246843 34.3584597,7.86846843 L35.2074597,7.86546843 C36.0494597,7.86146843 36.8884597,7.85746843 37.7224597,7.85746843 L38.5644597,7.86146843 L39.7514597,7.86146843 L42.1214597,7.85746843 L44.4954597,7.85446843 L47.4254597,7.85446843 C48.4014597,7.85446843 49.3804597,7.85446843 50.3564597,7.84646843 C50.9974597,7.83946843 51.6394597,7.83546843 52.2814597,7.83546843 L52.9234597,7.83546843 L53.5644597,7.83946843 C54.5034597,7.83946843 55.4374597,7.83946843 56.3764597,7.83546843 C58.3454597,7.82446843 60.3154597,7.82046843 62.2994597,7.81646843 C64.4954597,7.81346843 66.6914597,7.80946843 68.8874597,7.79846843 C70.9054597,7.78746843 72.9224597,7.77946843 74.9404597,7.77646843 L77.7154597,7.76446843 C78.8724597,7.75746843 80.0264597,7.75346843 81.1834597,7.75346843 C85.2154597,7.74646843 89.2474597,7.72446843 93.2754597,7.70146843 C96.9434597,7.67946843 100.60846,7.66446843 104.27346,7.65746843 C104.72546,7.65746843 105.10346,7.29346843 105.111584,6.84546843 L105.111584,6.84546843 Z" id="Fill-66"></path>
                <path d="M28.1164597,4.03346843 C28.1184597,4.03446843 28.1184597,4.03646843 28.1194597,4.03746843 L28.1204597,4.03746843 C28.1204597,4.03746843 28.1204597,4.03746843 28.1164597,4.03346843" id="Fill-67"></path>
                <path d="M107.54146,6.32746843 C107.43746,5.83846843 107.25946,5.35946843 107.02246,4.91846843 C106.90746,4.71446843 106.78046,4.51746843 106.64746,4.32446843 C106.51046,4.12446843 106.36546,3.92746843 106.20546,3.74646843 C105.69046,3.15946843 105.08546,2.64846843 104.38446,2.30346843 C104.10246,2.16246843 103.81746,2.02546843 103.52046,1.92146843 C103.38646,1.87646843 103.24946,1.82846843 103.10846,1.81346843 C103.00846,1.80246843 102.89746,1.79846843 102.80846,1.85446843 C102.64146,1.95846843 102.60046,2.15846843 102.68546,2.32546843 C102.71546,2.38846843 102.77446,2.43346843 102.83046,2.47046843 C102.93046,2.53346843 103.04946,2.57446843 103.16046,2.62546843 C103.49846,2.80046843 103.83546,2.98546843 104.15846,3.19346843 C104.31746,3.30446843 104.47046,3.42346843 104.61946,3.55046843 C104.85946,3.76246843 105.09346,3.98446843 105.30846,4.22846843 C105.30446,4.22846843 105.30446,4.22846843 105.30446,4.22846843 C105.50846,4.46246843 105.68246,4.71746843 105.85746,4.97346843 C105.96446,5.13746843 106.06146,5.30046843 106.15046,5.46746843 C106.24646,5.66746843 106.33246,5.86746843 106.40946,6.07946843 C106.47246,6.26446843 106.52446,6.45346843 106.56946,6.64346843 C106.60246,6.81346843 106.62446,6.98346843 106.63646,7.15346843 C106.63946,7.24646843 106.63646,7.34046843 106.63246,7.43646843 C106.63246,7.43646843 106.63246,7.43246843 106.63646,7.43246843 C106.63246,7.43646843 106.63246,7.44046843 106.63246,7.44446843 C106.63246,7.45446843 106.63246,7.46446843 106.63246,7.47346843 C106.61246,7.68246843 106.58246,7.89046843 106.54346,8.09546843 C106.50346,8.30046843 106.45046,8.50146843 106.38146,8.70046843 C106.31246,8.89146843 106.23646,9.08146843 106.14746,9.26446843 C106.05846,9.43246843 105.96846,9.59346843 105.86446,9.75546843 C105.86446,9.75546843 105.86446,9.75546843 105.86846,9.75546843 C105.74546,9.93346843 105.61246,10.1074684 105.47546,10.2704684 C105.47546,10.2664684 105.47546,10.2634684 105.47546,10.2634684 C105.36446,10.3854684 105.24546,10.5044684 105.13046,10.6194684 C105.01146,10.7194684 104.89246,10.8124684 104.76646,10.9014684 C104.61446,10.9974684 104.45846,11.0864684 104.29546,11.1644684 C104.29946,11.1644684 104.29946,11.1644684 104.29946,11.1644684 C104.08846,11.2724684 103.86546,11.3574684 103.63946,11.4424684 L103.63946,11.4394684 C103.63546,11.4424684 103.62846,11.4424684 103.62446,11.4464684 C103.61346,11.4504684 103.60546,11.4534684 103.59446,11.4534684 L103.59846,11.4534684 C103.42046,11.5164684 103.23446,11.5654684 103.06746,11.6544684 C102.88646,11.7504684 102.81546,11.9914684 102.89346,12.1774684 C102.96446,12.3404684 103.11646,12.4294684 103.28646,12.4294684 C103.30146,12.4294684 103.31646,12.4294684 103.33546,12.4254684 C103.37646,12.4224684 103.41846,12.4124684 103.46046,12.4034684 C103.58946,12.3774684 103.71846,12.3424684 103.84346,12.3034684 C104.25846,12.1734684 104.67046,12.0214684 105.05246,11.8094684 C105.43846,11.5984684 105.77946,11.3204684 106.07946,11.0014684 C106.59946,10.4524684 107.00746,9.81846843 107.27446,9.11346843 C107.44146,8.67946843 107.55946,8.21546843 107.61546,7.75246843 C107.67446,7.26946843 107.64146,6.80246843 107.54146,6.32746843" id="Fill-68"></path>
                <path d="M109.69446,8.11146843 C109.84646,8.17846843 110.00646,8.20846843 110.16546,8.20846843 C110.57046,8.20846843 110.96346,7.99646843 111.18546,7.63346843 C111.43446,7.22546843 111.45246,6.56146843 111.15246,6.19746843 C110.94846,5.88246843 110.59946,5.66046843 110.22846,5.62246843 C109.78746,5.58246843 109.30546,5.76346843 109.04946,6.13846843 C108.80446,6.49846843 108.75946,6.95846843 108.95246,7.35546843 C109.11246,7.68546843 109.35346,7.95946843 109.69446,8.11146843" id="Fill-70"></path>
                <path d="M114.52546,0.206468431 C114.41346,0.0174684309 114.18746,-0.0415315691 113.98746,0.0284684309 C113.89846,0.0624684309 113.80946,0.114468431 113.72746,0.158468431 C113.64246,0.203468431 113.56046,0.247468431 113.48246,0.295468431 C113.29746,0.403468431 113.11546,0.518468431 112.94146,0.640468431 C112.65546,0.841468431 112.38446,1.06346843 112.11746,1.29046843 C111.76146,1.59446843 111.41346,1.90246843 111.08246,2.23246843 C110.72646,2.58846843 110.40446,2.97746843 110.09646,3.37446843 C110.01046,3.48546843 109.93346,3.60546843 109.85546,3.72346843 C109.78846,3.63646843 109.72346,3.54946843 109.65446,3.46446843 C109.50246,3.26746843 109.34646,3.07446843 109.18746,2.88146843 C108.93846,2.59246843 108.69046,2.30346843 108.41946,2.03246843 C108.15946,1.78046843 107.89246,1.53546843 107.61446,1.30146843 C107.24346,0.993468431 106.85046,0.712468431 106.43846,0.463468431 C106.27946,0.370468431 106.11646,0.270468431 105.94546,0.196468431 C105.88246,0.170468431 105.81546,0.148468431 105.74546,0.133468431 C105.62646,0.111468431 105.52646,0.159468431 105.43346,0.229468431 C105.33746,0.304468431 105.31446,0.463468431 105.34446,0.571468431 C105.36346,0.641468431 105.40346,0.704468431 105.45546,0.756468431 C105.57446,0.864468431 105.70846,0.953468431 105.83746,1.04546843 C106.20846,1.32046843 106.57546,1.59446843 106.92046,1.89846843 C106.90646,1.88446843 106.89446,1.87346843 106.88046,1.85846843 C106.89746,1.87246843 106.91446,1.88946843 106.93246,1.90646843 C107.16946,2.11446843 107.40346,2.32946843 107.62146,2.55546843 C107.79446,2.73146843 107.95946,2.91646843 108.12446,3.09946843 C108.35046,3.35446843 108.56846,3.61746843 108.77946,3.88746843 C108.92746,4.06846843 109.07946,4.25346843 109.21346,4.44846843 C109.21746,4.45546843 109.22046,4.46246843 109.22446,4.46946843 C109.32046,4.61746843 109.48346,4.70346843 109.65046,4.70346843 C109.72746,4.70346843 109.80146,4.67946843 109.87146,4.64146843 C109.89346,4.64546843 109.91346,4.65846843 109.93646,4.65846843 C110.04446,4.65846843 110.15546,4.61346843 110.22946,4.53546843 C110.32646,4.43146843 110.41146,4.30946843 110.49646,4.19846843 C110.72646,3.90446843 110.96046,3.61546843 111.20546,3.33346843 C111.19446,3.34846843 111.18346,3.35946843 111.17146,3.37446843 C111.57246,2.91846843 112.02146,2.50246843 112.47746,2.09846843 C112.47746,2.09946843 112.47746,2.09946843 112.47746,2.10046843 C112.77846,1.84346843 113.08646,1.59746843 113.41246,1.37346843 C113.41246,1.37446843 113.41246,1.37446843 113.41246,1.37546843 C113.42346,1.36746843 113.43046,1.35646843 113.44146,1.34946843 C113.44546,1.34946843 113.44946,1.34546843 113.44946,1.34546843 C113.70946,1.17546843 113.97246,1.01146843 114.25046,0.863468431 L114.25446,0.863468431 C114.25446,0.863468431 114.25746,0.863468431 114.25746,0.859468431 L114.25746,0.863468431 C114.29546,0.841468431 114.33546,0.822468431 114.36946,0.796468431 C114.56546,0.666468431 114.64746,0.418468431 114.52546,0.206468431" id="Fill-71"></path>
                <path d="M113.54346,12.9684684 C113.49146,12.9424684 113.43946,12.9164684 113.38746,12.8904684 C113.39146,12.8944684 113.39446,12.8944684 113.39846,12.8984684 C113.38746,12.8944684 113.37646,12.8874684 113.36546,12.8834684 C113.36146,12.8794684 113.35346,12.8754684 113.34646,12.8724684 C113.35046,12.8724684 113.35346,12.8754684 113.35746,12.8754684 C113.22246,12.8054684 113.08846,12.7314684 112.95946,12.6464684 C112.75946,12.5114684 112.57246,12.3614684 112.39046,12.2014684 C112.11346,11.9524684 111.84746,11.6854684 111.60146,11.4084684 C111.43146,11.2144684 111.27446,11.0114684 111.12746,10.7984684 C110.99146,10.6004684 110.85646,10.3954684 110.74246,10.1834684 C110.74646,10.1864684 110.74646,10.1904684 110.75046,10.1944684 C110.64946,9.99046843 110.57246,9.77546843 110.49446,9.55946843 C110.42746,9.38146843 110.35346,9.14046843 110.12346,9.12546843 C109.97846,9.11446843 109.83846,9.18146843 109.76546,9.30046843 C109.64846,9.35746843 109.58246,9.46346843 109.53246,9.58046843 C109.45846,9.75046843 109.38046,9.92146843 109.29446,10.0884684 C109.29846,10.0844684 109.30246,10.0774684 109.30546,10.0734684 C109.21146,10.2514684 109.11646,10.4214684 109.00846,10.5844684 C108.80746,10.8764684 108.58646,11.1534684 108.35346,11.4194684 C108.14746,11.6504684 107.93446,11.8744684 107.69946,12.0844684 C107.32946,12.4114684 106.94246,12.7184684 106.53646,12.9964684 C106.42746,13.0704684 106.31846,13.1404684 106.20846,13.2074684 C106.06446,13.2974684 105.91246,13.3784684 105.77146,13.4714684 C105.58546,13.5904684 105.50746,13.8314684 105.62646,14.0314684 C105.69646,14.1534684 105.84546,14.2354684 105.98646,14.2354684 C106.03846,14.2354684 106.09046,14.2244684 106.13846,14.2014684 C106.34246,14.1014684 106.53546,13.9754684 106.72446,13.8534684 C107.05446,13.6344684 107.38046,13.4084684 107.69246,13.1674684 C107.91846,12.9894684 108.14446,12.8074684 108.35646,12.6074684 C108.60846,12.3734684 108.83846,12.1214684 109.06146,11.8654684 C109.42746,11.4394684 109.73246,10.9794684 109.96846,10.4744684 C110.26146,11.1704684 110.74146,11.7904684 111.26146,12.3304684 C111.52546,12.6084684 111.80346,12.8754684 112.10346,13.1164684 C112.41946,13.3724684 112.76446,13.6134684 113.13846,13.7694684 C113.19446,13.7954684 113.25346,13.8064684 113.31346,13.8064684 C113.48746,13.8064684 113.65446,13.7034684 113.72846,13.5324684 C113.81346,13.3324684 113.73946,13.0724684 113.54346,12.9684684" id="Fill-72"></path>
                <path d="M211.19146,6.47446843 C211.19546,6.47046843 211.19946,6.46646843 211.20346,6.45946843 L211.26946,6.41446843 C211.41446,6.25546843 211.55546,6.08846843 211.69246,5.91746843 L211.84846,5.72846843 L212.29746,5.19446843 L212.61246,4.82346843 L213.10946,4.21946843 L213.46946,3.78146843 L213.53646,3.69946843 C213.59546,3.62546843 213.61746,3.59946843 213.63246,3.57346843 L214.11446,3.57746843 L215.07546,3.58446843 L215.01246,3.61846843 L214.82646,3.79946843 L214.73046,3.88146843 L214.45546,4.14846843 L214.23746,4.36746843 C214.11446,4.48946843 213.99646,4.60846843 213.86946,4.72746843 L213.29446,5.28746843 C213.03546,5.53946843 212.78346,5.79546843 212.53046,6.05146843 L212.28246,6.30346843 L212.08246,6.50746843 L211.63746,6.48546843 L211.19146,6.47446843 Z M211.21446,7.70946843 C211.22146,7.70946843 211.23246,7.70946843 211.24346,7.70946843 L211.33246,7.72746843 L211.48846,7.72746843 L211.95946,7.73146843 L212.14546,7.72746843 L212.31546,7.72746843 C212.49346,7.91646843 212.67946,8.10946843 212.86446,8.30246843 L213.14646,8.59246843 L213.28746,8.73646843 L213.61346,9.06646843 C213.90346,9.36346843 214.19246,9.65646843 214.48946,9.94246843 L214.81246,10.2424684 C214.80846,10.2424684 214.80446,10.2424684 214.80046,10.2424684 C214.80046,10.2424684 214.80046,10.2424684 214.79746,10.2424684 C214.74546,10.2244684 214.70446,10.2244684 214.65946,10.2204684 C214.34046,10.2094684 214.07346,10.2054684 213.80346,10.2014684 L213.39146,10.1944684 L213.29146,10.0724684 L213.16846,9.93446843 L213.00146,9.73846843 L212.73146,9.42646843 L212.47146,9.14146843 L212.21546,8.85546843 L211.69646,8.26546843 L211.21446,7.70946843 Z M215.36846,10.0314684 C215.06046,9.75346843 214.74146,9.43746843 214.42246,9.11846843 L213.78046,8.47346843 L213.45846,8.14346843 L213.22446,7.90246843 L213.01346,7.68346843 C213.02046,7.68346843 213.03146,7.68346843 213.03946,7.68346843 C213.12046,7.69446843 213.16846,7.69846843 213.21746,7.69846843 L213.35846,7.69846843 C213.90346,7.69046843 214.45546,7.67546843 215.00846,7.66146843 L215.02746,7.64946843 L215.01946,7.65746843 C215.29046,7.95046843 215.55346,8.24746843 215.82046,8.55146843 L216.32946,9.14146843 L216.50346,9.35246843 L216.87046,9.79346843 C216.95546,9.88646843 217.03746,9.98646843 217.11546,10.0864684 L217.25646,10.2644684 C217.25246,10.2644684 217.24546,10.2644684 217.23746,10.2644684 C217.16346,10.2464684 217.10846,10.2464684 217.05246,10.2424684 L216.61846,10.2274684 L215.94346,10.2204684 L215.75446,10.2204684 L215.56446,10.2164684 C215.56146,10.1794684 215.51346,10.1354684 215.45346,10.1124684 L215.36846,10.0314684 Z M217.44546,9.64146843 L217.22346,9.38246843 L217.00046,9.11846843 L216.77746,8.85546843 C216.57046,8.60646843 216.35846,8.35846843 216.14346,8.11346843 L215.69446,7.60946843 L215.70546,7.60946843 L215.78746,7.63846843 L215.92146,7.63546843 C216.32546,7.62446843 216.72946,7.60546843 217.13046,7.57546843 L217.30846,7.56046843 C217.53846,7.81346843 217.72346,8.01746843 217.90146,8.22446843 L217.89846,8.22146843 L218.17646,8.53246843 L218.30246,8.68146843 L218.43946,8.83646843 L218.70246,9.13746843 L218.82546,9.27846843 L219.05546,9.52646843 L219.40446,9.90846843 L219.54446,10.0644684 L219.61546,10.1424684 L219.68546,10.2164684 L219.75246,10.2944684 C219.74946,10.2944684 219.74546,10.2944684 219.74146,10.2944684 C219.74146,10.2944684 219.74146,10.2944684 219.73746,10.2944684 C219.68546,10.2764684 219.64846,10.2764684 219.60446,10.2724684 C219.25546,10.2574684 218.95146,10.2534684 218.64746,10.2504684 L218.34646,10.2424684 L218.14646,10.2424684 L217.94246,10.2384684 L217.88646,10.1644684 C217.83146,10.1054684 217.80946,10.0834684 217.79046,10.0574684 L217.59046,9.81946843 L217.44546,9.64146843 Z M217.44146,6.67046843 L217.44946,6.67846843 L217.43446,6.68946843 L217.35646,6.72646843 L217.31946,6.70746843 C217.15246,6.67446843 216.98546,6.66746843 216.81846,6.65946843 L216.61846,6.64846843 C216.24046,6.62646843 215.86546,6.61146843 215.48746,6.59646843 C215.49046,6.59246843 215.49446,6.58946843 215.49846,6.58546843 L215.56846,6.54846843 C215.73146,6.41446843 215.88746,6.27046843 216.04346,6.12146843 C216.31446,5.86946843 216.58546,5.61346843 216.85246,5.35746843 L216.98946,5.22746843 C217.46046,4.77946843 217.93546,4.33746843 218.42146,3.90746843 L218.53946,3.80346843 L218.68846,3.67746843 C218.75146,3.59946843 218.75146,3.59246843 218.75146,3.58446843 C219.09946,3.61846843 219.47046,3.62146843 219.83446,3.62146843 C219.81546,3.65146843 219.79346,3.67746843 219.77846,3.70746843 C219.77846,3.70346843 219.77846,3.70346843 219.77846,3.69946843 C219.77846,3.70746843 219.77446,3.71046843 219.77146,3.71446843 C219.77146,3.71046843 219.77446,3.71046843 219.77446,3.70746843 C219.77146,3.71046843 219.76746,3.71846843 219.76346,3.72146843 C219.76046,3.72946843 219.75646,3.73646843 219.75246,3.74046843 C219.73446,3.75946843 219.71946,3.77346843 219.71946,3.77346843 L219.71546,3.79646843 L219.64846,3.85946843 L219.58946,3.95146843 C219.41546,4.18146843 219.24846,4.40446843 219.07346,4.63046843 L218.64346,5.17246843 L218.42846,5.44246843 L218.21346,5.72146843 C217.93846,6.07746843 217.69746,6.38546843 217.44146,6.67046843 Z M218.00146,3.60646843 C217.99446,3.61046843 217.98746,3.61846843 217.97946,3.62546843 L217.86846,3.68446843 L217.53446,3.97746843 C217.13046,4.35246843 216.72946,4.73446843 216.33246,5.11646843 C215.82046,5.59846843 215.30946,6.08046843 214.78646,6.54846843 L214.12546,6.55146843 L213.53946,6.53746843 L212.78646,6.51146843 C212.79446,6.50746843 212.79746,6.50346843 212.80146,6.50046843 L212.86846,6.45946843 L212.95346,6.37046843 L213.51746,5.82146843 L213.79946,5.54646843 L214.40046,4.96446843 L214.67446,4.69046843 C214.79346,4.56746843 214.91546,4.44846843 215.03846,4.33046843 L215.54246,3.83346843 L215.70246,3.67746843 C215.72446,3.64746843 215.75046,3.61446843 215.77246,3.57346843 L216.59246,3.59246843 L217.43846,3.59946843 C217.62746,3.59946843 217.81646,3.60346843 218.00146,3.60646843 Z M116.22146,7.65746843 C119.88646,7.66446843 123.55146,7.67946843 127.21946,7.70146843 C131.24746,7.72446843 135.27946,7.74646843 139.31146,7.75346843 C140.46846,7.75346843 141.62246,7.75746843 142.77946,7.76446843 L145.55446,7.77646843 C147.57146,7.77946843 149.58946,7.78746843 151.60746,7.79846843 C153.80346,7.80946843 155.99946,7.81346843 158.19446,7.81646843 C160.17946,7.82046843 162.14846,7.82446843 164.11846,7.83546843 C165.05646,7.83946843 165.99146,7.83946843 166.93046,7.83946843 L167.57146,7.83546843 L168.21346,7.83546843 C168.85546,7.83546843 169.49646,7.83946843 170.13846,7.84646843 C171.11446,7.85446843 172.09346,7.85446843 173.06846,7.85446843 L175.99946,7.85446843 L178.37246,7.85746843 L180.74346,7.86146843 L181.93046,7.86146843 L182.77246,7.85746843 C183.60646,7.85746843 184.44446,7.86146843 185.28646,7.86546843 L186.13646,7.86846843 C186.69646,7.87246843 187.25646,7.87646843 187.81646,7.87646843 C189.23046,7.87346843 190.64446,7.87046843 192.05946,7.86646843 C192.05946,8.00146843 192.05546,8.13546843 192.05546,8.26946843 C192.05546,8.51446843 192.05146,8.76346843 192.05146,9.00746843 C192.04746,9.28246843 192.04046,9.55646843 192.04746,9.83146843 C192.05946,10.0654684 192.23746,10.2614684 192.48146,10.2614684 C192.71946,10.2614684 192.90446,10.0654684 192.91246,9.83146843 C192.91946,9.63846843 192.91246,9.44146843 192.90846,9.25246843 C192.90846,9.02246843 192.91246,8.79646843 192.91246,8.57046843 C192.91546,8.33646843 192.91646,8.10046843 192.91746,7.86446843 C193.44746,7.86346843 193.97846,7.86346843 194.50746,7.86146843 C194.75246,7.99146843 194.99346,8.13246843 195.23146,8.26946843 C195.54646,8.45446843 195.86546,8.63646843 196.18446,8.81846843 C196.54046,9.01846843 196.90046,9.21146843 197.26046,9.41546843 C197.72346,9.67546843 198.18746,9.93446843 198.65846,10.1874684 C198.97346,10.3534684 199.29646,10.5134684 199.62246,10.6724684 C199.93046,10.8214684 200.23846,10.9624684 200.55746,11.0884684 C200.79146,11.1814684 201.02446,11.2734684 201.26246,11.3594684 C201.32946,11.3884684 201.39546,11.4184684 201.46246,11.4444684 C201.55946,11.4854684 201.65946,11.5264684 201.75546,11.5634684 C201.82946,11.5964684 201.90446,11.6264684 201.98146,11.6484684 C202.01146,11.6554684 202.04446,11.6634684 202.07846,11.6634684 C202.07846,11.6634684 202.08246,11.6634684 202.08546,11.6634684 C202.21546,11.6634684 202.32346,11.5554684 202.32346,11.4254684 C202.32346,11.4224684 202.32346,11.4184684 202.32346,11.4144684 C202.34146,11.3624684 202.34146,11.3034684 202.31546,11.2514684 C202.27446,11.1704684 202.20446,11.1104684 202.14546,11.0474684 C202.00446,10.8994684 201.87046,10.7474684 201.72946,10.5984684 C201.51846,10.3724684 201.30646,10.1494684 201.10246,9.92046843 C200.89146,9.68246843 200.67946,9.44546843 200.47246,9.20746843 C200.47246,9.20746843 200.47246,9.20746843 200.47646,9.21146843 C200.08246,8.76246843 199.70846,8.30646843 199.34146,7.84246843 C199.51146,7.83946843 199.67846,7.83946843 199.84946,7.83946843 C201.50746,7.83146843 203.16546,7.82046843 204.82346,7.80546843 L205.63946,8.46946843 L206.20646,8.94846843 L206.46246,9.15946843 L206.57746,9.25246843 L206.76346,9.40446843 L207.15646,9.72746843 L207.26046,9.80546843 C207.37546,9.89046843 207.40146,9.91246843 207.42746,9.93846843 L207.51646,9.98346843 C207.62746,10.0794684 207.71246,10.1244684 207.79446,10.1244684 C207.93546,10.1244684 208.04646,10.0094684 208.06546,9.85346843 C208.07946,9.50046843 208.08746,9.14446843 208.09046,8.79246843 L208.10546,8.18746843 C208.10946,8.03946843 208.11346,7.89146843 208.12046,7.74246843 L208.12846,7.74246843 L209.31546,7.76146843 L210.53846,7.75046843 L210.71746,7.95746843 L211.11746,8.40646843 L211.46246,8.80346843 L211.63346,9.00046843 L212.21146,9.64946843 L212.39746,9.85646843 L212.50146,9.98346843 L212.73846,10.2534684 C212.83146,10.3614684 212.92746,10.4684684 213.02446,10.5724684 C213.07246,10.6354684 213.13146,10.6764684 213.19446,10.6874684 C213.23146,10.7174684 213.29146,10.7354684 213.33546,10.7354684 L217.82346,10.7804684 L218.63646,10.7874684 L219.44846,10.7954684 C219.70846,10.7994684 219.96746,10.8024684 220.23146,10.8024684 C220.29746,10.8024684 220.36146,10.7734684 220.41246,10.7214684 C220.46146,10.6694684 220.494919,10.5954684 220.494919,10.5244684 C220.49846,10.3984684 220.47646,10.3134684 220.42446,10.2384684 C220.33846,10.1384684 220.24946,10.0354684 220.15746,9.93446843 C220.03046,9.80146843 219.90846,9.66746843 219.78646,9.53046843 L219.55646,9.27846843 L219.39646,9.10746843 C219.23346,8.93346843 219.07346,8.75946843 218.91446,8.57746843 L218.64746,8.26946843 L218.22846,7.78346843 L217.77146,7.27546843 C217.81646,7.23046843 217.83146,7.13846843 217.81246,7.04146843 C217.88646,6.97846843 217.96846,6.88246843 218.05046,6.78546843 L218.46946,6.25946843 L218.71746,5.94746843 L219.09946,5.46546843 L219.47846,4.98646843 C219.57846,4.86046843 219.67146,4.73046843 219.76346,4.59746843 L219.87146,4.45246843 L219.93846,4.35246843 C220.08246,4.14446843 220.19046,3.98946843 220.29046,3.82546843 C220.37946,3.69946843 220.42446,3.63246843 220.44246,3.55446843 C220.47246,3.47346843 220.45046,3.36946843 220.38346,3.29546843 C220.36846,3.17646843 220.25746,3.08046843 220.12746,3.08046843 C219.77446,3.08046843 219.42646,3.08046843 219.07346,3.07646843 L218.54746,3.06946843 L217.53046,3.06146843 L216.50746,3.05046843 L215.05646,3.04346843 L213.60246,3.03246843 C213.54746,3.03246843 213.49846,3.05046843 213.44346,3.09146843 C213.43946,3.09146843 213.43946,3.09146843 213.43546,3.09146843 C213.33246,3.09146843 213.23946,3.15846843 213.20546,3.25846843 C213.13946,3.34346843 213.07246,3.42546843 213.00146,3.50646843 L212.93146,3.58846843 C212.80546,3.73646843 212.68346,3.88846843 212.56046,4.04046843 C212.30046,4.35946843 212.03346,4.67546843 211.76646,4.99046843 L211.26246,5.60246843 C211.03246,5.88446843 210.79846,6.16946843 210.55746,6.44446843 L209.35246,6.44446843 L208.13946,6.42246843 L208.14646,6.39646843 L208.17646,6.30746843 L208.18346,6.13646843 C208.18746,5.96646843 208.19446,5.79546843 208.20546,5.62146843 L208.23946,5.25346843 L208.24646,5.12446843 C208.26146,4.94246843 208.27246,4.81246843 208.27246,4.68246843 C208.27246,4.56746843 208.18746,4.46046843 208.07646,4.43046843 C208.03946,4.37146843 207.95346,4.32646843 207.87546,4.32646843 C207.79046,4.32646843 207.70846,4.37146843 207.66446,4.44146843 C207.56746,4.51246843 207.43446,4.60446843 207.30046,4.69046843 C207.01146,4.88246843 206.74046,5.03846843 206.47046,5.19046843 L206.07346,5.42046843 C205.69446,5.64346843 205.31646,5.86246843 204.93046,6.07746843 C204.74946,6.18146843 204.56746,6.28146843 204.38146,6.38146843 C202.66846,6.35146843 200.93946,6.32946843 199.21446,6.31046843 C199.43746,6.07346843 199.65246,5.83246843 199.86446,5.58446843 C200.26446,5.12046843 200.66846,4.65646843 201.04346,4.17046843 C201.21046,3.95546843 201.38146,3.74046843 201.54446,3.52146843 C201.65946,3.36546843 201.77046,3.20246843 201.88146,3.03946843 C201.87446,3.04646843 201.87046,3.05746843 201.86346,3.06546843 C201.91846,2.98046843 202.00046,2.89446843 202.01946,2.79046843 C202.03746,2.66446843 201.94146,2.54246843 201.81446,2.52346843 C201.77446,2.52046843 201.73746,2.52346843 201.70346,2.53846843 C201.65546,2.54246843 201.60746,2.56446843 201.57046,2.59846843 C201.55946,2.60546843 201.54446,2.61646843 201.52546,2.62446843 C201.52946,2.62446843 201.52946,2.62446843 201.52946,2.62446843 C201.35546,2.74246843 201.16246,2.83946843 200.97646,2.93546843 C200.60246,3.13246843 200.23146,3.32846843 199.85646,3.52946843 C199.02946,3.97046843 198.21746,4.44546843 197.39346,4.89446843 C197.06346,5.07246843 196.72946,5.25346843 196.40346,5.44246843 C196.13646,5.59546843 195.87246,5.74746843 195.60546,5.89946843 C195.39046,6.02146843 195.17546,6.14446843 194.96046,6.26646843 C194.28346,6.25946843 193.60546,6.26046843 192.92846,6.25446843 C192.93046,5.95546843 192.93246,5.65646843 192.93446,5.35846843 C192.93446,5.14346843 192.93446,4.92446843 192.93046,4.70946843 C192.92646,4.55346843 192.94546,4.38246843 192.89346,4.23446843 C192.86046,4.12646843 192.77846,4.03346843 192.65246,3.99646843 C192.54946,3.97046843 192.45246,3.98946843 192.37546,4.03746843 C192.21946,4.13046843 192.18846,4.30646843 192.17046,4.47546843 C192.14846,4.65746843 192.13346,4.84246843 192.11846,5.02846843 C192.09946,5.36546843 192.08846,5.69946843 192.07746,6.03646843 C192.07546,6.10746843 192.07646,6.17946843 192.07546,6.25046843 C189.34046,6.23046843 186.60646,6.21146843 183.86946,6.20346843 C182.97946,6.20346843 182.08546,6.19546843 181.19546,6.18846843 L180.43546,6.18446843 C179.66746,6.17746843 178.90746,6.16946843 178.14346,6.16946843 C177.03046,6.16946843 175.91746,6.16646843 174.80846,6.15846843 L173.70646,6.15146843 L172.23046,6.14046843 L169.57846,6.13246843 L168.12446,6.13246843 C167.50446,6.12946843 166.88146,6.12946843 166.26246,6.11846843 L163.49946,6.11046843 L161.98946,6.11046843 C161.34446,6.10646843 160.69846,6.10646843 160.04946,6.09546843 C157.79846,6.08446843 155.54646,6.08046843 153.29546,6.08046843 C151.41846,6.08046843 149.54146,6.08046843 147.66846,6.06946843 L141.49946,6.05546843 L135.32746,6.03646843 C133.59146,6.02946843 131.85246,6.02946843 130.11246,6.02946843 C127.87946,6.02946843 125.64346,6.02946843 123.40646,6.02146843 C122.07146,6.01746843 120.73546,6.01746843 119.40046,6.01746843 L116.19546,6.01046843 C115.98446,6.01046843 115.78446,6.09946843 115.62846,6.25546843 C115.47246,6.41146843 115.37946,6.63346843 115.383336,6.84546843 C115.39046,7.29346843 115.76946,7.65746843 116.22146,7.65746843 L116.22146,7.65746843 Z" id="Fill-73"></path>
                <path d="M192.37746,4.03346843 C192.37646,4.03446843 192.37646,4.03646843 192.37546,4.03746843 C192.37446,4.03746843 192.37446,4.03746843 192.37446,4.03746843 C192.37446,4.03746843 192.37446,4.03746843 192.37746,4.03346843" id="Fill-74"></path>
                <path d="M112.95346,6.32746843 C113.05746,5.83846843 113.23546,5.35946843 113.47246,4.91846843 C113.58746,4.71446843 113.71346,4.51746843 113.84746,4.32446843 C113.98446,4.12446843 114.12946,3.92746843 114.28846,3.74646843 C114.80446,3.15946843 115.40946,2.64846843 116.11046,2.30346843 C116.39246,2.16246843 116.67746,2.02546843 116.97446,1.92146843 C117.10746,1.87646843 117.24546,1.82846843 117.38546,1.81346843 C117.48646,1.80246843 117.59746,1.79846843 117.68646,1.85446843 C117.85346,1.95846843 117.89446,2.15846843 117.80846,2.32546843 C117.77946,2.38846843 117.71946,2.43346843 117.66446,2.47046843 C117.56446,2.53346843 117.44546,2.57446843 117.33446,2.62546843 C116.99646,2.80046843 116.65846,2.98546843 116.33646,3.19346843 C116.17646,3.30446843 116.02446,3.42346843 115.87546,3.55046843 C115.63446,3.76246843 115.40146,3.98446843 115.18646,4.22846843 C115.19046,4.22846843 115.19046,4.22846843 115.19046,4.22846843 C114.98646,4.46246843 114.81146,4.71746843 114.63746,4.97346843 C114.52946,5.13746843 114.43346,5.30046843 114.34446,5.46746843 C114.24846,5.66746843 114.16246,5.86746843 114.08446,6.07946843 C114.02146,6.26446843 113.96946,6.45346843 113.92546,6.64346843 C113.89246,6.81346843 113.86946,6.98346843 113.85846,7.15346843 C113.85546,7.24646843 113.85846,7.34046843 113.86246,7.43646843 C113.86246,7.43646843 113.86246,7.43246843 113.85846,7.43246843 C113.86246,7.43646843 113.86246,7.44046843 113.86246,7.44446843 C113.86246,7.45446843 113.86246,7.46446843 113.86246,7.47346843 C113.88246,7.68246843 113.91246,7.89046843 113.95146,8.09546843 C113.99046,8.30046843 114.04446,8.50146843 114.11346,8.70046843 C114.18246,8.89146843 114.25846,9.08146843 114.34746,9.26446843 C114.43646,9.43246843 114.52646,9.59346843 114.63046,9.75546843 C114.63046,9.75546843 114.63046,9.75546843 114.62646,9.75546843 C114.74846,9.93346843 114.88246,10.1074684 115.01946,10.2704684 C115.01946,10.2664684 115.01946,10.2634684 115.01946,10.2634684 C115.13046,10.3854684 115.24946,10.5044684 115.36446,10.6194684 C115.48346,10.7194684 115.60146,10.8124684 115.72746,10.9014684 C115.88046,10.9974684 116.03546,11.0864684 116.19946,11.1644684 C116.19546,11.1644684 116.19546,11.1644684 116.19546,11.1644684 C116.40646,11.2724684 116.62946,11.3574684 116.85546,11.4424684 L116.85546,11.4394684 C116.85946,11.4424684 116.86646,11.4424684 116.87046,11.4464684 C116.88146,11.4504684 116.88846,11.4534684 116.90046,11.4534684 L116.89646,11.4534684 C117.07446,11.5164684 117.25946,11.5654684 117.42646,11.6544684 C117.60846,11.7504684 117.67946,11.9914684 117.60146,12.1774684 C117.53046,12.3404684 117.37846,12.4294684 117.20746,12.4294684 C117.19346,12.4294684 117.17846,12.4294684 117.15946,12.4254684 C117.11746,12.4224684 117.07546,12.4124684 117.03346,12.4034684 C116.90546,12.3774684 116.77646,12.3424684 116.65146,12.3034684 C116.23646,12.1734684 115.82446,12.0214684 115.44246,11.8094684 C115.05646,11.5984684 114.71546,11.3204684 114.41446,11.0014684 C113.89546,10.4524684 113.48746,9.81846843 113.22046,9.11346843 C113.05346,8.67946843 112.93446,8.21546843 112.87946,7.75246843 C112.82046,7.26946843 112.85346,6.80246843 112.95346,6.32746843" id="Fill-75"></path>
            </g>
        </g>
    </g>
</svg>