<?xml version="1.0" encoding="UTF-8"?>
<svg width="16px" height="17px" viewBox="0 0 16 17" version="1.1" xmlns="http://www.w3.org/2000/svg" xmlns:xlink="http://www.w3.org/1999/xlink">
    <title>facebook</title>
    <g id="Page-1" stroke="none" stroke-width="1" fill="none" fill-rule="evenodd">
        <g id="1.1_login" transform="translate(-60.000000, -264.000000)" fill="#475993">
            <g id="Facebook" transform="translate(30.000000, 252.000000)">
                <g id="facebook" transform="translate(30.000000, 12.000000)">
                    <path d="M13.8439131,0.195121951 L2.1560478,0.195121951 C0.965319178,0.195121951 0,1.1603949 0,2.35115393 L0,14.0390117 C0,15.2297707 0.965280037,16.195122 2.1560478,16.195122 L7.92044718,16.195122 L7.93027141,10.4775373 L6.44485487,10.4775373 C6.25181452,10.4775373 6.09513558,10.3214466 6.09439192,10.1284077 L6.08726837,8.28541814 C6.0865247,8.09132243 6.24367332,7.93358786 6.43777047,7.93358786 L7.92048632,7.93358786 L7.92048632,6.15279194 C7.92048632,4.08619507 9.18264613,2.96091742 11.0261971,2.96091742 L12.5389728,2.96091742 C12.732522,2.96091742 12.8894749,3.11783005 12.8894749,3.31141695 L12.8894749,4.86543517 C12.8894749,5.05894379 12.7326394,5.21581727 12.5391685,5.2159347 L11.6107979,5.21636524 C10.608217,5.21636524 10.4140808,5.69277844 10.4140808,6.3919379 L10.4140808,7.933627 L12.617097,7.933627 C12.8270069,7.933627 12.98987,8.11692005 12.9651333,8.32538018 L12.7466908,10.1683697 C12.7257898,10.344735 12.5762345,10.4776156 12.3986545,10.4776156 L10.423905,10.4776156 L10.4140808,16.195122 L13.8439913,16.195122 C15.03472,16.195122 16,15.229849 16,14.0391291 L16,2.35115393 C16,1.1603949 15.0346808,0.195121951 13.8439131,0.195121951 Z" id="Path"></path>
                </g>
            </g>
        </g>
    </g>
</svg>