<?xml version="1.0" encoding="UTF-8"?>
<svg width="16px" height="16px" viewBox="0 0 16 16" version="1.1" xmlns="http://www.w3.org/2000/svg" xmlns:xlink="http://www.w3.org/1999/xlink">
    <title>Google</title>
    <g id="Page-1" stroke="none" stroke-width="1" fill="none" fill-rule="evenodd">
        <g id="1.1_login" transform="translate(-238.000000, -265.000000)">
            <g id="Google" transform="translate(200.000000, 252.000000)">
                <g transform="translate(38.000000, 13.000000)" id="Path">
                    <path d="M3.49090909,9.63311897 L2.94261455,11.7382177 L0.938610606,11.7818182 C0.339707572,10.6393784 0,9.3322821 0,7.94326877 C0,6.60010237 0.317618273,5.33347409 0.880618505,4.21818182 L0.881049216,4.21818182 L2.66517542,4.5545825 L3.44673049,6.37846141 C3.28315278,6.86891917 3.19399569,7.39541534 3.19399569,7.94326877 C3.19405722,8.53785507 3.29878142,9.10754038 3.49090909,9.63311897 Z" fill="#FBBB00"></path>
                    <path d="M15.8596753,6.54545455 C15.9519075,7.01878165 16,7.50760513 16,8.00718744 C16,8.56737982 15.9395471,9.11381803 15.8243823,9.64090869 C15.4334307,11.4345452 14.4118805,13.0007487 12.9967435,14.1090909 L12.9963043,14.108663 L10.7048043,13.9947478 L10.3804858,12.0222459 C11.3194975,11.4857107 12.0533397,10.646064 12.4398993,9.64090869 L8.14545455,9.64090869 L8.14545455,6.54545455 L12.5025482,6.54545455 L15.8596753,6.54545455 L15.8596753,6.54545455 Z" fill="#518EF8"></path>
                    <path d="M12.7995671,14.0735858 L12.8,14.0740281 C11.4435501,15.1880124 9.72043123,15.8545455 7.84469585,15.8545455 C4.83036628,15.8545455 2.20963628,14.1331343 0.872727273,11.5998727 L3.43780297,9.45454545 C4.10624202,11.2772681 5.82716569,12.5747946 7.84469585,12.5747946 C8.71188258,12.5747946 9.52431166,12.3352736 10.2214436,11.9171386 L12.7995671,14.0735858 Z" fill="#28B446"></path>
                    <path d="M13.0909091,1.97165332 L10.4979144,4.07548786 C9.76831903,3.62352411 8.90587385,3.36243495 7.98189691,3.36243495 C5.89553871,3.36243495 4.12274863,4.69350629 3.4806672,6.54545455 L0.873164999,4.42984528 L0.872727273,4.42984528 C2.20485239,1.88448933 4.88842511,0.145454545 7.98189691,0.145454545 C9.92399313,0.145454545 11.7046935,0.83105374 13.0909091,1.97165332 Z" fill="#F14336"></path>
                </g>
            </g>
        </g>
    </g>
</svg>