<?xml version="1.0" encoding="UTF-8"?>
<svg width="512px" height="512px" viewBox="0 0 512 512" version="1.1" xmlns="http://www.w3.org/2000/svg" xmlns:xlink="http://www.w3.org/1999/xlink">
    <title>star</title>
    <defs>
        <linearGradient x1="50%" y1="100%" x2="50%" y2="0%" id="linearGradient-1">
            <stop stop-color="#0073B6" offset="0%"></stop>
            <stop stop-color="#64D2FF" offset="100%"></stop>
        </linearGradient>
        <linearGradient x1="50.0001282%" y1="100.000003%" x2="50.0001282%" y2="0%" id="linearGradient-2">
            <stop stop-color="#FFE59A" offset="0%"></stop>
            <stop stop-color="#FFFFD5" offset="100%"></stop>
        </linearGradient>
    </defs>
    <g id="Page-1" stroke="none" stroke-width="1" fill="none" fill-rule="evenodd">
        <g id="star" fill-rule="nonzero">
            <circle id="Oval" fill="url(#linearGradient-1)" cx="256" cy="256" r="256"></circle>
            <path d="M412.924,205.012 C411.159,199.582 406.466,195.624 400.816,194.803 L310.045,181.613 L269.451,99.361 C266.924,94.241 261.709,91 256,91 C250.291,91 245.076,94.241 242.549,99.362 L201.955,181.614 L111.184,194.804 C105.534,195.625 100.839,199.583 99.075,205.013 C97.311,210.443 98.783,216.404 102.871,220.389 L168.554,284.413 L153.048,374.817 C152.083,380.444 154.396,386.132 159.015,389.488 C163.635,392.844 169.758,393.287 174.812,390.63 L256,347.947 L337.188,390.63 C342.28,393.306 348.4,392.819 352.985,389.488 C357.604,386.132 359.918,380.445 358.953,374.817 L343.447,284.413 L409.129,220.389 C413.217,216.403 414.688,210.442 412.924,205.012 Z" id="Path" fill="url(#linearGradient-2)"></path>
        </g>
    </g>
</svg>