<?xml version="1.0" encoding="UTF-8"?>
<svg width="74px" height="74px" viewBox="0 0 74 74" version="1.1" xmlns="http://www.w3.org/2000/svg" xmlns:xlink="http://www.w3.org/1999/xlink">
    <title>hbon_coin</title>
    <g id="Page-1" stroke="none" stroke-width="1" fill="none" fill-rule="evenodd">
        <g id="hbon_coin" fill-rule="nonzero">
            <circle id="Oval" fill="#FFC200" cx="37.410988" cy="37.114644" r="36.5695356"></circle>
            <path d="M37.42,12.05 C53.41,12.05 66.54,24.29 67.95,39.91 C68.03,38.99 68.08,38.06 68.08,37.11 C68.08,20.18 54.35,6.45 37.42,6.45 C20.49,6.45 6.76,20.18 6.76,37.11 C6.76,38.05 6.81,38.98 6.89,39.91 C8.31,24.29 21.43,12.05 37.42,12.05 Z" id="Path" fill="#FFA100"></path>
            <path d="M37.42,7.08 C53.99,7.08 67.46,20.56 67.46,37.12 C67.46,53.68 53.98,67.16 37.42,67.16 C20.85,67.16 7.38,53.68 7.38,37.12 C7.38,20.56 20.86,7.08 37.42,7.08 M37.42,0.55 C17.22,0.55 0.85,16.92 0.85,37.12 C0.85,57.32 17.22,73.69 37.42,73.69 C57.62,73.69 73.99,57.32 73.99,37.12 C73.99,16.93 57.62,0.55 37.42,0.55 L37.42,0.55 Z" id="Shape" fill="#FFE450"></path>
            <path d="M37.42,7.08 L37.42,0.56 C17.22,0.56 0.85,16.93 0.85,37.13 L7.37,37.13 C7.38,20.55 20.86,7.08 37.42,7.08 Z" id="Path" fill="#FAF582"></path>
            <path d="M37.42,0.55 C17.22,0.55 0.85,16.92 0.85,37.12 C0.85,42.13 1.86,46.91 3.69,51.26 C6.27,51.87 8.96,52.2 11.73,52.2 C31.05,52.2 46.72,36.54 46.72,17.21 C46.72,11.33 45.26,5.8 42.7,0.93 C40.98,0.69 39.22,0.55 37.42,0.55 L37.42,0.55 Z" id="Path" fill="#FFFFFF" opacity="0.2"></path>
            <g id="Path" transform="translate(25.000000, 23.000000)">
                <polygon fill="#C97800" points="24.35 29.63 18.58 29.63 18.58 17.62 7.32 17.62 7.32 29.63 1.55 29.63 1.55 1.61 7.32 1.61 7.32 12.96 18.58 12.96 18.58 1.61 24.35 1.61"></polygon>
                <polygon fill="#FFE450" points="23.19 28.47 17.42 28.47 17.42 16.46 6.16 16.46 6.16 28.47 0.39 28.47 0.39 0.45 6.16 0.45 6.16 11.8 17.42 11.8 17.42 0.45 23.19 0.45"></polygon>
            </g>
        </g>
    </g>
</svg>