<?xml version="1.0" encoding="UTF-8"?>
<svg width="124px" height="100px" viewBox="0 0 124 100" version="1.1" xmlns="http://www.w3.org/2000/svg" xmlns:xlink="http://www.w3.org/1999/xlink">
    <title>icon_assignment_image</title>
    <g id="Page-1" stroke="none" stroke-width="1" fill="none" fill-rule="evenodd">
        <g id="icon_assignment_image" transform="translate(2.000000, 1.000000)">
            <path d="M111.91,19.24 L109.35,19.24 L109.35,18.15 C109.35,16.2280491 107.791951,14.67 105.87,14.67 L99.54,14.67 C97.6180491,14.67 96.06,16.2280491 96.06,18.15 L96.06,19.24 L94.34,19.24 C91.925451,19.2829321 89.5949458,18.3537074 87.8723538,16.6612043 C86.1497618,14.9687013 85.1796184,12.6549306 85.18,10.24 C85.2202752,7.78126026 84.2702616,5.40958248 82.5437049,3.6585756 C80.8171482,1.90756873 78.459063,0.924301012 76,0.93 L44,0.93 C41.585451,0.88706787 39.2549458,1.81629259 37.5323538,3.50879566 C35.8097618,5.20129873 34.8396184,7.51506942 34.84,9.93 C34.8856388,12.3887028 33.9407557,14.7624974 32.217951,16.5172756 C30.4951462,18.2720537 28.1391264,19.2604235 25.68,19.26 L8.09,19.26 C6.03905876,19.2599931 4.07240953,20.0760928 2.6240524,21.5282021 C1.17569526,22.9803115 0.364686681,24.9490656 0.369974056,27 L0.369974056,89.39 C0.369974056,91.4374713 1.18335481,93.4010835 2.63113565,94.8488644 C4.07891649,96.2966452 6.0425287,97.11 8.09,97.11 L111.91,97.11 C116.173638,97.11 119.630104,93.6536383 119.630104,89.39 L119.630104,27 C119.640645,24.945607 118.831991,22.971703 117.383055,21.5152594 C115.934119,20.0588158 113.964421,19.2399724 111.91,19.24 Z" id="Path" stroke="#231F20" stroke-width="3.31" fill="#FFFFFF" fill-rule="nonzero" stroke-linecap="round" stroke-linejoin="round"></path>
            <circle id="Oval" fill="#41BEEE" fill-rule="nonzero" cx="60" cy="54.05" r="33.53"></circle>
            <circle id="Oval" stroke="#231F20" stroke-width="3.31" stroke-linecap="round" stroke-linejoin="round" cx="60" cy="54.05" r="33.53"></circle>
            <circle id="Oval" stroke="#231F20" stroke-width="3.31" fill="#FFFFFF" fill-rule="nonzero" stroke-linecap="round" stroke-linejoin="round" transform="translate(59.997974, 54.050889) rotate(-45.000000) translate(-59.997974, -54.050889) " cx="59.9979742" cy="54.0508892" r="20.86"></circle>
            <circle id="Oval" fill="#41BEEE" fill-rule="nonzero" cx="102.7" cy="32.86" r="6.33"></circle>
            <circle id="Oval" stroke="#231F20" stroke-width="3.31" stroke-linecap="round" stroke-linejoin="round" cx="102.7" cy="32.86" r="6.33"></circle>
            <path d="M71.33,42.88 C75.74,47.3 75.52,54.69 74.57,55.63 C73.62,56.57 72.31,50.73 67.89,46.32 C63.47,41.91 57.62,40.59 58.57,39.64 C59.52,38.69 66.91,38.46 71.33,42.88 Z" id="Path" stroke="#231F20" stroke-width="3.31" fill="#FFFFFF" fill-rule="nonzero" stroke-linecap="round" stroke-linejoin="round"></path>
        </g>
    </g>
</svg>