<svg id="bold" enable-background="new 0 0 24 24" height="512" viewBox="0 0 24 24" width="512" xmlns="http://www.w3.org/2000/svg"><path d="m15.25 0h-12.5c-1.52 0-2.75 1.23-2.75 2.75v16.5c0 1.52 1.23 2.75 2.75 2.75h10.4c-.1-.48-.15-.99-.15-1.5v-5.25c0-.08 0-.17.01-.25h-9.01c-.55 0-1-.45-1-1s.45-1 1-1h9.42c.75-1.96 2.48-3.45 4.58-3.87v-6.38c0-1.52-1.23-2.75-2.75-2.75zm-11.25 5h5c.55 0 1 .45 1 1s-.45 1-1 1h-5c-.55 0-1-.45-1-1s.45-1 1-1zm10 6h-10c-.55 0-1-.45-1-1s.45-1 1-1h10c.55 0 1 .45 1 1s-.45 1-1 1z"/><path d="m20.5 24c-1.93 0-3.5-1.57-3.5-3.5v-5.25c0-1.241 1.01-2.25 2.25-2.25s2.25 1.009 2.25 2.25v5c0 .414-.336.75-.75.75s-.75-.336-.75-.75v-5c0-.414-.337-.75-.75-.75s-.75.336-.75.75v5.25c0 1.103.897 2 2 2s2-.897 2-2v-6.75c0-.414.336-.75.75-.75s.75.336.75.75v6.75c0 1.93-1.57 3.5-3.5 3.5z"/></svg>