<svg id="bold" enable-background="new 0 0 32 32" height="512" viewBox="0 0 32 32" width="512" xmlns="http://www.w3.org/2000/svg"><path d="m26 32h-20c-3.314 0-6-2.686-6-6v-20c0-3.314 2.686-6 6-6h20c3.314 0 6 2.686 6 6v20c0 3.314-2.686 6-6 6z" fill="#fff9dd"/><path d="m22.167 8h-12.334c-1.011 0-1.833.822-1.833 1.833v9c0 1.011.822 1.833 1.833 1.833h.833v2.834c0 .202.122.384.309.462.062.026.127.038.192.038.13 0 .258-.051.354-.146l3.187-3.187h7.46c1.011 0 1.833-.822 1.833-1.833v-9c-.001-1.012-.823-1.834-1.834-1.834zm-4.807 9.26c0 .407-.333.74-.747.74h-1.227c-.36 0-.747-.267-.747-.86v-.36h2.72v.48zm.54-1.973c-.28.227-.46.52-.52.827h-2.753c-.047-.3-.213-.58-.487-.793-.74-.58-1.16-1.453-1.14-2.4.033-1.587 1.36-2.9 2.953-2.92.807-.02 1.58.293 2.16.867.574.559.887 1.312.887 2.112 0 .9-.4 1.74-1.1 2.307z" fill="#ffd200"/></svg>