<svg id="bold" enable-background="new 0 0 32 32" height="512" viewBox="0 0 32 32" width="512" xmlns="http://www.w3.org/2000/svg"><path d="m26 32h-20c-3.314 0-6-2.686-6-6v-20c0-3.314 2.686-6 6-6h20c3.314 0 6 2.686 6 6v20c0 3.314-2.686 6-6 6z" fill="#e3f8fa"/><path d="m22.167 8h-12.334c-1.011 0-1.833.822-1.833 1.833v9c0 1.011.822 1.833 1.833 1.833h.833v2.834c0 .202.122.384.309.462.062.026.127.038.192.038.13 0 .258-.051.354-.146l3.187-3.187h7.46c1.011 0 1.833-.822 1.833-1.833v-9c-.001-1.012-.823-1.834-1.834-1.834zm-1.5 5.333c-.009 0-.017-.002-.025-.003l-1.028 2.399c.238.242.386.573.386.938 0 .735-.598 1.333-1.333 1.333s-1.333-.598-1.333-1.333c0-.092.009-.181.027-.268l-1.943-1.299c-.214.147-.473.233-.751.233-.236 0-.454-.067-.647-.175l-1.415 1.129c.036.121.061.246.061.379 0 .735-.598 1.333-1.333 1.333s-1.333-.597-1.333-1.332.598-1.333 1.333-1.333c.236 0 .454.067.647.175l1.415-1.129c-.036-.121-.061-.246-.061-.379 0-.735.598-1.333 1.333-1.333s1.333.597 1.333 1.332c0 .092-.009.181-.027.268l1.942 1.299c.214-.147.473-.233.751-.233.01 0 .018.003.028.003l1.027-2.397c-.24-.241-.388-.573-.388-.939 0-.735.598-1.333 1.333-1.333.736-.001 1.334.597 1.334 1.332s-.598 1.333-1.333 1.333z" fill="#26c6da"/></svg>