<?xml version="1.0" encoding="UTF-8"?>
<svg width="512px" height="512px" viewBox="0 0 512 512" version="1.1" xmlns="http://www.w3.org/2000/svg" xmlns:xlink="http://www.w3.org/1999/xlink">
    <title>icon_internet</title>
    <g id="Page-1" stroke="none" stroke-width="1" fill="none" fill-rule="evenodd">
        <g id="icon_internet" fill-rule="nonzero">
            <path d="M416,512 L96,512 C42.976,512 0,469.024 0,416 L0,96 C0,42.976 42.976,0 96,0 L416,0 C469.024,0 512,42.976 512,96 L512,416 C512,469.024 469.024,512 416,512 Z" id="Path" fill="#E3F8FA"></path>
            <g id="Group" transform="translate(111.000000, 111.000000)" fill="#26C6DA">
                <path d="M145,290 C65.0325,290 0,224.943333 0,145 C0,65.0566667 65.0325,0 145,0 C224.9675,0 290,65.0566667 290,145 C290,224.943333 224.9675,290 145,290 Z M145,32.2141667 C82.8191667,32.2141667 32.2141667,82.795 32.2141667,145 C32.2141667,207.205 82.8191667,257.785833 145,257.785833 C207.180833,257.785833 257.785833,207.205 257.785833,145 C257.785833,82.795 207.180833,32.2141667 145,32.2141667 Z" id="Shape"></path>
                <path d="M144.834323,290 C140.567012,290 136.275456,288.308437 133.099219,284.973641 C59.6335935,207.790026 59.6335935,82.2035368 133.099219,5.01992208 C139.233478,-1.43218348 149.48957,-1.69800056 155.963274,4.41579234 C162.436978,10.5537504 162.703685,20.7272951 156.569426,27.2035659 C94.741919,92.1595948 94.741919,197.833968 156.569426,262.789997 C162.703685,269.242102 162.436978,279.439812 155.963274,285.57777 C152.83553,288.525923 148.834926,290 144.834323,290 L144.834323,290 Z" id="Path"></path>
                <path d="M145.165677,290 C141.165074,290 137.16447,288.525923 134.036726,285.57777 C127.563022,279.439812 127.296315,269.266268 133.430574,262.789997 C195.258081,197.833968 195.258081,92.1595948 133.430574,27.2035659 C127.296315,20.7514603 127.563022,10.5537504 134.036726,4.41579234 C140.534676,-1.69800056 150.766522,-1.43218348 156.900781,5.01992208 C230.366406,82.2035368 230.366406,207.790026 156.900781,284.973641 C153.724544,288.308437 149.432988,290 145.165677,290 Z" id="Path"></path>
                <path d="M269.8425,126 L21.1575,126 C12.2430172,126 5,118.827586 5,110 C5,101.172414 12.2187931,94 21.1575,94 L269.8425,94 C278.756983,94 286,101.172414 286,110 C286,118.827586 278.756983,126 269.8425,126 Z" id="Path"></path>
                <path d="M269.8425,197 L21.1575,197 C12.2430172,197 5,189.827586 5,181 C5,172.172414 12.2187931,165 21.1575,165 L269.8425,165 C278.756983,165 286,172.172414 286,181 C286,189.851574 278.756983,197 269.8425,197 Z" id="Path"></path>
            </g>
        </g>
    </g>
</svg>