<?xml version="1.0" encoding="UTF-8"?>
<svg width="625px" height="553px" viewBox="0 0 625 553" version="1.1" xmlns="http://www.w3.org/2000/svg" xmlns:xlink="http://www.w3.org/1999/xlink">
    <title>icon_report</title>
    <g id="Page-1" stroke="none" stroke-width="1" fill="none" fill-rule="evenodd">
        <g id="icon_report" fill-rule="nonzero">
            <g id="report" transform="translate(119.000000, 73.000000)">
                <path d="M304,416 C171.453125,416 64,308.546875 64,176 L64,8 L40,8 C22.328125,8 8,22.328125 8,40 L8,440 C8,457.671875 22.328125,472 40,472 L344,472 C361.671875,472 376,457.671875 376,440 L376,416 L304,416 Z" id="Path" fill-opacity="0.5" fill="#ABB4BD"></path>
                <path d="M128,72 C83.816406,72 48,107.816406 48,152 C48,196.183594 83.816406,232 128,232 C172.183594,232 208,196.183594 208,152 L128,152 L128,72 Z" id="Path" fill="#A8DBA8"></path>
                <path d="M160,40 L160,120 L240,120 C240,75.816406 204.183594,40 160,40 Z" id="Path" fill="#79BD9A"></path>
                <polygon id="Path" fill="#79BD9A" points="296 64 328 64 328 96 296 96"></polygon>
                <polygon id="Path" fill="#A8DBA8" points="296 168 328 168 328 200 296 200"></polygon>
                <path d="M320,232 C271.398438,232 232,271.398438 232,320 C232,368.601562 271.398438,408 320,408 C368.601562,408 408,368.601562 408,320 C408,271.398438 368.601562,232 320,232 Z M320,392 C280.234375,392 248,359.765625 248,320 C248,280.234375 280.234375,248 320,248 C359.765625,248 392,280.234375 392,320 C392,359.765625 359.765625,392 320,392 Z" id="Shape" fill="#ABB4BD"></path>
                <g id="Group" fill="#ABB4BD">
                    <path d="M472.960938,439.039062 L402.640625,368.71875 C425.730469,329.371094 417.9375,279.210938 384,248.71875 L384,40 C384,17.910156 366.089844,0 344,0 L40,0 C17.910156,0 0,17.910156 0,40 L0,440 C0,462.089844 17.910156,480 40,480 L344,480 C366.089844,480 384,462.089844 384,440 L384,417.921875 L439.039062,472.960938 C448.410156,482.320312 463.589844,482.320312 472.960938,472.960938 C482.320312,463.589844 482.320312,448.410156 472.960938,439.039062 Z M400.000285,320 C400.03125,336.472656 394.945312,352.546875 385.441406,366 L384,368 C360.457031,399.390625 317.625,409.070312 282.871094,390.863281 C248.117188,372.652344 231.699219,331.925781 244.105469,294.703125 C256.511719,257.480469 294.085938,234.746094 332.816406,241.03125 C371.542969,247.316406 400.000285,280.761719 400.000285,320 L400.000285,320 Z M344,464 L40,464 C26.746094,464 16,453.253906 16,440 L16,40 C16,26.746094 26.746094,16 40,16 L344,16 C357.253906,16 368,26.746094 368,40 L368,236.878906 C327.65625,213.566406 276.390625,222.589844 246.4375,258.28125 C216.480469,293.976562 216.480469,346.023438 246.4375,381.71875 C276.390625,417.410156 327.65625,426.433594 368,403.121094 L368,440 C368,453.253906 357.253906,464 344,464 Z" id="Shape"></path>
                    <path d="M326.160156,266.878906 C324.640625,265.046875 322.382812,263.984375 320,263.984375 C317.617188,263.984375 315.359375,265.046875 313.839844,266.878906 L273.839844,314.878906 C271.851562,317.265625 271.425781,320.589844 272.746094,323.398438 C274.066406,326.210938 276.894531,328.003906 280,328 L296,328 L296,352 C296,356.417969 299.582031,360 304,360 C308.417969,360 312,356.417969 312,352 L312,320 C312,315.582031 308.417969,312 304,312 L297.039062,312 L320,284.480469 L342.960938,312 L336,312 C331.582031,312 328,315.582031 328,320 L328,352 C328,356.417969 331.582031,360 336,360 C340.417969,360 344,356.417969 344,352 L344,328 L360,328 C363.105469,328.003906 365.933594,326.210938 367.253906,323.398438 C368.574219,320.589844 368.148438,317.265625 366.160156,314.878906 L326.160156,266.878906 Z" id="Path"></path>
                    <path d="M160,128 L240,128 C244.417969,128 248,124.417969 248,120 C247.996094,109.054688 245.960938,98.203125 242,88 L264,88 C268.417969,88 272,84.417969 272,80 C272,75.582031 268.417969,72 264,72 L233.679688,72 C217.457031,47.074219 189.742188,32.027344 160,32 C155.582031,32 152,35.582031 152,40 L152,120 C152,124.417969 155.582031,128 160,128 Z" id="Shape"></path>
                    <path d="M296,104 L328,104 C332.417969,104 336,100.417969 336,96 L336,64 C336,59.582031 332.417969,56 328,56 L296,56 C291.582031,56 288,59.582031 288,64 L288,96 C288,100.417969 291.582031,104 296,104 Z" id="Shape"></path>
                    <path d="M296,208 L328,208 C332.417969,208 336,204.417969 336,200 L336,168 C336,163.582031 332.417969,160 328,160 L296,160 C291.582031,160 288,163.582031 288,168 L288,200 C288,204.417969 291.582031,208 296,208 Z" id="Shape"></path>
                    <path d="M264,192 C268.417969,192 272,188.417969 272,184 C272,179.582031 268.417969,176 264,176 L212.640625,176 C214.863281,168.191406 215.992188,160.117188 216,152 C216,147.582031 212.417969,144 208,144 L136,144 L136,72 C136,67.582031 132.417969,64 128,64 C84.722656,64.007812 47.875,95.480469 41.101562,138.226562 C34.328125,180.96875 59.636719,222.296875 100.792969,235.683594 C141.949219,249.070312 186.726562,230.546875 206.398438,192 L264,192 Z" id="Shape"></path>
                    <path d="M104,360 L72,360 C67.582031,360 64,363.582031 64,368 L64,432 C64,436.417969 67.582031,440 72,440 L104,440 C108.417969,440 112,436.417969 112,432 L112,368 C112,363.582031 108.417969,360 104,360 Z" id="Shape"></path>
                    <path d="M168,328 L136,328 C131.582031,328 128,331.582031 128,336 L128,432 C128,436.417969 131.582031,440 136,440 L168,440 C172.417969,440 176,436.417969 176,432 L176,336 C176,331.582031 172.417969,328 168,328 Z" id="Shape"></path>
                    <path d="M152,294.398438 L152,304 C152,308.417969 155.582031,312 160,312 C164.417969,312 168,308.417969 168,304 L168,272 C168,267.582031 164.417969,264 160,264 L128,264 C123.582031,264 120,267.582031 120,272 C120,276.417969 123.582031,280 128,280 L144,280 C121.96875,304.265625 89.460938,316.214844 56.960938,312 C52.542969,311.46875 48.53125,314.621094 48,319.039062 C47.46875,323.457031 50.621094,327.46875 55.039062,328 C59.839844,328.636719 64.675781,328.957031 69.519531,328.960938 C100.527344,328.917969 130.226562,316.472656 152,294.398438 Z" id="Path"></path>
                </g>
            </g>
            <g id="close" opacity="0.895972842" transform="translate(11.000000, 303.000000)" fill="#ABB4BD">
                <path d="M0,36.8272696 L31.5930879,3.57037693 C31.5930879,3.57037693 35.731466,-0.926557383 45.0571493,0.173213212 C45.0571493,0.173213212 46.6560199,1.44741551 47,3.90647703 L15.2434154,37.9270401 C15.2434154,37.9270401 12.6189745,41.2412424 1.52455387,40.9859765 C1.52243054,40.9859765 0.424666817,40.4754447 0,36.8272696 Z" id="Path"></path>
                <path d="M0,4.17656688 L31.5930879,37.429995 C31.5930879,37.429995 35.731466,41.9264609 45.0571493,40.8268048 C45.0571493,40.8268048 46.6560199,39.5548623 47,37.0875489 L15.2434154,3.06840288 C15.2434154,3.06840288 12.6189745,-0.241200179 1.52455387,0.0140391316 C1.52243054,0.0161661259 0.424666817,0.526644746 0,4.17656688 Z" id="Path"></path>
            </g>
            <g id="close" opacity="0.50453404" transform="translate(58.000000, 193.000000)" fill="#ABB4BD">
                <path d="M0,22.4556522 L19.4936074,2.1770591 C19.4936074,2.1770591 22.0470748,-0.564974014 27.8012198,0.105617812 C27.8012198,0.105617812 28.7877569,0.882570431 29,2.38199819 L9.40551163,23.126244 C9.40551163,23.126244 7.78617574,25.1470991 0.940682178,24.9914491 C0.939372035,24.9914491 0.262028462,24.6801492 0,22.4556522 Z" id="Path"></path>
                <path d="M0,2.54668712 L19.4936074,22.8231677 C19.4936074,22.8231677 22.0470748,25.5649152 27.8012198,24.8943932 C27.8012198,24.8943932 28.7877569,24.1188185 29,22.6143591 L9.40551163,1.87097736 C9.40551163,1.87097736 7.78617574,-0.14707328 0.940682178,0.00856044611 C0.939372035,0.00985739383 0.262028462,0.321124845 0,2.54668712 Z" id="Path"></path>
            </g>
            <g id="close" opacity="0.497465588" transform="translate(370.000000, 0.000000)" fill="#ABB4BD">
                <path d="M0,22.4556522 L19.4936074,2.1770591 C19.4936074,2.1770591 22.0470748,-0.564974014 27.8012198,0.105617812 C27.8012198,0.105617812 28.7877569,0.882570431 29,2.38199819 L9.40551163,23.126244 C9.40551163,23.126244 7.78617574,25.1470991 0.940682178,24.9914491 C0.939372035,24.9914491 0.262028462,24.6801492 0,22.4556522 Z" id="Path"></path>
                <path d="M0,2.54668712 L19.4936074,22.8231677 C19.4936074,22.8231677 22.0470748,25.5649152 27.8012198,24.8943932 C27.8012198,24.8943932 28.7877569,24.1188185 29,22.6143591 L9.40551163,1.87097736 C9.40551163,1.87097736 7.78617574,-0.14707328 0.940682178,0.00856044611 C0.939372035,0.00985739383 0.262028462,0.321124845 0,2.54668712 Z" id="Path"></path>
            </g>
            <g id="circle" transform="translate(0.000000, 84.000000)" fill="#ABB4BD" opacity="0.496861049">
                <path d="M14.5,0 C6.5047,0 0,6.5047 0,14.5 C0,22.4953 6.5047,29 14.5,29 C22.4953,29 29,22.4953 29,14.5 C29,6.5047 22.4953,0 14.5,0 Z M14.0166667,22.2333333 C10.0190606,22.2333333 6.76666667,18.9810273 6.76666667,14.9833333 C6.76666667,10.9856394 10.0190606,7.73333333 14.0166667,7.73333333 C18.0142727,7.73333333 21.2666667,10.9856394 21.2666667,14.9833333 C21.2666667,18.9810273 18.0142727,22.2333333 14.0166667,22.2333333 Z" id="XMLID_29_"></path>
            </g>
            <g id="circle" transform="translate(551.000000, 44.000000)" fill="#ABB4BD" opacity="0.496861049">
                <path d="M14.5,0 C6.5047,0 0,6.5047 0,14.5 C0,22.4953 6.5047,29 14.5,29 C22.4953,29 29,22.4953 29,14.5 C29,6.5047 22.4953,0 14.5,0 Z M14.0166667,22.2333333 C10.0190606,22.2333333 6.76666667,18.9810273 6.76666667,14.9833333 C6.76666667,10.9856394 10.0190606,7.73333333 14.0166667,7.73333333 C18.0142727,7.73333333 21.2666667,10.9856394 21.2666667,14.9833333 C21.2666667,18.9810273 18.0142727,22.2333333 14.0166667,22.2333333 Z" id="XMLID_29_"></path>
            </g>
            <g id="circle" transform="translate(527.000000, 196.000000)" fill="#ABB4BD" opacity="0.902250744">
                <path d="M20.5,0 C9.1963,0 0,9.1963 0,20.5 C0,31.8037 9.1963,41 20.5,41 C31.8037,41 41,31.8037 41,20.5 C41,9.1963 31.8037,0 20.5,0 Z M19.8166667,31.4333333 C14.1648788,31.4333333 9.56666667,26.8352455 9.56666667,21.1833333 C9.56666667,15.5314212 14.1648788,10.9333333 19.8166667,10.9333333 C25.4684545,10.9333333 30.0666667,15.5314212 30.0666667,21.1833333 C30.0666667,26.8352455 25.4684545,31.4333333 19.8166667,31.4333333 Z" id="XMLID_29_"></path>
            </g>
            <g id="geometry" transform="translate(581.000000, 354.000000)" fill="#ABB4BD" opacity="0.500511533">
                <path d="M39.9569564,37 L44,29.8221607 L26.0430436,0 L17.9569564,0 L0,29.8221607 L4.04304358,37 L39.9569564,37 Z M22.4998961,12 L32,28 L13,28 L22.4998961,12 Z" id="Shape"></path>
            </g>
        </g>
    </g>
</svg>