<?xml version="1.0" encoding="UTF-8"?>
<svg width="316px" height="318px" viewBox="0 0 316 318" version="1.1" xmlns="http://www.w3.org/2000/svg" xmlns:xlink="http://www.w3.org/1999/xlink">
    <title>deals</title>
    <g id="Page-1" stroke="none" stroke-width="1" fill="none" fill-rule="evenodd">
        <g id="deals" fill-rule="nonzero">
            <path d="M143.557333,265.312 C129.861333,265.312 116.037333,262.432 102.938667,256.693333 C75.3333333,244.576 54.512,221.450667 45.808,193.226667 C32.304,149.429333 45.8933333,104.48 81.2426667,75.936 C95.3866667,64.5013333 117.082667,49.696 143.130667,52.2986667 C150.746667,53.088 157.552,57.632 161.264,64.48 C163.674667,68.9173333 164.634667,73.888 164.144,78.7733333 C187.696,64.7573333 218.096,54.9653333 252.869333,56.864 C261.466667,57.3333333 269.146667,62.4746667 272.901333,70.2613333 C276.784,78.2826667 275.952,87.84 270.725333,95.1786667 C258.757333,112.096 255.002667,132.192 250.992,153.504 C244.165333,189.941333 236.4,231.264 184.24,256.16 C171.546667,262.261333 157.637333,265.312 143.557333,265.312 Z" id="Path" fill="#F44336" transform="translate(157.998240, 158.654752) rotate(-50.000000) translate(-157.998240, -158.654752) "></path>
            <g id="Group" transform="translate(149.500000, 163.000000) rotate(45.000000) translate(-149.500000, -163.000000) translate(79.000000, 87.000000)" fill="#FAFAFA">
                <path d="M85.9166482,52.0593764 C76.5702894,42.8617615 61.3518169,42.8617615 52.0054581,52.0593764 C42.6590993,61.2569913 42.6590993,76.2332674 52.0054581,85.4308823 L67.0747299,100.260332 C71.7425807,104.853896 77.8917814,107.161165 84.0303249,107.161165 C90.1688684,107.161165 96.3074119,104.853896 100.98592,100.260332 C110.332279,91.0627172 110.332279,76.0864412 100.98592,66.8888262 L85.9166482,52.0593764 Z M89.6892947,89.133001 C86.566737,92.2058644 81.50457,92.2058644 78.3820123,89.133001 L63.3127405,74.3035512 C60.20084,71.2411754 60.20084,66.2385958 63.3127405,63.17622 C64.8686908,61.6345445 66.914872,60.8794382 68.9610531,60.8794382 C71.0072343,60.8794382 73.0534155,61.6345445 74.6093657,63.17622 L89.6786375,78.0056698 C92.8011952,81.0785332 92.8011952,86.0706252 89.6892947,89.133001 L89.6892947,89.133001 Z" id="Shape"></path>
                <path d="M36.8123357,78.3243272 C33.7007588,75.2137283 28.6563936,75.2137283 25.5448167,78.3243272 C22.4332398,81.4349261 22.4332398,86.4777059 25.5448167,89.5883049 L38.6814058,102.720765 L27.4138868,113.995359 L14.2666779,100.852283 C11.155101,97.7416836 6.11073578,97.7416836 2.99915889,100.852283 C-0.112418001,103.962881 -0.112418001,109.005661 2.99915889,112.11626 L40.5504759,149.655775 C42.1009545,151.205766 44.13994,151.991378 46.1789255,151.991378 C48.2179111,151.991378 50.2568966,151.216382 51.8073752,149.655775 C54.9189521,146.545176 54.9189521,141.502396 51.8073752,138.391797 L38.6707861,125.259337 L49.9383051,113.984743 L63.0748942,127.117203 C64.6253728,128.667194 66.6643584,129.452806 68.7033439,129.452806 C70.7423294,129.452806 72.781315,128.677811 74.3317936,127.117203 C77.4433704,124.006604 77.4433704,118.963824 74.3317936,115.853225 L36.8123357,78.3243272 Z" id="Path"></path>
                <path d="M138.123605,51.5106426 L106.082616,19.4729299 L111.731892,13.8242314 C114.854983,10.7014604 114.854983,5.63894755 111.731892,2.51617649 C108.608802,-0.606594573 103.545771,-0.606594573 100.422681,2.51617649 L89.1347878,13.8135735 L89.1134698,13.8242314 L89.1028108,13.8348893 L77.8042586,25.1429443 C74.6811682,28.2657153 74.6811682,33.3282281 77.8042586,36.4509992 C79.3604742,38.0070558 81.4176635,38.795742 83.4535347,38.795742 C85.5000649,38.795742 87.5465951,38.0177137 89.1028108,36.4509992 L94.7520869,30.7916428 L126.793076,62.8293554 C128.349291,64.385412 130.395821,65.1740982 132.442352,65.1740982 C134.488882,65.1740982 136.535412,64.3960699 138.091628,62.8293554 C141.246695,59.6959264 141.246695,54.6334136 138.123605,51.5106426 Z" id="Path"></path>
            </g>
        </g>
    </g>
</svg>