<?xml version="1.0" encoding="UTF-8"?>
<svg width="383px" height="436px" viewBox="0 0 383 436" version="1.1" xmlns="http://www.w3.org/2000/svg" xmlns:xlink="http://www.w3.org/1999/xlink">
    <title>icon_add_file</title>
    <g id="Page-1" stroke="none" stroke-width="1" fill="none" fill-rule="evenodd">
        <g id="icon_add_file" fill="#000000" fill-rule="nonzero">
            <path d="M281.503906,211.214844 C286.109375,211.214844 290.714844,211.472656 295.289062,211.988281 L295.289062,99.566406 L234.191406,99.566406 C209.902344,99.539062 190.21875,79.855469 190.191406,55.566406 L190.191406,0 L24,0 C10.75,0.015625 0.015625,10.75 -5.68434189e-14,24 L-5.68434189e-14,359.792969 C0.015625,373.039062 10.75,383.777344 24,383.792969 L168.347656,383.792969 C151.757812,345.652344 155.503906,301.71875 178.308594,266.9375 C201.117188,232.152344 239.914062,211.203125 281.503906,211.214844 L281.503906,211.214844 Z" id="Path"></path>
            <path d="M234.195312,79.566406 L281.167969,79.566406 L210.195312,13.628906 L210.195312,55.566406 C210.207031,68.8125 220.945312,79.550781 234.195312,79.566406 L234.195312,79.566406 Z" id="Path"></path>
            <path d="M369.256887,282.048756 C360.09076,266.345617 347.657494,253.912408 331.953816,244.74679 C316.247334,235.58164 299.101516,231 280.503272,231 C261.906898,231 244.755938,235.58164 229.052261,244.74679 C213.347649,253.911006 200.914383,266.344215 191.748256,282.048756 C182.581661,297.754231 178,314.905113 178,333.5 C178,352.095822 182.583063,369.243899 191.746853,384.950309 C200.912513,400.653448 213.345779,413.086657 229.050391,422.25321 C244.755938,431.417892 261.905496,436 280.501402,436 C299.097309,436 316.248737,431.417892 331.953349,422.25321 C347.657026,413.089929 360.089825,400.653448 369.255017,384.950309 C378.418806,369.245301 383,352.094887 383,333.5 C383,314.903244 378.418806,297.751894 369.256887,282.048756 Z M338.434783,340.503371 C338.434783,342.802007 337.593477,344.794034 335.913188,346.471555 C334.231506,348.150469 332.242754,348.993178 329.945075,348.993178 L295.990424,348.993178 L295.990424,382.944975 C295.990424,385.243611 295.14819,387.23378 293.46883,388.916411 C291.7904,390.594861 289.800254,391.434783 287.500716,391.434783 L270.524553,391.434783 C268.225944,391.434783 266.236263,390.594861 264.556439,388.916411 C262.87615,387.234244 262.035774,385.244075 262.035774,382.944975 L262.035774,348.993178 L228.082053,348.993178 C225.783444,348.993178 223.794692,348.150934 222.113939,346.471555 C220.434115,344.794498 219.594203,342.802471 219.594203,340.503371 L219.594203,323.52515 C219.594203,321.226514 220.434579,319.23681 222.113939,317.556966 C223.794227,315.876658 225.782979,315.036272 228.082053,315.036272 L262.037168,315.036272 L262.037168,281.082152 C262.037168,278.783052 262.877544,276.794741 264.557833,275.113968 C266.237657,273.434125 268.226873,272.594203 270.525946,272.594203 L287.503968,272.594203 C289.802577,272.594203 291.793187,273.434589 293.472082,275.113968 C295.150977,276.794277 295.993676,278.783052 295.993676,281.082152 L295.993676,315.036272 L329.945075,315.036272 C332.243683,315.036272 334.233829,315.876658 335.913188,317.556966 C337.593477,319.236345 338.434783,321.22605 338.434783,323.52515 L338.434783,340.503371 Z" id="Shape"></path>
        </g>
    </g>
</svg>