<svg id="bold" enable-background="new 0 0 32 32" height="512" viewBox="0 0 32 32" width="512" xmlns="http://www.w3.org/2000/svg"><path d="m26 32h-20c-3.314 0-6-2.686-6-6v-20c0-3.314 2.686-6 6-6h20c3.314 0 6 2.686 6 6v20c0 3.314-2.686 6-6 6z" fill="#f5e6fe"/><path d="m15.372 19.5c-.041 0-.082-.006-.122-.02-.168-.055-.272-.214-.25-.382l.322-2.456h-.95c-.139 0-.267-.074-.332-.191-.065-.118-.055-.26.024-.369l2.25-3.095c.1-.137.285-.189.447-.129.162.061.259.221.233.385l-.31 1.971h.939c.135 0 .26.069.326.181s.065.25-.005.36l-2.25 3.572c-.07.11-.193.173-.322.173z" fill="#d9a4fc"/><g fill="#be63f9"><path d="m20.435 12.21c-.072 0-.144-.012-.215-.036-.348-.119-.535-.498-.415-.846.046-.134.069-.278.069-.429 0-.863-.798-1.565-1.778-1.565-.63 0-1.219.302-1.537.789-.202.308-.614.396-.923.192-.308-.201-.395-.615-.193-.923.57-.872 1.562-1.392 2.652-1.392 1.716 0 3.111 1.3 3.111 2.898 0 .297-.048.586-.141.86-.094.277-.353.451-.63.452z"/><path d="m18.095 24c-1.09 0-2.082-.521-2.653-1.392-.201-.308-.115-.721.193-.923.309-.202.721-.115.923.192.318.487.908.789 1.537.789.98 0 1.778-.702 1.778-1.565 0-.1-.013-.207-.038-.31-.082-.344.118-.692.456-.794 1.003-.302 1.676-1.14 1.676-2.085 0-.459-.155-.895-.447-1.26-.121-.151-.171-.348-.135-.538s.152-.356.32-.454c.602-.352.962-.94.962-1.573 0-1.039-.954-1.884-2.127-1.884-.396 0-.73.279-.73.609s.335.609.73.609c.368 0 .667.299.667.667s-.298.667-.667.667c-1.138 0-2.064-.871-2.064-1.942s.926-1.942 2.064-1.942c1.908 0 3.46 1.443 3.46 3.217 0 .889-.387 1.717-1.06 2.317.238.466.361.978.361 1.509 0 1.357-.822 2.569-2.095 3.16v.029c0 1.597-1.395 2.897-3.111 2.897z"/><path d="m11.565 12.21c-.277 0-.536-.174-.631-.451-.093-.273-.141-.563-.141-.86.001-1.599 1.396-2.899 3.112-2.899 1.09 0 2.082.521 2.653 1.392.202.308.115.721-.193.923-.309.203-.721.115-.923-.192-.318-.487-.908-.789-1.537-.789-.98 0-1.778.702-1.778 1.565 0 .15.023.295.069.429.119.349-.067.728-.415.846-.072.024-.144.036-.216.036z"/><path d="m13.905 24c-1.716 0-3.111-1.3-3.111-2.898 0-.009 0-.019 0-.029-1.273-.59-2.095-1.802-2.095-3.16 0-.532.124-1.043.361-1.509-.673-.6-1.06-1.428-1.06-2.317 0-1.774 1.552-3.217 3.46-3.217 1.138 0 2.064.871 2.064 1.942 0 .368-.298.667-.667.667-.368 0-.667-.299-.667-.667 0-.33-.335-.609-.73-.609-1.173 0-2.127.845-2.127 1.884 0 .633.359 1.222.962 1.573.167.098.284.264.32.454.035.19-.014.387-.135.538-.292.366-.447.801-.447 1.26 0 .945.674 1.783 1.676 2.085.339.102.538.45.456.794-.025.103-.038.21-.038.31 0 .863.798 1.565 1.778 1.565.63 0 1.219-.302 1.537-.789.202-.307.615-.394.923-.192.308.201.394.615.193.923-.571.872-1.563 1.392-2.653 1.392z"/><path d="m12.473 21.366c-.374 0-.667-.068-.728-.083-.357-.089-.575-.451-.485-.809.089-.356.449-.574.805-.486.252.06.714.079.907-.073.032-.025.13-.102.13-.409 0-.501-.108-.609-.609-.609-.368 0-.667-.299-.667-.667s.298-.667.667-.667c1.234 0 1.942.708 1.942 1.942 0 .792-.35 1.232-.643 1.461-.407.319-.912.4-1.319.4z"/></g></svg>