<?xml version="1.0" encoding="UTF-8"?>
<svg width="739px" height="710px" viewBox="0 0 739 710" version="1.1" xmlns="http://www.w3.org/2000/svg" xmlns:xlink="http://www.w3.org/1999/xlink">
    <title>contacts</title>
    <g id="Page-1" stroke="none" stroke-width="1" fill="none" fill-rule="evenodd">
        <g id="contacts" fill-rule="nonzero">
            <path d="M224.933333,109.533333 L224.933333,604.466667 L199.333333,604.466667 C175.769184,604.466667 156.666667,585.364149 156.666667,561.8 L156.666667,152.2 C156.666667,128.635851 175.769184,109.533333 199.333333,109.533333 L224.933333,109.533333 Z" id="Shape" fill-opacity="0.8" fill="#E8EDFC"></path>
            <path d="M549.2,152.2 L549.2,561.8 C549.2,585.364149 530.097482,604.466667 506.533333,604.466667 L224.933333,604.466667 L224.933333,109.533333 L506.533333,109.533333 C517.849236,109.533333 528.70167,114.028559 536.703223,122.030111 C544.704775,130.031663 549.2,140.884096 549.2,152.2 Z" id="Shape" fill="#E8EDFC"></path>
            <path d="M506.533333,109.533333 L480.933333,109.533333 C492.249236,109.533333 503.10167,114.028559 511.103223,122.030111 C519.104775,130.031663 523.6,140.884096 523.6,152.2 L523.6,561.8 C523.6,585.364149 504.497482,604.466667 480.933333,604.466667 L506.533333,604.466667 C517.849236,604.466667 528.70167,599.971441 536.703223,591.969889 C544.704775,583.968337 549.2,573.115903 549.2,561.8 L549.2,152.2 C549.2,140.884096 544.704775,130.031663 536.703223,122.030111 C528.70167,114.028559 517.849236,109.533333 506.533333,109.533333 Z" id="Shape" fill-opacity="0.5" fill="#ABB4BD"></path>
            <g id="Group" transform="translate(122.533333, 169.266667)" fill="#E8EDFC">
                <rect id="Rectangle-path" x="0" y="324.266667" width="68.2666667" height="34.1333333" rx="17.0666667"></rect>
                <rect id="Rectangle-path" x="0" y="247.466667" width="68.2666667" height="34.1333333" rx="17.0666667"></rect>
                <rect id="Rectangle-path" x="0" y="170.666667" width="68.2666667" height="34.1333333" rx="17.0666667"></rect>
                <rect id="Rectangle-path" x="0" y="93.8666667" width="68.2666667" height="34.1333333" rx="17.0666667"></rect>
                <rect id="Rectangle-path" x="0" y="17.0666667" width="68.2666667" height="34.1333333" rx="17.0666667"></rect>
                <path d="M494.933333,25.6 L494.933333,59.7333333 C494.933333,73.8718225 483.471823,85.3333333 469.333333,85.3333333 L426.666667,85.3333333 L426.666667,0 L469.333333,0 C483.471823,0 494.933333,11.4615104 494.933333,25.6 Z" id="Shape"></path>
            </g>
            <path d="M591.866667,169.266667 L566.266667,169.266667 C580.405156,169.266667 591.866667,180.728177 591.866667,194.866667 L591.866667,229 C591.866667,243.138489 580.405156,254.6 566.266667,254.6 L591.866667,254.6 C606.005156,254.6 617.466667,243.138489 617.466667,229 L617.466667,194.866667 C617.466667,180.728177 606.005156,169.266667 591.866667,169.266667 Z" id="Shape" fill-opacity="0.5" fill="#ABB4BD"></path>
            <path d="M617.466667,254.6 L617.466667,288.733333 C617.466667,302.871823 606.005156,314.333333 591.866667,314.333333 L549.2,314.333333 L549.2,254.6 L591.866667,254.6 C601.01853,254.605868 609.477402,249.725749 614.053333,241.8 C616.28483,245.697252 617.461325,250.109107 617.466667,254.6 Z" id="Shape" fill-opacity="0.8" fill="#E8EDFC"></path>
            <path d="M614.053333,241.8 C609.477402,249.725749 601.01853,254.605868 591.866667,254.6 L591.866667,288.733333 C591.866667,302.871823 580.405156,314.333333 566.266667,314.333333 L591.866667,314.333333 C606.005156,314.333333 617.466667,302.871823 617.466667,288.733333 L617.466667,254.6 C617.461325,250.109107 616.28483,245.697252 614.053333,241.8 Z" id="Shape" fill-opacity="0.5" fill="#ABB4BD"></path>
            <path d="M617.466667,314.333333 L617.466667,348.466667 C617.466667,362.605156 606.005156,374.066667 591.866667,374.066667 L549.2,374.066667 L549.2,314.333333 L591.866667,314.333333 C601.01853,314.339201 609.477402,309.459082 614.053333,301.533333 C616.28483,305.430585 617.461325,309.842441 617.466667,314.333333 Z" id="Shape" fill="#E8EDFC"></path>
            <path d="M614.053333,301.533333 C609.477402,309.459082 601.01853,314.339201 591.866667,314.333333 L591.866667,348.466667 C591.866667,362.605156 580.405156,374.066667 566.266667,374.066667 L591.866667,374.066667 C606.005156,374.066667 617.466667,362.605156 617.466667,348.466667 L617.466667,314.333333 C617.461325,309.842441 616.28483,305.430585 614.053333,301.533333 Z" id="Shape" fill-opacity="0.5" fill="#ABB4BD"></path>
            <path d="M617.466667,374.066667 L617.466667,408.2 C617.466667,422.338489 606.005156,433.8 591.866667,433.8 L549.2,433.8 L549.2,374.066667 L591.866667,374.066667 C601.01853,374.072534 609.477402,369.192416 614.053333,361.266667 C616.28483,365.163919 617.461325,369.575774 617.466667,374.066667 Z" id="Shape" fill-opacity="0.8" fill="#E8EDFC"></path>
            <path d="M614.053333,361.266667 C609.477402,369.192416 601.01853,374.072534 591.866667,374.066667 L591.866667,408.2 C591.866667,422.338489 580.405156,433.8 566.266667,433.8 L591.866667,433.8 C606.005156,433.8 617.466667,422.338489 617.466667,408.2 L617.466667,374.066667 C617.461325,369.575774 616.28483,365.163919 614.053333,361.266667 Z" id="Shape" fill-opacity="0.5" fill="#ABB4BD"></path>
            <path d="M617.466667,433.8 L617.466667,467.933333 C617.466667,482.071823 606.005156,493.533333 591.866667,493.533333 L549.2,493.533333 L549.2,433.8 L591.866667,433.8 C601.01853,433.805868 609.477402,428.925749 614.053333,421 C616.28483,424.897252 617.461325,429.309107 617.466667,433.8 Z" id="Shape" fill="#E8EDFC"></path>
            <path d="M614.053333,421 C609.477402,428.925749 601.01853,433.805868 591.866667,433.8 L591.866667,467.933333 C591.866667,482.071823 580.405156,493.533333 566.266667,493.533333 L591.866667,493.533333 C606.005156,493.533333 617.466667,482.071823 617.466667,467.933333 L617.466667,433.8 C617.461325,429.309107 616.28483,424.897252 614.053333,421 Z" id="Shape" fill-opacity="0.5" fill="#ABB4BD"></path>
            <path d="M617.466667,493.533333 L617.466667,527.666667 C617.466667,541.805156 606.005156,553.266667 591.866667,553.266667 L549.2,553.266667 L549.2,493.533333 L591.866667,493.533333 C601.01853,493.539201 609.477402,488.659082 614.053333,480.733333 C616.28483,484.630585 617.461325,489.042441 617.466667,493.533333 Z" id="Shape" fill-opacity="0.8" fill="#E8EDFC"></path>
            <path d="M614.053333,480.733333 C609.477402,488.659082 601.01853,493.539201 591.866667,493.533333 L591.866667,527.666667 C591.866667,541.805156 580.405156,553.266667 566.266667,553.266667 L591.866667,553.266667 C606.005156,553.266667 617.466667,541.805156 617.466667,527.666667 L617.466667,493.533333 C617.461325,489.042441 616.28483,484.630585 614.053333,480.733333 Z" id="Shape" fill-opacity="0.5" fill="#ABB4BD"></path>
            <circle id="Oval" fill-opacity="0.3" fill="#ABB4BD" cx="387.066667" cy="271.666667" r="128"></circle>
            <path d="M387.066667,143.666667 C382.7488,143.666667 378.482133,143.897067 374.266667,144.3152 C439.643049,150.921408 489.397948,205.957357 489.397948,271.666667 C489.397948,337.375976 439.643049,392.411925 374.266667,399.018133 C378.482133,399.436267 382.7488,399.666667 387.066667,399.666667 C457.759114,399.666667 515.066667,342.359114 515.066667,271.666667 C515.066667,200.974219 457.759114,143.666667 387.066667,143.666667 Z" id="Shape" fill-opacity="0.6" fill="#ABB4BD"></path>
            <path d="M449.786667,263.133333 C435.28,244.616 415.056,248.882667 391.845333,263.133333 C368.634667,277.384 338.682667,270.216 327.333333,255.282667 C310.181333,237.106667 315.984,203.4 315.984,203.4 C332.965333,237.362667 403.536,201.949333 431.866667,218.930667 C448.677333,229 450.810667,248.797333 449.786667,263.133333 Z" id="Shape" fill="#E8EDFC"></path>
            <path d="M463.866882,297.181333 C463.884905,301.667998 462.110653,305.976166 458.938077,309.148744 C455.7655,312.32132 451.457331,314.095572 446.970667,314.077333 C445.883412,314.122924 444.794632,314.036968 443.728,313.821333 C435.336844,338.36717 412.959014,355.420154 387.066667,357 C361.23983,355.460669 338.880233,338.5226 330.405333,314.077333 C329.361891,314.250743 328.305748,314.336375 327.248,314.333333 C317.893033,314.333333 310.309333,306.749634 310.309333,297.394667 C310.309333,288.0397 317.893033,280.456 327.248,280.456 L327.333333,255.282667 C338.682667,270.216 368.549333,277.384 391.845333,263.133333 C415.141333,248.882667 435.28,244.616 449.786667,263.133333 C449.405967,268.900345 448.462822,274.616378 446.970667,280.2 C451.466589,280.199943 455.777135,281.991761 458.948215,285.178855 C462.119293,288.36595 463.889373,292.685469 463.866882,297.181333 L463.866882,297.181333 Z" id="Shape" fill="#E8EDFC"></path>
            <path d="M412.837333,397.106667 C404.356242,398.832311 395.721504,399.690066 387.066667,399.666667 C378.060037,399.690295 369.076933,398.74621 360.272,396.850667 C367.62579,383.866701 371.229887,369.095812 370.682667,354.184 C375.956132,356.001137 381.489111,356.952118 387.066667,357 C392.653287,356.972017 398.19416,355.990822 403.450667,354.098667 C402.61226,369.021366 405.857472,383.890336 412.837333,397.106667 Z" id="Shape" fill-opacity="0.5" fill="#ABB4BD"></path>
            <path d="M139.6,493.533333 C130.17434,493.533333 122.533333,501.17434 122.533333,510.6 C122.533333,520.02566 130.17434,527.666667 139.6,527.666667 L156.666667,527.666667 L156.666667,561.8 C156.666667,585.364149 175.769184,604.466667 199.333333,604.466667 L224.933333,604.466667 C201.369184,604.466667 182.266667,585.364149 182.266667,561.8 L182.266667,527.666667 L165.2,527.666667 C155.77434,527.666667 148.133333,520.02566 148.133333,510.6 C148.133333,501.17434 155.77434,493.533333 165.2,493.533333 L182.266667,493.533333 L182.266667,450.866667 L165.2,450.866667 C155.77434,450.866667 148.133333,443.22566 148.133333,433.8 C148.133333,424.37434 155.77434,416.733333 165.2,416.733333 L182.266667,416.733333 L182.266667,374.066667 L165.2,374.066667 C155.77434,374.066667 148.133333,366.42566 148.133333,357 C148.133333,347.57434 155.77434,339.933333 165.2,339.933333 L182.266667,339.933333 L182.266667,297.266667 L165.2,297.266667 C155.77434,297.266667 148.133333,289.62566 148.133333,280.2 C148.133333,270.77434 155.77434,263.133333 165.2,263.133333 L182.266667,263.133333 L182.266667,220.466667 L165.2,220.466667 C155.77434,220.466667 148.133333,212.82566 148.133333,203.4 C148.133333,193.97434 155.77434,186.333333 165.2,186.333333 L182.266667,186.333333 L182.266667,152.2 C182.266667,128.635851 201.369184,109.533333 224.933333,109.533333 L199.333333,109.533333 C175.769184,109.533333 156.666667,128.635851 156.666667,152.2 L156.666667,186.333333 L139.6,186.333333 C130.17434,186.333333 122.533333,193.97434 122.533333,203.4 C122.533333,212.82566 130.17434,220.466667 139.6,220.466667 L156.666667,220.466667 L156.666667,263.133333 L139.6,263.133333 C130.17434,263.133333 122.533333,270.77434 122.533333,280.2 C122.533333,289.62566 130.17434,297.266667 139.6,297.266667 L156.666667,297.266667 L156.666667,339.933333 L139.6,339.933333 C130.17434,339.933333 122.533333,347.57434 122.533333,357 C122.533333,366.42566 130.17434,374.066667 139.6,374.066667 L156.666667,374.066667 L156.666667,416.733333 L139.6,416.733333 C130.17434,416.733333 122.533333,424.37434 122.533333,433.8 C122.533333,443.22566 130.17434,450.866667 139.6,450.866667 L156.666667,450.866667 L156.666667,493.533333 L139.6,493.533333 Z" id="Shape" fill="#FFFFFF"></path>
            <polygon id="Rectangle-path" fill="#FFFFFF" points="252.427733 101 320.6944 101 320.6944 118.066667 252.427733 118.066667"></polygon>
            <path d="M286.731733,118.066774 C283.683067,118.08191 280.857851,116.469551 279.320317,113.83695 C277.782782,111.20435 277.766518,107.951461 279.27765,105.303617 C280.788782,102.655773 283.597734,101.015243 286.6464,101 L286.731733,101 C291.444563,101 295.265067,104.820503 295.265067,109.533333 C295.265067,114.246163 291.444563,118.066774 286.731733,118.066774 L286.731733,118.066774 Z" id="Shape" fill="#ABB4BD"></path>
            <path d="M591.866667,160.733333 L557.733333,160.733333 L557.733333,152.2 C557.70511,123.934719 534.798614,101.028223 506.533333,101 L320.6944,101 C315.981571,101 312.161067,104.820503 312.161067,109.533333 C312.161067,114.246163 315.981571,118.066667 320.6944,118.066667 L506.533333,118.066667 C525.384653,118.066667 540.666667,133.348681 540.666667,152.2 L540.666667,561.8 C540.666667,580.651319 525.384653,595.933333 506.533333,595.933333 L233.466667,595.933333 L233.466667,118.066667 L252.436267,118.066667 C257.149096,118.066667 260.9696,114.246163 260.9696,109.533333 C260.9696,104.820503 257.149096,101 252.436267,101 L199.333333,101 C171.068053,101.028223 148.161556,123.934719 148.133333,152.2 L148.133333,177.8 L139.6,177.8 C125.46151,177.8 114,189.261511 114,203.4 C114,217.538489 125.46151,229 139.6,229 L148.133333,229 L148.133333,254.6 L139.6,254.6 C125.46151,254.6 114,266.061511 114,280.2 C114,294.338489 125.46151,305.8 139.6,305.8 L148.133333,305.8 L148.133333,331.4 L139.6,331.4 C125.46151,331.4 114,342.861511 114,357 C114,371.138489 125.46151,382.6 139.6,382.6 L148.133333,382.6 L148.133333,408.2 L139.6,408.2 C125.46151,408.2 114,419.661511 114,433.8 C114,447.938489 125.46151,459.4 139.6,459.4 L148.133333,459.4 L148.133333,485 L139.6,485 C125.46151,485 114,496.461511 114,510.6 C114,524.738489 125.46151,536.2 139.6,536.2 L148.133333,536.2 L148.133333,561.8 C148.161556,590.065281 171.068053,612.971777 199.333333,613 L506.533333,613 C534.798614,612.971777 557.70511,590.065281 557.733333,561.8 L591.866667,561.8 C610.717986,561.8 626,546.517986 626,527.666667 L626,493.533333 C625.987743,489.14571 625.136169,484.800945 623.4912,480.733333 C625.136169,476.665721 625.987743,472.320957 626,467.933333 L626,433.8 C625.987743,429.412377 625.136169,425.067612 623.4912,421 C625.136169,416.932388 625.987743,412.587623 626,408.2 L626,374.066667 C625.987743,369.679043 625.136169,365.334279 623.4912,361.266667 C625.136169,357.199055 625.987743,352.85429 626,348.466667 L626,314.333333 C625.987743,309.94571 625.136169,305.600945 623.4912,301.533333 C625.136169,297.465721 625.987743,293.120957 626,288.733333 L626,254.6 C625.974647,250.208722 625.10555,245.863239 623.44,241.8 C625.112754,237.738939 625.982135,233.392038 626,229 L626,194.866667 C626,176.015347 610.717986,160.733333 591.866667,160.733333 Z M131.066667,203.4 C131.066667,198.687171 134.88717,194.866667 139.6,194.866667 L173.733333,194.866667 C178.446163,194.866667 182.266667,198.687171 182.266667,203.4 C182.266667,208.112829 178.446163,211.933333 173.733333,211.933333 L139.6,211.933333 C134.88717,211.933333 131.066667,208.112829 131.066667,203.4 Z M131.066667,280.2 C131.066667,275.487171 134.88717,271.666667 139.6,271.666667 L173.733333,271.666667 C178.446163,271.666667 182.266667,275.487171 182.266667,280.2 C182.266667,284.912829 178.446163,288.733333 173.733333,288.733333 L139.6,288.733333 C134.88717,288.733333 131.066667,284.912829 131.066667,280.2 Z M131.066667,357 C131.066667,352.287171 134.88717,348.466667 139.6,348.466667 L173.733333,348.466667 C178.446163,348.466667 182.266667,352.287171 182.266667,357 C182.266667,361.712829 178.446163,365.533333 173.733333,365.533333 L139.6,365.533333 C134.88717,365.533333 131.066667,361.712829 131.066667,357 Z M131.066667,433.8 C131.066667,429.087171 134.88717,425.266667 139.6,425.266667 L173.733333,425.266667 C178.446163,425.266667 182.266667,429.087171 182.266667,433.8 C182.266667,438.512829 178.446163,442.333333 173.733333,442.333333 L139.6,442.333333 C134.88717,442.333333 131.066667,438.512829 131.066667,433.8 Z M131.066667,510.6 C131.066667,505.887171 134.88717,502.066667 139.6,502.066667 L173.733333,502.066667 C178.446163,502.066667 182.266667,505.887171 182.266667,510.6 C182.266667,515.312829 178.446163,519.133333 173.733333,519.133333 L139.6,519.133333 C134.88717,519.133333 131.066667,515.312829 131.066667,510.6 Z M165.2,561.8 L165.2,536.2 L173.733333,536.2 C187.871823,536.2 199.333333,524.738489 199.333333,510.6 C199.333333,496.461511 187.871823,485 173.733333,485 L165.2,485 L165.2,459.4 L173.733333,459.4 C187.871823,459.4 199.333333,447.938489 199.333333,433.8 C199.333333,419.661511 187.871823,408.2 173.733333,408.2 L165.2,408.2 L165.2,382.6 L173.733333,382.6 C187.871823,382.6 199.333333,371.138489 199.333333,357 C199.333333,342.861511 187.871823,331.4 173.733333,331.4 L165.2,331.4 L165.2,305.8 L173.733333,305.8 C187.871823,305.8 199.333333,294.338489 199.333333,280.2 C199.333333,266.061511 187.871823,254.6 173.733333,254.6 L165.2,254.6 L165.2,229 L173.733333,229 C187.871823,229 199.333333,217.538489 199.333333,203.4 C199.333333,189.261511 187.871823,177.8 173.733333,177.8 L165.2,177.8 L165.2,152.2 C165.2,133.348681 180.482014,118.066667 199.333333,118.066667 L216.4,118.066667 L216.4,595.933333 L199.333333,595.933333 C180.482014,595.933333 165.2,580.651319 165.2,561.8 Z M591.866667,382.6 C597.860535,382.598979 603.747864,381.015287 608.933333,378.009067 L608.933333,408.2 C608.933333,417.62566 601.292326,425.266667 591.866667,425.266667 L557.733333,425.266667 L557.733333,382.6 L591.866667,382.6 Z M557.733333,365.533333 L557.733333,322.866667 L591.866667,322.866667 C597.860535,322.865645 603.747864,321.281953 608.933333,318.275733 L608.933333,348.466667 C608.933333,357.892326 601.292326,365.533333 591.866667,365.533333 L557.733333,365.533333 Z M591.866667,442.333333 C597.860535,442.332312 603.747864,440.74862 608.933333,437.7424 L608.933333,467.933333 C608.933333,477.358993 601.292326,485 591.866667,485 L557.733333,485 L557.733333,442.333333 L591.866667,442.333333 Z M606.654933,297.266667 C603.60482,302.549618 597.966893,305.802895 591.866667,305.800002 L557.733333,305.800002 L557.733333,263.133333 L591.866667,263.133333 C597.876294,263.097966 603.76771,261.460152 608.933339,258.3888 L608.933339,288.733333 C608.935796,291.728423 608.150016,294.671421 606.654933,297.266667 Z M591.866667,177.8 C601.292326,177.8 608.933333,185.441007 608.933333,194.866667 L608.933333,229 C608.933333,238.42566 601.292326,246.066667 591.866667,246.066667 L557.733333,246.066667 L557.733333,177.8 L591.866667,177.8 Z M591.866667,544.733333 L557.733333,544.733333 L557.733333,502.066667 L591.866667,502.066667 C597.860535,502.065645 603.747864,500.481953 608.933333,497.475733 L608.933333,527.666667 C608.933333,537.092326 601.292326,544.733333 591.866667,544.733333 Z" id="Shape" fill="#ABB4BD"></path>
            <path d="M387.066667,135.133333 C317.513269,135.303366 259.204728,187.732269 251.670497,256.876606 C244.136266,326.020943 289.784806,389.777406 357.669333,404.9232 C357.962215,405.020957 358.261624,405.097947 358.565333,405.1536 C376.946911,409.116484 395.951546,409.215285 414.373333,405.443733 C414.707688,405.387239 415.038264,405.310295 415.3632,405.213333 C483.692588,390.681813 530.031279,326.916989 522.752086,257.439772 C515.472893,187.962556 456.924146,135.186887 387.066667,135.133333 Z M372.926933,390.220267 C376.108161,382.085935 378.11931,373.541425 378.900267,364.842133 C381.6026,365.265602 384.331601,365.496583 387.066667,365.533333 C389.727616,365.493137 392.382402,365.265014 395.0112,364.850667 C395.633757,373.556987 397.460207,382.134981 400.4384,390.339733 C391.298185,391.436511 382.057279,391.396383 372.926933,390.220267 Z M344.1184,256.178667 C340.97623,255.140406 338.062159,253.509569 335.533867,251.3744 C334.969786,250.927525 334.441919,250.436751 333.9552,249.906667 C333.818667,249.736 333.6736,249.565333 333.528533,249.411733 C327.330527,241.762069 323.888737,232.248302 323.757867,222.403733 C339.117867,229.785067 360.8352,227.208 380.624,224.869867 C398.910933,222.7024 417.8208,220.466667 427.463467,226.243733 C449.650133,239.581333 438.8896,277.443733 438.7872,277.785067 C438.025805,280.365524 438.525951,283.15394 440.136722,285.308913 C441.747492,287.463885 444.280223,288.733011 446.970667,288.733333 C451.612804,288.733333 455.376,292.496529 455.376,297.138667 C455.376,301.780804 451.612804,305.544 446.970667,305.544 C446.5184,305.544 446.074667,305.544 445.810133,305.544 C441.452465,304.420313 436.971159,306.873829 435.570133,311.1504 C428.269763,332.133692 409.220244,346.789488 387.066667,348.466667 C364.949052,346.868851 345.882324,332.312461 338.512,311.397867 C337.356778,307.904891 334.092918,305.545556 330.413867,305.544 C329.942089,305.546006 329.471238,305.585958 329.005867,305.663467 C328.424697,305.757528 327.836723,305.803196 327.248,305.8 C325.011887,305.834436 322.856061,304.967213 321.266696,303.393902 C319.677332,301.820592 318.788267,299.673681 318.799885,297.437333 C318.804704,292.773582 322.584248,288.994037 327.248,288.989333 C331.960829,288.989333 335.781333,285.168829 335.781333,280.456 L335.781333,271.248533 C336.634667,271.615467 337.573333,271.965333 338.503467,272.281067 C342.94615,273.784714 347.769614,271.420987 349.303358,266.988605 C350.837103,262.556223 348.506144,257.716838 344.084267,256.153067 L344.1184,256.178667 Z M417.505067,387.062933 C413.993877,378.424905 412.099327,369.215368 411.915733,359.8928 C428.62441,352.458737 442.019756,339.145385 449.556267,322.482667 C461.077485,321.308448 470.356518,312.510045 472.141283,301.067498 C473.926048,289.62495 467.767276,278.418618 457.150933,273.791467 C459.813333,258.354667 461.588267,226.858133 436.286933,211.609067 C421.6352,202.819733 399.7728,205.4224 378.6528,207.914133 C349.639467,211.327467 330.1664,212.633067 323.646933,199.5856 C322.023646,196.259636 318.419361,194.383054 314.763733,194.960533 C311.119341,195.504433 308.235692,198.326142 307.6128,201.957867 C307.348267,203.442667 301.7248,237.6016 318.8256,258.482667 L318.740267,273.373333 C307.498169,277.333642 300.507537,288.562518 301.915634,300.398314 C303.323732,312.234109 312.753737,321.509431 324.6112,322.7216 C332.161232,339.281737 345.5193,352.500151 362.157867,359.875733 C361.769495,369.181583 359.627059,378.330363 355.8432,386.841067 C297.953356,371.171734 260.652863,315.011277 268.659348,255.575108 C276.665833,196.138939 327.49752,151.850528 387.470171,152.057405 C447.442822,152.265736 497.966674,196.905004 505.561478,256.395179 C513.156281,315.885354 475.467872,371.786226 417.470933,387.0544 L417.505067,387.062933 Z" id="Shape" fill="#ABB4BD"></path>
            <path d="M489.466667,442.333333 L284.666667,442.333333 C279.953837,442.333333 276.133333,446.153837 276.133333,450.866667 C276.133333,455.579496 279.953837,459.4 284.666667,459.4 L489.466667,459.4 C494.179496,459.4 498,455.579496 498,450.866667 C498,446.153837 494.179496,442.333333 489.466667,442.333333 Z" id="Shape" fill="#ABB4BD"></path>
            <path d="M498,485 C498,480.287171 494.179496,476.466667 489.466667,476.466667 L284.666667,476.466667 C279.953837,476.466667 276.133333,480.287171 276.133333,485 C276.133333,489.712829 279.953837,493.533333 284.666667,493.533333 L489.466667,493.533333 C494.179496,493.533333 498,489.712829 498,485 Z" id="Shape" fill="#ABB4BD"></path>
            <path d="M327.333333,510.6 C322.620504,510.6 318.8,514.420504 318.8,519.133333 C318.8,523.846163 322.620504,527.666667 327.333333,527.666667 L446.8,527.666667 C451.512829,527.666667 455.333333,523.846163 455.333333,519.133333 C455.333333,514.420504 451.512829,510.6 446.8,510.6 L327.333333,510.6 Z" id="Shape" fill="#ABB4BD"></path>
            <g id="close" opacity="0.673851376" transform="translate(26.000000, 414.000000)" fill="#ABB4BD">
                <path d="M0,36.8272696 L31.5930879,3.57037693 C31.5930879,3.57037693 35.731466,-0.926557383 45.0571493,0.173213212 C45.0571493,0.173213212 46.6560199,1.44741551 47,3.90647703 L15.2434154,37.9270401 C15.2434154,37.9270401 12.6189745,41.2412424 1.52455387,40.9859765 C1.52243054,40.9859765 0.424666817,40.4754447 0,36.8272696 Z" id="Path"></path>
                <path d="M0,4.17656688 L31.5930879,37.429995 C31.5930879,37.429995 35.731466,41.9264609 45.0571493,40.8268048 C45.0571493,40.8268048 46.6560199,39.5548623 47,37.0875489 L15.2434154,3.06840288 C15.2434154,3.06840288 12.6189745,-0.241200179 1.52455387,0.0140391316 C1.52243054,0.0161661259 0.424666817,0.526644746 0,4.17656688 Z" id="Path"></path>
            </g>
            <g id="close" opacity="0.713378906" transform="translate(0.000000, 164.000000)" fill="#ABB4BD">
                <path d="M0,20.6592 L17.4770273,2.00289438 C17.4770273,2.00289438 19.7663429,-0.519776093 24.9252315,0.0971683874 C24.9252315,0.0971683874 25.8097131,0.811964799 26,2.19143834 L8.43252767,21.2761445 C8.43252767,21.2761445 6.9807093,23.1353311 0.843370226,22.9921332 C0.842195618,22.9921332 0.234922069,22.7057373 0,20.6592 Z" id="Path"></path>
                <path d="M0,2.34295215 L17.4770273,20.9973143 C17.4770273,20.9973143 19.7663429,23.519722 24.9252315,22.9028417 C24.9252315,22.9028417 25.8097131,22.189313 26,20.8052104 L8.43252767,1.72129918 C8.43252767,1.72129918 6.9807093,-0.135307417 0.843370226,0.00787561044 C0.842195618,0.00906880237 0.234922069,0.295434858 0,2.34295215 Z" id="Path"></path>
            </g>
            <g id="close" opacity="0.553803943" transform="translate(641.000000, 47.000000)" fill="#ABB4BD">
                <path d="M0,20.6592 L17.4770273,2.00289438 C17.4770273,2.00289438 19.7663429,-0.519776093 24.9252315,0.0971683874 C24.9252315,0.0971683874 25.8097131,0.811964799 26,2.19143834 L8.43252767,21.2761445 C8.43252767,21.2761445 6.9807093,23.1353311 0.843370226,22.9921332 C0.842195618,22.9921332 0.234922069,22.7057373 0,20.6592 Z" id="Path"></path>
                <path d="M0,2.34295215 L17.4770273,20.9973143 C17.4770273,20.9973143 19.7663429,23.519722 24.9252315,22.9028417 C24.9252315,22.9028417 25.8097131,22.189313 26,20.8052104 L8.43252767,1.72129918 C8.43252767,1.72129918 6.9807093,-0.135307417 0.843370226,0.00787561044 C0.842195618,0.00906880237 0.234922069,0.295434858 0,2.34295215 Z" id="Path"></path>
            </g>
            <g id="circle" opacity="0.740211123" transform="translate(667.000000, 242.000000)" fill="#ABB4BD">
                <path d="M20.5,0 C9.1963,0 0,9.1963 0,20.5 C0,31.8037 9.1963,41 20.5,41 C31.8037,41 41,31.8037 41,20.5 C41,9.1963 31.8037,0 20.5,0 Z M19.8166667,31.4333333 C14.1648788,31.4333333 9.56666667,26.8352455 9.56666667,21.1833333 C9.56666667,15.5314212 14.1648788,10.9333333 19.8166667,10.9333333 C25.4684545,10.9333333 30.0666667,15.5314212 30.0666667,21.1833333 C30.0666667,26.8352455 25.4684545,31.4333333 19.8166667,31.4333333 Z" id="XMLID_29_"></path>
            </g>
            <g id="circle" opacity="0.514880952" transform="translate(159.000000, 0.000000)" fill="#ABB4BD">
                <path d="M20.5,0 C9.1963,0 0,9.1963 0,20.5 C0,31.8037 9.1963,41 20.5,41 C31.8037,41 41,31.8037 41,20.5 C41,9.1963 31.8037,0 20.5,0 Z M19.8166667,31.4333333 C14.1648788,31.4333333 9.56666667,26.8352455 9.56666667,21.1833333 C9.56666667,15.5314212 14.1648788,10.9333333 19.8166667,10.9333333 C25.4684545,10.9333333 30.0666667,15.5314212 30.0666667,21.1833333 C30.0666667,26.8352455 25.4684545,31.4333333 19.8166667,31.4333333 Z" id="XMLID_29_"></path>
            </g>
            <g id="circle" opacity="0.658714658" transform="translate(73.000000, 632.000000)" fill="#ABB4BD">
                <path d="M20.5,0 C9.1963,0 0,9.1963 0,20.5 C0,31.8037 9.1963,41 20.5,41 C31.8037,41 41,31.8037 41,20.5 C41,9.1963 31.8037,0 20.5,0 Z M19.8166667,31.4333333 C14.1648788,31.4333333 9.56666667,26.8352455 9.56666667,21.1833333 C9.56666667,15.5314212 14.1648788,10.9333333 19.8166667,10.9333333 C25.4684545,10.9333333 30.0666667,15.5314212 30.0666667,21.1833333 C30.0666667,26.8352455 25.4684545,31.4333333 19.8166667,31.4333333 Z" id="XMLID_29_"></path>
            </g>
            <path d="M734.956956,492 L739,484.822161 L721.043044,455 L712.956956,455 L695,484.822161 L699.043044,492 L734.956956,492 Z M717.499896,467 L727,483 L708,483 L717.499896,467 Z" id="Shape" fill-opacity="0.55" fill="#ABB4BD"></path>
            <path d="M426.956956,710 L431,702.822161 L413.043044,673 L404.956956,673 L387,702.822161 L391.043044,710 L426.956956,710 Z M409.499896,685 L419,701 L400,701 L409.499896,685 Z" id="Shape" fill-opacity="0.64" fill="#ABB4BD"></path>
            <g id="close" opacity="0.601353236" transform="translate(607.000000, 632.000000)" fill="#ABB4BD">
                <path d="M0,36.8272696 L31.5930879,3.57037693 C31.5930879,3.57037693 35.731466,-0.926557383 45.0571493,0.173213212 C45.0571493,0.173213212 46.6560199,1.44741551 47,3.90647703 L15.2434154,37.9270401 C15.2434154,37.9270401 12.6189745,41.2412424 1.52455387,40.9859765 C1.52243054,40.9859765 0.424666817,40.4754447 0,36.8272696 Z" id="Path"></path>
                <path d="M0,4.17656688 L31.5930879,37.429995 C31.5930879,37.429995 35.731466,41.9264609 45.0571493,40.8268048 C45.0571493,40.8268048 46.6560199,39.5548623 47,37.0875489 L15.2434154,3.06840288 C15.2434154,3.06840288 12.6189745,-0.241200179 1.52455387,0.0140391316 C1.52243054,0.0161661259 0.424666817,0.526644746 0,4.17656688 Z" id="Path"></path>
            </g>
            <path d="M455.519041,41 L458,36.5380999 L446.980959,18 L442.019041,18 L431,36.5380999 L433.480959,41 L455.519041,41 Z M444.999934,25 L451,35 L439,35 L444.999934,25 Z" id="Shape" fill-opacity="0.69" fill="#ABB4BD"></path>
        </g>
    </g>
</svg>