<?xml version="1.0" encoding="UTF-8"?>
<svg width="256px" height="256px" viewBox="0 0 256 256" version="1.1" xmlns="http://www.w3.org/2000/svg" xmlns:xlink="http://www.w3.org/1999/xlink">
    <title>lamp-2</title>
    <g id="Page-1" stroke="none" stroke-width="1" fill="none" fill-rule="evenodd">
        <g id="lamp-2" fill-rule="nonzero">
            <g id="Group" fill="#FEDD61">
                <path d="M128,36.864 C123.584,36.864 120,33.28 120,28.864 L120,8 C120,3.584 123.584,0 128,0 C132.416,0 136,3.584 136,8 L136,28.864 C136,33.28 132.416,36.864 128,36.864 Z" id="Path"></path>
                <path d="M198.096,65.904 C196.048,65.904 194,65.12 192.432,63.568 C189.312,60.448 189.312,55.376 192.432,52.256 L207.2,37.488 C210.32,34.368 215.392,34.368 218.512,37.488 C221.632,40.608 221.632,45.68 218.512,48.8 L203.744,63.568 C202.192,65.12 200.144,65.904 198.096,65.904 Z" id="Path"></path>
                <path d="M248,136 L227.136,136 C222.72,136 219.136,132.416 219.136,128 C219.136,123.584 222.72,120 227.136,120 L248,120 C252.416,120 256,123.584 256,128 C256,132.416 252.416,136 248,136 Z" id="Path"></path>
                <path d="M212.848,220.848 C210.8,220.848 208.752,220.064 207.184,218.512 L192.416,203.744 C189.296,200.624 189.296,195.552 192.416,192.432 C195.536,189.312 200.608,189.312 203.728,192.432 L218.496,207.2 C221.616,210.32 221.616,215.392 218.496,218.512 C216.944,220.08 214.896,220.848 212.848,220.848 L212.848,220.848 Z" id="Path"></path>
                <path d="M43.152,220.848 C41.104,220.848 39.056,220.064 37.488,218.512 C34.368,215.392 34.368,210.32 37.488,207.2 L52.256,192.432 C55.376,189.312 60.448,189.312 63.568,192.432 C66.688,195.552 66.688,200.624 63.568,203.744 L48.8,218.512 C47.232,220.08 45.2,220.848 43.152,220.848 L43.152,220.848 Z" id="Path"></path>
                <path d="M28.864,136 L8,136 C3.584,136 0,132.416 0,128 C0,123.584 3.584,120 8,120 L28.864,120 C33.28,120 36.864,123.584 36.864,128 C36.864,132.416 33.28,136 28.864,136 Z" id="Path"></path>
                <path d="M57.904,65.904 C55.856,65.904 53.808,65.12 52.24,63.568 L37.472,48.8 C34.352,45.68 34.352,40.608 37.472,37.488 C40.592,34.368 45.664,34.368 48.784,37.488 L63.552,52.256 C66.672,55.376 66.672,60.448 63.552,63.568 C62,65.12 59.952,65.904 57.904,65.904 L57.904,65.904 Z" id="Path"></path>
            </g>
            <path d="M160,224 L160,237.328 C160,247.568 151.568,256 141.328,256 L114.656,256 C105.712,256 96,249.168 96,234.24 L96,224 L160,224 Z" id="Path" fill="#FCC632"></path>
            <path d="M175.04,69.968 C157.552,55.776 134.512,50.24 112,55.04 C83.728,60.912 60.8,83.952 54.928,112.208 C48.96,141.216 59.84,170.016 83.088,187.616 C89.376,192.304 93.76,199.568 95.248,207.984 L95.248,208.096 C95.472,208 95.792,208 96,208 L160,208 C160.208,208 160.32,208 160.528,208.112 L160.528,208 C162.016,199.888 166.816,192.432 174.176,186.672 C192.208,172.384 202.656019,151.04 202.656019,128 C202.672,105.392 192.64,84.272 175.04,69.968 L175.04,69.968 Z M168,133.328 C163.632,133.328 160,129.696 160,125.328 C160,109.12 146.88,96 130.672,96 C126.304,96 122.672,92.368 122.672,88 C122.672,83.632 126.304,80 130.672,80 C155.632,80 176,100.368 176,125.328 C176,129.712 172.368,133.328 168,133.328 Z" id="Shape" fill="#FCC632"></path>
            <path d="M95.248,208 L96,208 C95.792,208 95.472,208 95.248,208.112 L95.248,208 Z" id="Path" fill="#000000"></path>
            <path d="M160.528,208 L160.528,208.112 C160.32,208 160.208,208 160,208 L160.528,208 Z" id="Path" fill="#000000"></path>
        </g>
    </g>
</svg>