<svg id="bold" enable-background="new 0 0 32 32" height="512" viewBox="0 0 32 32" width="512" xmlns="http://www.w3.org/2000/svg"><path d="m26 32h-20c-3.314 0-6-2.686-6-6v-20c0-3.314 2.686-6 6-6h20c3.314 0 6 2.686 6 6v20c0 3.314-2.686 6-6 6z" fill="#f5e6fe"/><path d="m20.167 12h-2.333c-.202 0-.385-.122-.462-.309s-.035-.402.109-.545l2.333-2.333c.143-.143.358-.186.545-.108.187.077.309.26.309.462v2.333c-.001.276-.225.5-.501.5z" fill="#d9a4fc"/><path d="m11.833 16.667c-.064 0-.13-.012-.191-.038-.187-.077-.309-.26-.309-.462v-2.333c0-.276.224-.5.5-.5h2.333c.202 0 .385.122.462.309s.035.402-.109.545l-2.333 2.333c-.095.095-.222.146-.353.146z" fill="#d9a4fc"/><g fill="#be63f9"><circle cx="11" cy="19" r="1.667"/><path d="m12.167 21.333h-2.334c-1.011 0-1.833.823-1.833 1.834v.333c0 .276.224.5.5.5h5c.276 0 .5-.224.5-.5v-.333c0-1.011-.822-1.834-1.833-1.834z"/><circle cx="21" cy="19" r="1.667"/><path d="m22.167 21.333h-2.333c-1.011 0-1.833.822-1.833 1.833v.334c0 .276.224.5.5.5h5c.276 0 .5-.224.5-.5v-.333c-.001-1.011-.823-1.834-1.834-1.834z"/></g><path d="m12.107 12.413c-.051 0-.103-.006-.155-.018-.358-.085-.579-.444-.494-.803.503-2.115 2.371-3.592 4.542-3.592 1.236 0 2.399.478 3.276 1.346.261.259.264.681.005.943-.26.261-.681.264-.943.005-.625-.619-1.455-.96-2.337-.96-1.551 0-2.885 1.056-3.245 2.568-.074.305-.347.511-.649.511z" fill="#d9a4fc"/><path d="m16 17.333c-1.236 0-2.399-.478-3.276-1.346-.261-.259-.264-.681-.005-.943.26-.262.681-.264.943-.005.626.62 1.456.961 2.338.961 1.551 0 2.885-1.056 3.245-2.568.085-.358.445-.577.803-.494.358.085.579.444.494.803-.503 2.115-2.371 3.592-4.542 3.592z" fill="#d9a4fc"/></svg>