<svg enable-background="new 0 0 32 32" height="512" viewBox="0 0 32 32" width="512" xmlns="http://www.w3.org/2000/svg"><path d="m26 32h-20c-3.314 0-6-2.686-6-6v-20c0-3.314 2.686-6 6-6h20c3.314 0 6 2.686 6 6v20c0 3.314-2.686 6-6 6z" fill="#fff9dd"/><path d="m14.667 24c1.207 0 2.217-.86 2.449-2h-4.899c.233 1.14 1.242 2 2.45 2z" fill="#ffe777"/><path d="m19.5 16.667h-3c-.186 0-.357-.104-.443-.268-.087-.165-.074-.363.032-.516l2.456-3.549h-2.045c-.276 0-.5-.224-.5-.5s.224-.5.5-.5h3c.186 0 .357.104.443.268.087.165.074.363-.032.516l-2.456 3.549h2.045c.276 0 .5.224.5.5s-.224.5-.5.5z" fill="#ffe777"/><g fill="#ffd200"><path d="m23.5 12h-1.667c-.188 0-.359-.105-.445-.271s-.071-.367.038-.519l1.102-1.543h-.695c-.276 0-.5-.224-.5-.5s.224-.5.5-.5h1.667c.188 0 .359.105.445.271s.071.367-.038.519l-1.102 1.543h.695c.276 0 .5.224.5.5s-.224.5-.5.5z"/><path d="m20.919 19.275c-.531-.449-.939-1.009-1.209-1.63-.069.01-.138.021-.21.021h-3c-.561 0-1.07-.309-1.329-.806-.259-.493-.223-1.088.097-1.548l1.37-1.979h-.138c-.827 0-1.5-.673-1.5-1.5s.673-1.5 1.5-1.5h1.041c-.628-.491-1.382-.828-2.207-.947v-.72c-.001-.368-.299-.666-.667-.666s-.667.298-.667.667v.72c-2.258.325-4 2.267-4 4.613v1.859c0 1.319-.578 2.564-1.592 3.422-.259.222-.408.545-.408.886 0 .643.523 1.167 1.167 1.167h11c.643 0 1.167-.523 1.167-1.167 0-.341-.149-.664-.415-.892z"/></g></svg>