<?xml version="1.0" encoding="UTF-8"?>
<svg width="604px" height="529px" viewBox="0 0 604 529" version="1.1" xmlns="http://www.w3.org/2000/svg" xmlns:xlink="http://www.w3.org/1999/xlink">
    <title>icon_add_camera</title>
    <g id="Page-1" stroke="none" stroke-width="1" fill="none" fill-rule="evenodd">
        <g id="icon_add_camera" fill="#000000" fill-rule="nonzero">
            <path d="M591.32952,387.064463 C582.878798,372.586935 571.415933,361.124123 556.937909,352.67387 C542.457298,344.224049 526.64969,340 509.503017,340 C492.358067,340 476.545718,344.224049 462.067694,352.67387 C447.588808,361.12283 436.125943,372.585642 427.675221,387.064463 C419.224068,401.544145 415,417.356422 415,434.5 C415,451.64444 419.225361,467.454131 427.673928,481.934676 C436.124219,496.412203 447.587084,507.875015 462.06597,516.32613 C476.545718,524.77552 492.356774,529 509.501293,529 C526.645811,529 542.458591,524.77552 556.937478,516.32613 C571.415502,507.878032 582.877936,496.412203 591.327796,481.934676 C599.776363,467.455424 604,451.643578 604,434.5 C604,417.354698 599.776363,401.54199 591.32952,387.064463 Z M564,441.857389 C564,443.985028 563.221279,445.828868 561.665988,447.381598 C560.109406,448.935617 558.268598,449.715637 556.141844,449.715637 L524.713088,449.715637 L524.713088,481.141751 C524.713088,483.269391 523.933507,485.111511 522.379076,486.66897 C520.825504,488.22256 518.983406,489 516.854931,489 L501.141629,489 C499.014014,489 497.172346,488.22256 495.617484,486.66897 C494.062193,485.111941 493.284332,483.269821 493.284332,481.141751 L493.284332,449.715637 L461.856436,449.715637 C459.728822,449.715637 457.888014,448.936047 456.332292,447.381598 C454.777431,445.829298 454,443.985458 454,441.857389 L454,426.142181 C454,424.014542 454.777861,422.172852 456.332292,420.617972 C457.887584,419.062663 459.728392,418.284793 461.856436,418.284793 L493.285622,418.284793 L493.285622,386.856529 C493.285622,384.728459 494.063483,382.888059 495.618774,381.33232 C497.173636,379.77744 499.014874,379 501.142919,379 L516.857941,379 C518.985556,379 520.828084,379.77787 522.382086,381.33232 C523.936087,382.887629 524.716098,384.728459 524.716098,386.856529 L524.716098,418.284793 L556.141844,418.284793 C558.269458,418.284793 560.111556,419.062663 561.665988,420.617972 C563.221279,422.172422 564,424.014112 564,426.142181 L564,441.857389 Z" id="Shape"></path>
            <path d="M347.177,0.54 C357.266,0.54 367.115,3.921 376.728,10.678 C386.345,17.438 392.956,25.481 396.574,34.806 L396.574,34.806 L411.132,73.632 L475.085,73.632 C495.262,73.632 512.483,80.771 526.76,95.045 C541.03,109.32 548.16553,126.544 548.16553,146.721 L548.16553,146.721 L548.16553,312.218279 C536.453626,308.739495 524.033869,307 510.906,307 C475.692,307 445.572,319.513 420.544,344.544 C395.517,369.575 383,399.69 383,434.908 C383,449.334191 385.100907,462.907125 389.303064,475.625631 L73.089,475.625631 C52.911,475.625631 35.688,468.486 21.411,454.209 C7.137,439.938 0,422.712 0,402.534 L0,402.534 L0,146.721 C0,126.544 7.137,109.32 21.411,95.045 C35.688,80.771 52.91,73.632 73.089,73.632 L73.089,73.632 L137.042,73.632 L151.602,34.806 C155.219,25.481 161.831,17.438 171.444,10.678 C181.057,3.921 190.908,0.54 200.996,0.54 L200.996,0.54 L347.177,0.54 Z M274.084,146.727 C238.87,146.727 208.75,159.24 183.722,184.271 C158.695,209.302 146.178,239.417 146.178,274.635 C146.178,309.842 158.691,339.967 183.722,364.993 C208.753,390.023 238.869,402.541 274.084,402.541 C309.299,402.541 339.417,390.023 364.446,364.993 C389.477,339.964 401.991,309.842 401.991,274.635 C401.991,239.417 389.476,209.299 364.446,184.271 C339.417,159.243 309.298,146.727 274.084,146.727 Z" id="Combined-Shape"></path>
            <path d="M274.084,192.403 C251.433,192.403 232.066,200.445 215.982,216.531 C199.898,232.615 191.856,251.979 191.856,274.635 C191.856,297.282 199.898,316.649 215.982,332.733 C232.066,348.814 251.432,356.856 274.084,356.856 C296.732,356.856 316.101,348.814 332.185,332.733 C348.269,316.649 356.312,297.283 356.312,274.635 C356.312,251.98 348.269,232.616 332.185,216.531 C316.102,200.446 296.732,192.403 274.084,192.403 Z" id="Path"></path>
        </g>
    </g>
</svg>