<?xml version="1.0" encoding="UTF-8"?>
<svg width="512px" height="512px" viewBox="0 0 512 512" version="1.1" xmlns="http://www.w3.org/2000/svg" xmlns:xlink="http://www.w3.org/1999/xlink">
    <title>icon_share</title>
    <g id="Page-1" stroke="none" stroke-width="1" fill="none" fill-rule="evenodd">
        <g id="icon_share" fill="#000000" fill-rule="nonzero">
            <path d="M507.523438,148.890625 L368.855469,4.890625 C364.332031,0.199219 357.398438,-1.273438 351.363281,1.15625 C345.304688,3.609375 341.335938,9.476562 341.335938,16.003906 L341.335938,85.339844 L336.003906,85.339844 C221.316406,85.339844 128.003906,178.652344 128.003906,293.339844 L128.003906,325.339844 C128.003906,332.761719 133.230469,338.949219 140.460938,340.636719 C141.636719,340.933594 142.808594,341.0625 143.980469,341.0625 C150.019531,341.0625 155.800781,337.519531 158.59375,331.953125 C188.589844,271.941406 248.898438,234.671875 315.992188,234.671875 L341.335938,234.671875 L341.335938,304.003906 C341.335938,310.535156 345.304688,316.402344 351.363281,318.832031 C357.359375,321.285156 364.332031,319.792969 368.855469,315.097656 L507.523438,171.097656 C513.496094,164.890625 513.496094,155.121094 507.523438,148.890625 L507.523438,148.890625 Z" id="Path"></path>
            <path d="M448.003906,512.003906 L64.0039062,512.003906 C28.71875,512.003906 0.00390625,483.292969 0.00390625,448.003906 L0.00390625,149.339844 C0.00390625,114.054688 28.71875,85.339844 64.0039062,85.339844 L128.003906,85.339844 C139.800781,85.339844 149.335938,94.875 149.335938,106.671875 C149.335938,118.46875 139.800781,128.003906 128.003906,128.003906 L64.0039062,128.003906 C52.226562,128.003906 42.667969,137.5625 42.667969,149.339844 L42.667969,448.003906 C42.667969,459.78125 52.226562,469.339844 64.0039062,469.339844 L448.003906,469.339844 C459.777344,469.339844 469.335938,459.78125 469.335938,448.003906 L469.335938,277.339844 C469.335938,265.542969 478.871094,256.003906 490.667969,256.003906 C502.46875,256.003906 512.003906,265.542969 512.003906,277.339844 L512.003906,448.003906 C512.003906,483.292969 483.289062,512.003906 448.003906,512.003906 L448.003906,512.003906 Z" id="Path"></path>
        </g>
    </g>
</svg>