<?xml version="1.0" encoding="UTF-8"?>
<svg width="129px" height="118px" viewBox="0 0 129 118" version="1.1" xmlns="http://www.w3.org/2000/svg" xmlns:xlink="http://www.w3.org/1999/xlink">
    <title>icon_assignment_video</title>
    <g id="Page-1" stroke="none" stroke-width="1" fill="none" fill-rule="evenodd">
        <g id="icon_assignment_video" transform="translate(2.000000, 2.000000)">
            <rect id="Rectangle" stroke="#231F20" stroke-width="3.31" fill="#FFFFFF" fill-rule="nonzero" stroke-linecap="round" stroke-linejoin="round" x="2.14" y="25.86" width="123.14" height="88.1"></rect>
            <rect id="Rectangle" fill="#41BEEE" fill-rule="nonzero" transform="translate(62.597315, 13.224034) rotate(-6.560000) translate(-62.597315, -13.224034) " x="1.02731512" y="7.02903445" width="123.14" height="12.39"></rect>
            <rect id="Rectangle" stroke="#231F20" stroke-width="3.31" stroke-linecap="round" stroke-linejoin="round" transform="translate(62.597315, 13.224034) rotate(-6.560000) translate(-62.597315, -13.224034) " x="1.02731512" y="7.02903445" width="123.14" height="12.39"></rect>
            <polygon id="Path" stroke="#231F20" stroke-width="3.31" stroke-linecap="round" stroke-linejoin="round" points="11.68 25.2 2.41 26.27 13.02 12.69 22.3 11.62"></polygon>
            <polygon id="Path" stroke="#231F20" stroke-width="3.31" stroke-linecap="round" stroke-linejoin="round" points="28.47 23.27 19.2 24.33 29.82 10.76 39.09 9.69"></polygon>
            <polygon id="Path" stroke="#231F20" stroke-width="3.31" stroke-linecap="round" stroke-linejoin="round" points="45.27 21.34 35.99 22.4 46.61 8.83 55.88 7.76"></polygon>
            <polygon id="Path" stroke="#231F20" stroke-width="3.31" stroke-linecap="round" stroke-linejoin="round" points="62.06 19.41 52.79 20.47 63.41 6.9 72.67 5.83"></polygon>
            <polygon id="Path" stroke="#231F20" stroke-width="3.31" stroke-linecap="round" stroke-linejoin="round" points="78.85 17.48 69.58 18.54 80.2 4.96 89.47 3.9"></polygon>
            <polygon id="Path" stroke="#231F20" stroke-width="3.31" stroke-linecap="round" stroke-linejoin="round" points="95.64 15.54 86.37 16.61 96.99 3.03 106.26 1.97"></polygon>
            <polygon id="Path" stroke="#231F20" stroke-width="3.31" stroke-linecap="round" stroke-linejoin="round" points="112.44 13.61 103.17 14.68 113.78 1.1 123.05 0.04"></polygon>
            <rect id="Rectangle" fill="#41BEEE" fill-rule="nonzero" x="2.14" y="101.57" width="123.14" height="12.39"></rect>
            <rect id="Rectangle" stroke="#231F20" stroke-width="3.31" stroke-linecap="round" stroke-linejoin="round" x="2.14" y="101.57" width="123.14" height="12.39"></rect>
            <polygon id="Path" stroke="#231F20" stroke-width="3.31" stroke-linecap="round" stroke-linejoin="round" points="11.75 113.85 2.42 113.85 14.52 101.57 23.85 101.57"></polygon>
            <polygon id="Path" stroke="#231F20" stroke-width="3.31" stroke-linecap="round" stroke-linejoin="round" points="28.66 113.85 19.33 113.85 31.43 101.57 40.76 101.57"></polygon>
            <polygon id="Path" stroke="#231F20" stroke-width="3.31" stroke-linecap="round" stroke-linejoin="round" points="45.56 113.85 36.23 113.85 48.33 101.57 57.66 101.57"></polygon>
            <polygon id="Path" stroke="#231F20" stroke-width="3.31" stroke-linecap="round" stroke-linejoin="round" points="62.47 113.85 53.14 113.85 65.23 101.57 74.56 101.57"></polygon>
            <polygon id="Path" stroke="#231F20" stroke-width="3.31" stroke-linecap="round" stroke-linejoin="round" points="79.37 113.85 70.04 113.85 82.14 101.57 91.47 101.57"></polygon>
            <polygon id="Path" stroke="#231F20" stroke-width="3.31" stroke-linecap="round" stroke-linejoin="round" points="96.27 113.85 86.94 113.85 99.04 101.57 108.37 101.57"></polygon>
            <polygon id="Path" stroke="#231F20" stroke-width="3.31" stroke-linecap="round" stroke-linejoin="round" points="113.18 113.85 103.85 113.85 115.94 101.57 125.28 101.57"></polygon>
            <polygon id="Path" fill="#41BEEE" fill-rule="nonzero" points="48.2 46.08 79.22 63.99 48.2 81.91"></polygon>
            <polygon id="Path" stroke="#231F20" stroke-width="3.31" stroke-linecap="round" stroke-linejoin="round" points="48.2 46.08 79.22 63.99 48.2 81.91"></polygon>
        </g>
    </g>
</svg>