<?xml version="1.0" encoding="UTF-8"?>
<svg width="61px" height="61px" viewBox="0 0 61 61" version="1.1" xmlns="http://www.w3.org/2000/svg" xmlns:xlink="http://www.w3.org/1999/xlink">
    <title>whatsapp</title>
    <g id="Page-1" stroke="none" stroke-width="1" fill="none" fill-rule="evenodd">
        <g id="whatsapp" transform="translate(1.000000, 1.000000)" fill-rule="nonzero">
            <path d="M0,58 L4.988,43.037 C2.457,38.78 1,33.812 1,28.5 C1,12.76 13.76,0 29.5,0 C45.24,0 58,12.76 58,28.5 C58,44.24 45.24,57 29.5,57 C24.711,57 20.201,55.813 16.24,53.727 L0,58 Z" id="Path" stroke="#FCC632" stroke-width="2" fill="#FFF9DD" transform="translate(29.000000, 29.000000) scale(-1, 1) translate(-29.000000, -29.000000) "></path>
            <g id="icon_light_bulb" transform="translate(16.000000, 13.000000)">
                <path d="M19,25.6818182 L19,28.8623636 C19,31.306 17.419,33.3181818 15.499,33.3181818 L10.498,33.3181818 C8.821,33.3181818 7,31.6878182 7,28.1254545 L7,25.6818182 L19,25.6818182 Z" id="Path" fill="#FA9C28"></path>
                <path d="M21.192034,2.68494595 C18.1473729,0.392445031 14.1361084,-0.501811246 10.2167687,0.273555468 C5.29461298,1.22208742 1.30284772,4.94384765 0.280532398,9.50817304 C-0.758496523,14.1939726 1.1357117,18.8461728 5.18318897,21.6891841 C6.27792989,22.446459 7.04118438,23.6198472 7.30024521,24.9793236 L7.30024521,24.9974154 C7.33924361,24.9819081 7.39495562,24.9819081 7.43116843,24.9819081 L18.5735697,24.9819081 C18.6097825,24.9819081 18.6292817,24.9819081 18.6654945,25 L18.6654945,24.9819081 C18.9245554,23.6715384 19.7602355,22.4671354 21.0416116,21.5366953 C24.1809832,19.2286871 25.9999868,15.7808898 25.9999868,12.0591295 C26.0027658,8.40715231 24.2561944,4.99553876 21.192034,2.68494595 L21.192034,2.68494595 Z M19.9663699,12.9197866 C19.205901,12.9197866 18.5735697,12.3330924 18.5735697,11.6275087 C18.5735697,9.00935379 16.2893775,6.8900181 13.4675643,6.8900181 C12.7070954,6.8900181 12.0747642,6.30332395 12.0747642,5.59774024 C12.0747642,4.89215653 12.7070954,4.30546238 13.4675643,4.30546238 C17.8131008,4.30546238 21.35917,7.59560181 21.35917,11.6275087 C21.35917,12.335677 20.7268388,12.9197866 19.9663699,12.9197866 Z" id="Shape" fill="#FA9C28"></path>
                <path d="M6.93635417,25.9907031 L7.06364583,25.9907031 C7.0284375,25.9907031 6.97427083,25.9907031 6.93635417,26.0092969 L6.93635417,25.9907031 Z" id="Path" fill="#000000"></path>
                <path d="M19.0446875,25.9907031 L19.0446875,26.0092969 C19.0094792,25.9907031 18.9905208,25.9907031 18.9553125,25.9907031 L19.0446875,25.9907031 Z" id="Path" fill="#000000"></path>
            </g>
        </g>
    </g>
</svg>