<?xml version="1.0" encoding="UTF-8"?>
<svg width="517px" height="599px" viewBox="0 0 517 599" version="1.1" xmlns="http://www.w3.org/2000/svg" xmlns:xlink="http://www.w3.org/1999/xlink">
    <title>image</title>
    <g id="Page-1" stroke="none" stroke-width="1" fill="none" fill-rule="evenodd">
        <g id="image" fill="#000000" fill-rule="nonzero">
            <path d="M128,234.667969 C151.53125,234.667969 170.667969,215.53125 170.667969,192 C170.667969,168.46875 151.53125,149.332031 128,149.332031 C104.46875,149.332031 85.332031,168.46875 85.332031,192 C85.332031,215.53125 104.46875,234.667969 128,234.667969 Z" id="Path"></path>
            <path d="M500.575304,415.009488 C489.620664,396.242323 474.761395,381.383122 455.993585,370.429091 C437.222424,359.475619 416.73108,354 394.503911,354 C372.278976,354 351.781487,359.475619 333.013677,370.429091 C314.244751,381.381446 299.385482,396.240647 288.430842,415.009488 C277.475644,433.779447 272,454.276843 272,476.5 C272,498.724275 277.47732,519.218318 288.429166,537.989394 C299.383247,556.756559 314.242516,571.615761 333.011443,582.570909 C351.781487,593.523823 372.2773,599 394.501676,599 C416.726052,599 437.2241,593.523823 455.993027,582.570909 C474.760836,571.619671 489.619547,556.756559 500.573069,537.989394 C511.524915,519.219994 517,498.723157 517,476.5 C517,454.274608 511.524915,433.776654 500.575304,415.009488 Z M466,486.714605 C466,489.480537 464.987663,491.877528 462.965784,493.896077 C460.942228,495.916302 458.549178,496.930328 455.784397,496.930328 L414.927014,496.930328 L414.927014,537.784277 C414.927014,540.550208 413.913559,542.944964 411.892798,544.969662 C409.873155,546.989328 407.478428,548 404.711411,548 L384.284117,548 C381.518218,548 379.12405,546.989328 377.10273,544.969662 C375.080851,542.945523 374.069632,540.550767 374.069632,537.784277 L374.069632,496.930328 L333.213367,496.930328 C330.447468,496.930328 328.054418,495.916861 326.03198,493.896077 C324.01066,491.878087 323,489.481096 323,486.714605 L323,466.284836 C323,463.518904 324.011219,461.124708 326.03198,459.103364 C328.053859,457.081462 330.446909,456.070231 333.213367,456.070231 L374.071309,456.070231 L374.071309,415.213487 C374.071309,412.446997 375.082528,410.054477 377.104407,408.032015 C379.125727,406.010672 381.519336,405 384.285794,405 L404.715324,405 C407.481223,405 409.876509,406.011231 411.896711,408.032015 C413.916913,410.053918 414.930927,412.446997 414.930927,415.213487 L414.930927,456.070231 L455.784397,456.070231 C458.550296,456.070231 460.945023,457.081462 462.965784,459.103364 C464.987663,461.124149 466,463.518345 466,466.284836 L466,486.714605 Z" id="Shape"></path>
            <path d="M362.667969,0 C398.015625,0 426.667969,28.652344 426.667969,64 L426.667969,64 L426.669181,331.463974 C413.0224,327.261975 398.525356,325 383.5,325 C302.590284,325 237,390.590284 237,471.5 C237,485.550458 238.977968,499.138938 242.670642,512.002178 L64,512 C28.652344,512 0,483.347656 0,448 L0,448 L0,64 C0,28.652344 28.652344,0 64,0 L64,0 Z M362.667969,42.667969 L64,42.667969 C52.222656,42.667969 42.667969,52.222656 42.667969,64 L42.667969,64 L42.667969,340.03125 L80.214844,302.484375 C94.804688,287.871094 118.507812,287.871094 133.121094,302.484375 L133.121094,302.484375 L160,329.367188 L261.546875,227.820312 C276.136719,213.207031 299.839844,213.207031 314.453125,227.820312 L314.453125,227.820312 L384,297.367188 L384,64 C384,52.222656 374.441406,42.667969 362.667969,42.667969 L362.667969,42.667969 Z" id="Combined-Shape"></path>
        </g>
    </g>
</svg>