<svg height="452pt" viewBox="0 -1 452.65745 452" width="452pt" xmlns="http://www.w3.org/2000/svg"><path d="m64.820312 22.726562s6.816407 25.316407 26.445313 26.492188c0 0-26.199219 9.050781-26.640625 28.402344 0 0-5.15625-27.140625-25.851562-28.117188 0 .003906 24.101562-3.648437 26.046874-26.777344zm0 0" fill="#d5de58"/><path d="m64.625 80.621094c-1.425781 0-2.671875-1.011719-2.945312-2.433594-.050782-.25-4.988282-24.835938-23.046876-25.6875-1.542968-.070312-2.777343-1.300781-2.855468-2.839844-.082032-1.542968 1.019531-2.890625 2.542968-3.125.882813-.132812 21.792969-3.628906 23.511719-24.058594.121094-1.453124 1.269531-2.605468 2.714844-2.734374 1.484375-.125 2.789063.796874 3.167969 2.203124.0625.230469 6.519531 23.25 23.726562 24.28125 1.429688.085938 2.59375 1.167969 2.792969 2.585938.195313 1.414062-.636719 2.773438-1.988281 3.242188-.242188.085937-24.234375 8.621093-24.625 25.636718-.035156 1.535156-1.21875 2.792969-2.75 2.921875-.078125.003907-.164063.007813-.246094.007813zm-15.484375-31.457032c7.753906 3.9375 12.460937 11.492188 15.171875 17.753907 4.054688-8.042969 11.882812-13.574219 17.898438-16.851563-8.269532-3.6875-13.566407-11.304687-16.667969-17.449218-3.585938 8.722656-10.539063 13.738281-16.402344 16.546874zm0 0" fill="#3a312a"/><path d="m21.425781 56.6875s4.824219 17.910156 18.703125 18.738281c0 0-18.53125 6.402344-18.84375 20.089844 0 0-3.648437-19.199219-18.28125-19.886719-.003906 0 17.042969-2.582031 18.421875-18.941406zm0 0" fill="#d5de58"/><path d="m21.285156 98.515625c-1.429687 0-2.675781-1.011719-2.945312-2.4375-.035156-.164063-3.410156-16.886719-15.480469-17.457031-1.539063-.070313-2.7734375-1.296875-2.85546875-2.839844-.07812505-1.539062 1.02343775-2.886719 2.54687475-3.121094.589844-.09375 14.726563-2.484375 15.882813-16.226562.125-1.449219 1.273437-2.605469 2.722656-2.734375 1.429688-.113281 2.785156.796875 3.164062 2.203125.042969.160156 4.453126 15.839844 15.984376 16.53125 1.429687.082031 2.597656 1.167968 2.792968 2.585937.195313 1.417969-.640625 2.773438-1.992187 3.242188-.160157.058593-16.5625 5.90625-16.824219 17.324219-.035156 1.535156-1.222656 2.792968-2.75 2.921874-.082031.007813-.164062.007813-.246094.007813zm-9.042968-23.054687c4.214843 2.667968 7.046874 6.792968 8.894531 10.5625 2.753906-4.464844 7.03125-7.746094 10.730469-9.945313-4.574219-2.539063-7.769532-6.703125-9.882813-10.449219-2.347656 4.574219-6.03125 7.75-9.742187 9.832032zm0 0" fill="#3a312a"/><path d="m21.425781 3.371094s4.824219 17.910156 18.703125 18.742187c0 0-18.53125 6.402344-18.84375 20.089844 0 0-3.648437-19.199219-18.28125-19.886719-.003906 0 17.042969-2.582031 18.421875-18.945312zm0 0" fill="#d5de58"/><path d="m21.285156 45.203125c-1.429687 0-2.675781-1.015625-2.945312-2.441406-.035156-.164063-3.410156-16.882813-15.480469-17.453125-1.539063-.070313-2.7734375-1.300782-2.85546875-2.84375-.07812505-1.539063 1.02343775-2.886719 2.54687475-3.121094.589844-.09375 14.726563-2.484375 15.882813-16.226562.125-1.449219 1.273437-2.605469 2.722656-2.734376 1.429688-.125 2.785156.796876 3.164062 2.203126.042969.160156 4.453126 15.839843 15.984376 16.53125 1.429687.085937 2.597656 1.167968 2.792968 2.585937.195313 1.417969-.640625 2.78125-1.992187 3.246094-.160157.054687-16.5625 5.902343-16.824219 17.320312-.035156 1.539063-1.222656 2.796875-2.75 2.921875-.082031.007813-.164062.011719-.246094.011719zm-9.042968-23.054687c4.214843 2.664062 7.046874 6.789062 8.894531 10.558593 2.753906-4.464843 7.035156-7.742187 10.730469-9.945312-4.574219-2.539063-7.769532-6.699219-9.882813-10.449219-2.347656 4.578125-6.03125 7.753906-9.742187 9.835938zm0 0" fill="#3a312a"/><path d="m325.875 77.269531v93.519531h-59.941406v-93.519531c0-7.699219 6.242187-13.941406 13.941406-13.941406h32.058594c7.699218 0 13.941406 6.242187 13.941406 13.941406zm0 0" fill="#89c4db"/><path d="m325.875 173.789062h-59.941406c-1.65625 0-3-1.34375-3-3v-93.519531c0-9.339843 7.601562-16.941406 16.941406-16.941406h32.058594c9.339844 0 16.941406 7.601563 16.941406 16.941406v93.519531c0 1.65625-1.34375 3-3 3zm-56.941406-6h53.941406v-90.519531c0-6.03125-4.910156-10.941406-10.941406-10.941406h-32.058594c-6.03125 0-10.941406 4.910156-10.941406 10.941406zm0 0" fill="#3a312a"/><path d="m265.933594 127.289062h59.941406v43.5h-59.941406zm0 0" fill="#f6e2c6"/><path d="m325.875 173.789062h-59.941406c-1.65625 0-3-1.34375-3-3v-43.5c0-1.65625 1.34375-3 3-3h59.941406c1.65625 0 3 1.34375 3 3v43.5c0 1.65625-1.34375 3-3 3zm-56.941406-6h53.941406v-37.5h-53.941406zm0 0" fill="#3a312a"/><path d="m274.355469 37.890625-12.382813 48.457031-18.617187 72.921875-2.941407 11.519531h-61.859374l6.71875-26.359374 18.621093-72.902344 12.378907-48.480469c1.902343-7.457031 9.5-11.957031 16.960937-10.039063l31.058594 7.921876c7.460937 1.917968 11.960937 9.5 10.0625 16.960937zm0 0" fill="#89c4db"/><path d="m240.414062 173.789062h-61.859374c-.925782 0-1.800782-.429687-2.371094-1.160156-.566406-.730468-.765625-1.683594-.539063-2.582031l37.71875-147.738281c1.117188-4.382813 3.875-8.070313 7.769531-10.375 3.898438-2.3125 8.460938-2.957032 12.847657-1.832032l31.054687 7.921876c9.042969 2.328124 14.523438 11.570312 12.222656 20.605468l-33.941406 132.902344c-.335937 1.328125-1.53125 2.257812-2.902344 2.257812zm-57.996093-6h55.667969l33.363281-130.640624c1.484375-5.835938-2.058594-11.808594-7.902344-13.3125l-31.054687-7.917969c-2.835938-.730469-5.78125-.3125-8.292969 1.179687-2.515625 1.488282-4.296875 3.863282-5.015625 6.691406zm91.9375-129.898437h.019531zm0 0" fill="#3a312a"/><path d="m185.277344 144.433594 18.617187-72.910156 58.074219 14.832031-18.617188 72.910156zm0 0" fill="#f6e2c6"/><path d="m243.359375 162.265625c-.246094 0-.496094-.027344-.742187-.09375l-58.078126-14.828125c-1.605468-.410156-2.574218-2.042969-2.164062-3.648438l18.617188-72.910156c.199218-.773437.695312-1.433594 1.378906-1.839844.6875-.40625 1.503906-.523437 2.273437-.324218l58.078125 14.828125c.769532.199219 1.429688.695312 1.835938 1.378906s.527344 1.5.328125 2.273437l-18.621094 72.910157c-.347656 1.351562-1.566406 2.253906-2.90625 2.253906zm-54.429687-19.996094 52.265624 13.347657 17.132813-67.097657-52.265625-13.347656zm0 0" fill="#3a312a"/><path d="m200.074219 82.308594-38.101563 88.480468h-65.257812l28.519531-66.242187 19.78125-45.9375c3.039063-7.082031 11.238281-10.339844 18.320313-7.300781l29.4375 12.679687c7.082031 3.058594 10.339843 11.261719 7.300781 18.320313zm0 0" fill="#89c4db"/><path d="m161.972656 173.789062h-65.261718c-1.007813 0-1.949219-.507812-2.503907-1.351562-.554687-.84375-.648437-1.910156-.25-2.835938l48.300781-112.179687c3.683594-8.578125 13.671876-12.5625 22.257813-8.871094l29.445313 12.683594c8.578124 3.707031 12.554687 13.695313 8.871093 22.261719l-38.101562 88.480468c-.472657 1.101563-1.558594 1.8125-2.757813 1.8125zm-60.699218-6h58.726562l37.316406-86.667968c2.382813-5.53125-.191406-11.980469-5.730468-14.378906l-29.441407-12.675782c-5.546875-2.382812-11.996093.1875-14.375 5.726563zm98.800781-85.480468h.019531zm0 0" fill="#3a312a"/><path d="m180.273438 128.25-18.320313 42.539062h-65.238281l28.519531-66.242187zm0 0" fill="#f6e2c6"/><path d="m161.957031 173.789062h-65.246093c-1.007813 0-1.949219-.507812-2.503907-1.351562-.554687-.84375-.648437-1.910156-.25-2.835938l28.519531-66.238281c.316407-.734375.90625-1.304687 1.648438-1.601562.738281-.292969 1.566406-.28125 2.296875.03125l55.039063 23.703125c1.519531.65625 2.222656 2.417968 1.566406 3.941406l-18.316406 42.542969c-.476563 1.097656-1.558594 1.808593-2.753907 1.808593zm-60.683593-6h58.707031l16.351562-37.96875-49.53125-21.328124zm0 0" fill="#3a312a"/><path d="m406.273438 17.269531v153.519531h-59.9375v-153.519531c0-7.699219 6.238281-13.941406 13.9375-13.941406h32.0625c7.699218 0 13.9375 6.242187 13.9375 13.941406zm0 0" fill="#89c4db"/><path d="m406.273438 173.789062h-59.9375c-1.65625 0-3-1.34375-3-3v-153.519531c0-9.339843 7.597656-16.941406 16.9375-16.941406h32.0625c9.339843 0 16.9375 7.601563 16.9375 16.941406v153.519531c0 1.65625-1.34375 3-3 3zm-56.9375-6h53.9375v-150.519531c0-6.03125-4.90625-10.941406-10.9375-10.941406h-32.0625c-6.03125 0-10.9375 4.910156-10.9375 10.941406zm0 0" fill="#3a312a"/><path d="m346.335938 67.292969h59.9375v75.25h-59.9375zm0 0" fill="#f6e2c6"/><path d="m406.273438 145.539062h-59.9375c-1.65625 0-3-1.34375-3-3v-75.246093c0-1.65625 1.34375-3 3-3h59.9375c1.65625 0 3 1.34375 3 3v75.246093c0 1.65625-1.34375 3-3 3zm-56.9375-6h53.9375v-69.246093h-53.9375zm0 0" fill="#3a312a"/><path d="m219.984375 170.808594v277.460937c0 .011719.011719.019531.023437.019531h184c7.925782 0 14.351563-6.425781 14.351563-14.351562v-263.140625h-198.363281c-.007813-.003906-.011719.003906-.011719.011719zm0 0" fill="#ed6e7a"/><path d="m404.003906 451.285156h-183.996094c-1.65625 0-3.023437-1.363281-3.023437-3.019531v-277.457031c0-1.65625 1.355469-3.015625 3.011719-3.015625h198.363281c1.65625 0 3 1.347656 3 3v263.140625c0 9.570312-7.789063 17.351562-17.355469 17.351562zm-181.019531-6h181.019531c6.261719 0 11.355469-5.089844 11.355469-11.351562v-260.140625h-192.375zm0 0" fill="#3a312a"/><path d="m35.160156 373.699219v60.238281c0 7.925781 6.425782 14.351562 14.351563 14.351562h170.4375c.011719 0 .019531-.007812.019531-.019531v-277.464843c0-.007813-.003906-.011719-.011719-.011719h-184.796875zm0 0" fill="#ed6e7a"/><path d="m219.949219 451.285156h-170.4375c-9.566407 0-17.351563-7.78125-17.351563-17.347656v-60.238281c0-1.65625 1.34375-3 3-3s3 1.34375 3 3v60.238281c0 6.257812 5.09375 11.347656 11.351563 11.347656h167.457031v-271.492187h-178.808594v173.457031c0 1.65625-1.34375 3-3 3s-3-1.34375-3-3v-176.457031c0-1.652344 1.34375-3 3-3h184.796875c1.65625 0 3.011719 1.355469 3.011719 3.011719v277.464843c0 1.65625-1.363281 3.015625-3.019531 3.015625zm0 0" fill="#3a312a"/><path d="m324.140625 261.941406h111.167969c10.273437 0 17.210937-10.476562 13.207031-19.933594l-30.160156-71.210937h-198.378907l34.90625 82.398437c2.246094 5.304688 7.445313 8.75 13.207032 8.75h56.050781zm0 0" fill="#ed6e7a"/><path d="m435.308594 264.941406h-111.167969c-1.65625 0-3-1.34375-3-3s1.34375-3 3-3h111.167969c3.875 0 7.316406-1.851562 9.457031-5.078125 2.136719-3.222656 2.5-7.121093.988281-10.6875l-29.382812-69.382812h-191.863282l33.132813 78.230469c1.785156 4.203124 5.882813 6.917968 10.449219 6.917968h30.4375c1.65625 0 3 1.34375 3 3s-1.34375 3-3 3h-30.4375c-6.976563 0-13.246094-4.152344-15.96875-10.574218l-34.90625-82.402344c-.390625-.925782-.292969-1.988282.261718-2.824219.554688-.84375 1.496094-1.347656 2.5-1.347656h198.382813c1.203125 0 2.289063.722656 2.761719 1.832031l30.15625 71.210938c2.277344 5.371093 1.710937 11.480468-1.507813 16.34375-3.222656 4.859374-8.628906 7.761718-14.460937 7.761718zm0 0" fill="#3a312a"/><path d="m219.976562 170.792969-32.386718 82.070312c-2.164063 5.480469-7.453125 9.078125-13.339844 9.078125h-153.976562c-10.117188 0-17.054688-10.195312-13.339844-19.605468l28.226562-71.542969zm0 0" fill="#ed6e7a"/><path d="m174.25 264.941406h-153.976562c-5.742188 0-11.101563-2.835937-14.335938-7.585937-3.230469-4.75-3.902344-10.773438-1.792969-16.121094l28.226563-71.542969c.453125-1.144531 1.558594-1.898437 2.789062-1.898437h184.816406c.992188 0 1.921876.492187 2.480469 1.3125.558594.820312.675781 1.867187.3125 2.792969l-32.390625 82.066406c-2.632812 6.667968-8.960937 10.976562-16.128906 10.976562zm-137.046875-91.148437-27.476563 69.644531c-1.402343 3.546875-.972656 7.390625 1.171876 10.542969 2.144531 3.152343 5.5625 4.960937 9.378906 4.960937h153.972656c4.6875 0 8.828125-2.820312 10.546875-7.179687l30.773437-77.96875zm0 0" fill="#3a312a"/><g fill="#d34e5c"><path d="m415.355469 264.949219v168.980469c0 6.257812-5.101563 11.359374-11.363281 11.359374h-30c6.261718 0 11.363281-5.101562 11.363281-11.359374v-168.980469zm0 0"/><path d="m444.773438 253.867188c-2.140626 3.222656-5.597657 5.082031-9.460938 5.082031h-30c3.863281 0 7.320312-1.859375 9.460938-5.082031 2.121093-3.21875 2.480468-7.117188.980468-10.699219l-29.378906-69.378907h30l29.378906 69.378907c1.5 3.582031 1.140625 7.480469-.980468 10.699219zm0 0"/></g></svg>