<?xml version="1.0" encoding="UTF-8"?>
<svg width="398px" height="369px" viewBox="0 0 398 369" version="1.1" xmlns="http://www.w3.org/2000/svg" xmlns:xlink="http://www.w3.org/1999/xlink">
    <title>OBJECTS</title>
    <g id="Page-1" stroke="none" stroke-width="1" fill="none" fill-rule="evenodd">
        <g id="518130-PIYI3W-915" transform="translate(-54.000000, -60.000000)" fill-rule="nonzero">
            <g id="OBJECTS" transform="translate(54.000000, 60.000000)">
                <g id="Group" transform="translate(0.000000, 48.000000)">
                    <path d="M109.43,274.67 C86.4,271.89 14.8,254.06 11.99,214.71 C9.18,175.36 47.59,152.87 50.4,138.82 C53.21,124.77 15.47,94.48 36.18,50.93 C58.7,3.57 130.04,-9.22 169.39,7.65 C208.74,24.51 283.41,-10.5 320.89,33.54 C358.37,77.58 323.99,126.64 336.17,149.13 C348.35,171.62 381.31,219.38 339.2,262.41 C299.09,303.37 163.77,281.23 109.43,274.67 Z" id="Path" fill="#B6F1FF"></path>
                    <path d="M169.39,24.65 C230.9,36.78 335.23,-12.05 338.63,92.93 C340.04,74.02 337.68,53.27 320.88,33.54 C283.4,-10.5 208.73,24.52 169.38,7.65 C130.03,-9.21 58.69,3.57 36.17,50.93 C30.06,63.78 29.04,75.48 30.56,85.94 C44.18,5.34 114.15,13.76 169.39,24.65 Z" id="Path" fill="#9DECF9"></path>
                    <ellipse id="Oval" fill="#96E9FF" transform="translate(370.777784, 130.135300) rotate(-52.525033) translate(-370.777784, -130.135300) " cx="370.777784" cy="130.1353" rx="20.5995006" ry="17.8495673"></ellipse>
                    <circle id="Oval" fill="#96E9FF" transform="translate(12.824133, 135.617041) rotate(-76.443202) translate(-12.824133, -135.617041) " cx="12.824133" cy="135.617041" r="10.5295881"></circle>
                    <circle id="Oval" fill="#96E9FF" cx="11.46" cy="80.22" r="7.32"></circle>
                </g>
                <path d="M104.45,156.98 L104.45,156.98 C104.44,156.98 104.44,156.98 104.45,156.98 C103.92,156.9 103.38,156.85 102.85,156.8 C102.74,156.79 102.63,156.78 102.53,156.78 C101.98,156.74 101.43,156.72 100.87,156.72 C100.87,156.72 100.87,156.72 100.86,156.72 L100.86,156.72 C97.86,156.72 94.98,157.25 92.31,158.23 C90.41,158.93 88.61,159.85 86.96,160.97 C86.63,161.19 86.3,161.42 85.99,161.66 C85.67,161.9 85.36,162.14 85.05,162.4 C84.74,162.66 84.44,162.91 84.15,163.18 C83.27,163.98 82.44,164.85 81.68,165.77 C81.17,166.38 80.7,167.02 80.25,167.68 C78.91,169.66 77.85,171.85 77.12,174.19 C76.39,176.52 76,179.01 76,181.58 C76,182.01 76.01,182.43 76.03,182.85 C76.04,183.08 76.06,183.3 76.08,183.52 C76.1,183.71 76.1,183.91 76.12,184.1 C76.15,184.41 76.19,184.72 76.24,185.03 C76.25,185.13 76.26,185.24 76.28,185.34 C76.34,185.71 76.4,186.07 76.47,186.43 C76.48,186.47 76.48,186.52 76.49,186.56 C78.8,197.9 88.82,206.44 100.85,206.44 C114.58,206.44 125.71,195.31 125.71,181.58 C125.71,169.07 116.47,158.72 104.45,156.98 Z" id="Path" fill="#82DCF2"></path>
                <path d="M144.89,66.27 L144.89,66.27 C144.89,66.27 144.89,66.27 144.89,66.27 C144.46,66.21 144.03,66.16 143.59,66.13 C143.5,66.12 143.42,66.12 143.33,66.11 C142.89,66.08 142.44,66.06 141.99,66.06 C141.99,66.06 141.99,66.06 141.99,66.06 L141.99,66.06 C139.56,66.06 137.24,66.49 135.08,67.28 C133.54,67.84 132.09,68.59 130.76,69.49 C130.49,69.67 130.23,69.86 129.97,70.05 C129.71,70.24 129.46,70.44 129.21,70.65 C128.96,70.85 128.72,71.07 128.48,71.28 C127.77,71.93 127.1,72.63 126.49,73.37 C126.08,73.87 125.69,74.38 125.33,74.92 C124.25,76.52 123.39,78.29 122.8,80.18 C122.21,82.07 121.9,84.07 121.9,86.15 C121.9,86.5 121.91,86.84 121.93,87.18 C121.94,87.36 121.96,87.54 121.97,87.72 C121.98,87.88 121.99,88.04 122.01,88.19 C122.04,88.44 122.07,88.69 122.1,88.94 C122.11,89.02 122.12,89.11 122.13,89.19 C122.17,89.49 122.23,89.78 122.29,90.07 C122.3,90.1 122.3,90.14 122.31,90.17 C124.17,99.34 132.28,106.24 142,106.24 C153.09,106.24 162.09,97.25 162.09,86.15 C162.07,76.04 154.61,67.68 144.89,66.27 Z" id="Path" fill="#82DCF2"></path>
                <g id="Group" transform="translate(72.000000, 138.000000)">
                    <circle id="Oval" fill="#FFC200" transform="translate(28.850215, 29.248227) rotate(-80.943670) translate(-28.850215, -29.248227) " cx="28.850215" cy="29.248227" r="24.8591424"></circle>
                    <path d="M28.85,12.19 C39.72,12.19 48.64,20.51 49.6,31.13 C49.66,30.5 49.69,29.87 49.69,29.23 C49.69,17.72 40.36,8.39 28.85,8.39 C17.34,8.39 8.01,17.72 8.01,29.23 C8.01,29.87 8.04,30.5 8.1,31.13 C9.06,20.51 17.98,12.19 28.85,12.19 Z" id="Path" fill="#FFA100"></path>
                    <path d="M28.85,8.81 C40.11,8.81 49.27,17.97 49.27,29.23 C49.27,40.49 40.11,49.65 28.85,49.65 C17.59,49.65 8.43,40.49 8.43,29.23 C8.43,17.97 17.59,8.81 28.85,8.81 M28.85,4.37 C15.12,4.37 3.99,15.5 3.99,29.23 C3.99,42.96 15.12,54.09 28.85,54.09 C42.58,54.09 53.71,42.96 53.71,29.23 C53.71,15.5 42.58,4.37 28.85,4.37 L28.85,4.37 Z" id="Shape" fill="#FFE450"></path>
                    <path d="M28.85,8.81 L28.85,4.38 C15.12,4.38 3.99,15.51 3.99,29.24 L8.42,29.24 C8.43,17.97 17.59,8.81 28.85,8.81 Z" id="Path" fill="#FAF582"></path>
                    <path d="M28.85,4.37 C15.12,4.37 3.99,15.5 3.99,29.23 C3.99,32.64 4.68,35.89 5.92,38.84 C7.68,39.25 9.51,39.48 11.39,39.48 C24.53,39.48 35.17,28.83 35.17,15.7 C35.17,11.7 34.18,7.94 32.44,4.64 C31.27,4.46 30.07,4.37 28.85,4.37 L28.85,4.37 Z" id="Path" fill="#FFFFFF" opacity="0.2"></path>
                    <g transform="translate(20.000000, 20.000000)" id="Path">
                        <polygon fill="#C97800" points="17.48 20.39 13.47 20.39 13.47 12.05 5.65 12.05 5.65 20.39 1.64 20.39 1.64 0.92 5.65 0.92 5.65 8.81 13.47 8.81 13.47 0.92 17.48 0.92"></polygon>
                        <polygon fill="#FFE450" points="16.67 19.58 12.66 19.58 12.66 11.24 4.84 11.24 4.84 19.58 0.83 19.58 0.83 0.11 4.84 0.11 4.84 8 12.66 8 12.66 0.11 16.67 0.11"></polygon>
                    </g>
                </g>
                <g id="Group" transform="translate(121.000000, 58.000000)">
                    <circle id="Oval" fill="#FFC200" transform="translate(21.641768, 21.292396) rotate(-80.833456) translate(-21.641768, -21.292396) " cx="21.641768" cy="21.292396" r="18.3694519"></circle>
                    <path d="M21.64,8.68 C29.67,8.68 36.27,14.83 36.98,22.68 C37.02,22.22 37.05,21.75 37.05,21.28 C37.05,12.77 30.15,5.87 21.64,5.87 C13.13,5.87 6.23,12.77 6.23,21.28 C6.23,21.75 6.25,22.22 6.3,22.68 C7.01,14.83 13.61,8.68 21.64,8.68 Z" id="Path" fill="#FFA100"></path>
                    <path d="M21.64,6.18 C29.96,6.18 36.74,12.95 36.74,21.28 C36.74,29.61 29.97,36.38 21.64,36.38 C13.31,36.38 6.54,29.61 6.54,21.28 C6.54,12.95 13.32,6.18 21.64,6.18 M21.64,2.91 C11.49,2.91 3.27,11.14 3.27,21.28 C3.27,31.42 11.5,39.65 21.64,39.65 C31.79,39.65 40.01,31.42 40.01,21.28 C40.01,11.14 31.79,2.91 21.64,2.91 L21.64,2.91 Z" id="Shape" fill="#FFE450"></path>
                    <path d="M21.64,6.18 L21.64,2.9 C11.49,2.9 3.27,11.13 3.27,21.27 L6.55,21.27 C6.54,12.96 13.32,6.18 21.64,6.18 Z" id="Path" fill="#FAF582"></path>
                    <path d="M21.64,2.91 C11.49,2.91 3.27,11.14 3.27,21.28 C3.27,23.8 3.78,26.2 4.7,28.39 C6,28.7 7.35,28.86 8.74,28.86 C18.45,28.86 26.32,20.99 26.32,11.28 C26.32,8.33 25.59,5.54 24.3,3.1 C23.43,2.97 22.54,2.91 21.64,2.91 L21.64,2.91 Z" id="Path" fill="#FFFFFF" opacity="0.2"></path>
                    <g transform="translate(16.000000, 14.000000)" id="Path">
                        <polygon fill="#C97800" points="12.2 15.56 9.29 15.56 9.29 9.51 3.62 9.51 3.62 15.56 0.71 15.56 0.71 1.44 3.62 1.44 3.62 7.16 9.29 7.16 9.29 1.44 12.2 1.44"></polygon>
                        <polygon fill="#FFE450" points="11.61 14.97 8.7 14.97 8.7 8.92 3.03 8.92 3.03 14.97 0.12 14.97 0.12 0.85 3.03 0.85 3.03 6.57 8.7 6.57 8.7 0.85 11.61 0.85"></polygon>
                    </g>
                </g>
                <g id="Group" transform="translate(44.000000, 78.000000)">
                    <polygon id="Path" fill="#00CCFF" points="0.51 194.39 0.51 247.95 146.77 176.93 146.77 123.37"></polygon>
                    <rect id="Rectangle" fill="#00BFEA" x="200.33" y="35" width="44.21" height="99.46"></rect>
                    <polygon id="Path" fill="#00CCFF" points="271.18 0.39 200.37 34.77 200.37 88.33 271.18 53.94"></polygon>
                </g>
                <path d="M249.64,176.16 C238.66,184.15 246.76,189.99 253.65,199.45 C260.54,208.91 263.6,218.42 274.58,210.43 C285.56,202.44 292.69,185.52 285.81,176.05 C278.92,166.59 260.62,168.17 249.64,176.16 Z" id="Path" fill="#EA786A"></path>
                <path d="M257.63,180.84 C251.04,185.63 255.9,189.13 260.03,194.81 C264.16,200.49 265.99,206.19 272.58,201.39 C279.17,196.6 283.44,186.45 279.31,180.78 C275.19,175.1 264.22,176.05 257.63,180.84 Z" id="Path" fill="#D15C58"></path>
                <ellipse id="Oval" fill="#BFE5EB" transform="translate(169.551945, 343.067940) rotate(-85.532305) translate(-169.551945, -343.067940) " cx="169.551945" cy="343.06794" rx="19.2407447" ry="86.4733468"></ellipse>
                <path d="M237.91,314.48 C237.91,331.35 229.77,351.04 219.72,351.04 C209.67,351.04 201.53,331.36 201.53,314.48 C201.53,297.61 209.67,283.93 219.72,283.93 C229.77,283.93 237.91,297.61 237.91,314.48 Z" id="Path" fill="#D15C58"></path>
                <path d="M216.39,320.97 C216.39,337.84 208.25,357.53 198.2,357.53 C188.15,357.53 180,337.84 180,320.97 C180,304.1 188.14,290.42 198.19,290.42 C208.24,290.42 216.39,304.09 216.39,320.97 Z" id="Path" fill="#F88976"></path>
                <path d="M131.82,305.52 C131.82,322.39 123.68,342.08 113.63,342.08 C103.58,342.08 95.44,322.4 95.44,305.52 C95.44,288.65 103.58,274.97 113.63,274.97 C123.68,274.97 131.82,288.65 131.82,305.52 Z" id="Path" fill="#F88976"></path>
                <path d="M156.32,306.17 C156.32,323.04 148.18,342.73 138.13,342.73 C128.08,342.73 119.94,323.05 119.94,306.17 C119.94,289.3 128.08,275.619995 138.13,275.619995 C148.17,275.61 156.32,289.29 156.32,306.17 Z" id="Path" fill="#D15C58"></path>
                <ellipse id="Oval" fill="#F88976" cx="184.55" cy="252.71" rx="110.07" ry="96.11"></ellipse>
                <path d="M232.31,173.39 C215.83,164.8 190,157.83 169.41,157.83 L161.33,162.06 C181.81,162.06 207.54,168.97 223.96,177.48 C227.15,175.69 229.05,175.06 232.31,173.39 Z" id="Path" fill="#D15C58"></path>
                <path d="M229.73,233.46 L229.65,233.46 C227.93,233.46 226.51,232.24 226.1,230.57 C224.8,225.31 220.04,221.41 214.39,221.41 C208.74,221.41 203.98,225.32 202.68,230.57 C202.27,232.24 200.85,233.46 199.13,233.46 L199.05,233.46 C196.71,233.46 194.98,231.27 195.52,228.99 C197.54,220.45 205.23,214.08 214.38,214.08 C223.53,214.08 231.22,220.45 233.24,228.99 C233.8,231.27 232.08,233.46 229.73,233.46 Z" id="Path" fill="#211E1F"></path>
                <path d="M189.46,176.16 C200.44,184.15 192.34,189.99 185.45,199.45 C178.56,208.91 175.5,218.42 164.52,210.43 C153.54,202.44 146.41,185.52 153.29,176.05 C160.18,166.59 178.47,168.17 189.46,176.16 Z" id="Path" fill="#EA786A"></path>
                <path d="M189.01,184.03 C196.37,189.38 190.94,193.3 186.33,199.64 C181.72,205.98 179.67,212.35 172.31,207 C164.95,201.65 160.17,190.31 164.79,183.97 C169.39,177.62 181.65,178.67 189.01,184.03 Z" id="Path" fill="#D15C58"></path>
                <path d="M259.44,305.6 C232.98,305.6 224.99,291.24 220.18,282.6 C218.7,279.94 217.3,277.42 216.11,277.02 C215.04,276.66 213.57,276.37 212.66,277 C211.68,277.69 211.57,279.3 211.57,279.32 C211.54,280.25 210.75,281 209.84,280.95 C208.91,280.92 208.18,280.15 208.21,279.22 C208.22,278.88 208.38,275.89 210.74,274.24 C212.38,273.09 214.55,272.95 217.18,273.83 C219.61,274.64 221.16,277.43 223.13,280.96 C227.95,289.62 235.23,302.73 260.8,302.22 C261.75,302.23 262.5,302.94 262.510396,303.87 C262.53,304.8 261.79,305.57 260.86,305.58 C260.38,305.6 259.91,305.6 259.44,305.6 Z" id="Path" fill="#D15C58"></path>
                <ellipse id="Oval" fill="#EA786A" transform="translate(279.848496, 260.219408) rotate(-84.658257) translate(-279.848496, -260.219408) " cx="279.848496" cy="260.219408" rx="50.2521632" ry="43.0118515"></ellipse>
                <ellipse id="Oval" fill="#F88976" transform="translate(288.896970, 261.058770) rotate(-84.658257) translate(-288.896970, -261.058770) " cx="288.89697" cy="261.05877" rx="40.2917344" ry="25.391093"></ellipse>
                <ellipse id="Oval" fill="#D15C58" transform="translate(279.119330, 255.600290) rotate(-84.658257) translate(-279.119330, -255.600290) " cx="279.11933" cy="255.60029" rx="14.4906238" ry="4.77020534"></ellipse>
                <ellipse id="Oval" fill="#D15C58" transform="translate(296.748283, 252.427829) rotate(-84.658257) translate(-296.748283, -252.427829) " cx="296.748283" cy="252.427829" rx="14.4906238" ry="4.77020534"></ellipse>
                <g id="Group" transform="translate(150.000000, 83.000000)">
                    <circle id="Oval" fill="#FFC200" transform="translate(52.038717, 52.231349) rotate(-45.000000) translate(-52.038717, -52.231349) " cx="52.038717" cy="52.231349" r="36.5696493"></circle>
                    <path d="M52.04,27.16 C68.03,27.16 81.16,39.4 82.57,55.02 C82.65,54.1 82.7,53.17 82.7,52.22 C82.7,35.29 68.97,21.56 52.04,21.56 C35.11,21.56 21.38,35.29 21.38,52.22 C21.38,53.16 21.43,54.09 21.51,55.02 C22.93,39.4 36.05,27.16 52.04,27.16 Z" id="Path" fill="#FFA100"></path>
                    <path d="M52.04,22.18 C68.61,22.18 82.08,35.66 82.08,52.22 C82.08,68.78 68.6,82.26 52.04,82.26 C35.48,82.26 22,68.79 22,52.23 C22,35.67 35.48,22.18 52.04,22.18 M52.04,15.66 C31.84,15.66 15.47,32.03 15.47,52.23 C15.47,72.43 31.84,88.8 52.04,88.8 C72.24,88.8 88.61,72.43 88.61,52.23 C88.61,32.03 72.24,15.66 52.04,15.66 L52.04,15.66 Z" id="Shape" fill="#FFE450"></path>
                    <path d="M52.04,22.18 L52.04,15.66 C31.84,15.66 15.47,32.03 15.47,52.23 L22,52.23 C22,35.66 35.48,22.18 52.04,22.18 Z" id="Path" fill="#FAF582"></path>
                    <path d="M52.04,15.66 C31.84,15.66 15.47,32.03 15.47,52.23 C15.47,57.24 16.48,62.02 18.31,66.37 C20.89,66.98 23.58,67.31 26.35,67.31 C45.67,67.31 61.34,51.65 61.34,32.32 C61.34,26.44 59.88,20.91 57.32,16.04 C55.6,15.8 53.84,15.66 52.04,15.66 L52.04,15.66 Z" id="Path" fill="#FFFFFF" opacity="0.2"></path>
                    <g transform="translate(40.000000, 38.000000)" id="Path">
                        <polygon fill="#C97800" points="24.93 29.25 19.16 29.25 19.16 17.24 7.9 17.24 7.9 29.25 2.13 29.25 2.13 1.23 7.9 1.23 7.9 12.58 19.16 12.58 19.16 1.23 24.93 1.23"></polygon>
                        <polygon fill="#FFE450" points="23.77 28.09 18 28.09 18 16.08 6.74 16.08 6.74 28.09 0.97 28.09 0.97 0.07 6.74 0.07 6.74 11.42 18 11.42 18 0.07 23.77 0.07"></polygon>
                    </g>
                </g>
                <polygon id="Path" fill="#00CCFF" points="374.58 86.74 295.23 67.18 317.98 145.68"></polygon>
                <g id="Group" transform="translate(179.000000, 0.000000)">
                    <path d="M12.61,68.98 C16.45,87.36 32.73,101.16 52.25,101.16 C71.77,101.16 88.05,87.36 91.89,68.98 L12.61,68.98 Z" id="Path" fill="#82DCF2"></path>
                    <circle id="Oval" fill="#FFC200" transform="translate(51.410988, 51.114644) rotate(-54.351756) translate(-51.410988, -51.114644) " cx="51.410988" cy="51.114644" r="36.5695356"></circle>
                    <path d="M51.42,26.05 C67.41,26.05 80.54,38.29 81.95,53.91 C82.03,52.99 82.08,52.06 82.08,51.11 C82.08,34.18 68.35,20.45 51.42,20.45 C34.49,20.45 20.76,34.18 20.76,51.11 C20.76,52.05 20.81,52.98 20.89,53.91 C22.31,38.29 35.43,26.05 51.42,26.05 Z" id="Path" fill="#FFA100"></path>
                    <path d="M51.42,21.08 C67.99,21.08 81.46,34.56 81.46,51.12 C81.46,67.68 67.98,81.16 51.42,81.16 C34.85,81.16 21.38,67.68 21.38,51.12 C21.38,34.56 34.86,21.08 51.42,21.08 M51.42,14.55 C31.22,14.55 14.85,30.92 14.85,51.12 C14.85,71.32 31.22,87.69 51.42,87.69 C71.62,87.69 87.99,71.32 87.99,51.12 C87.99,30.93 71.62,14.55 51.42,14.55 L51.42,14.55 Z" id="Shape" fill="#FFE450"></path>
                    <path d="M51.42,21.08 L51.42,14.56 C31.22,14.56 14.85,30.93 14.85,51.13 L21.37,51.13 C21.38,34.55 34.86,21.08 51.42,21.08 Z" id="Path" fill="#FAF582"></path>
                    <path d="M51.42,14.55 C31.22,14.55 14.85,30.92 14.85,51.12 C14.85,56.13 15.86,60.91 17.69,65.26 C20.27,65.87 22.96,66.2 25.73,66.2 C45.05,66.2 60.72,50.54 60.72,31.21 C60.72,25.33 59.26,19.8 56.7,14.93 C54.98,14.69 53.22,14.55 51.42,14.55 L51.42,14.55 Z" id="Path" fill="#FFFFFF" opacity="0.2"></path>
                    <g transform="translate(39.000000, 37.000000)" id="Path">
                        <polygon fill="#C97800" points="24.35 29.63 18.58 29.63 18.58 17.62 7.32 17.62 7.32 29.63 1.55 29.63 1.55 1.61 7.32 1.61 7.32 12.96 18.58 12.96 18.58 1.61 24.35 1.61"></polygon>
                        <polygon fill="#FFE450" points="23.19 28.47 17.42 28.47 17.42 16.46 6.16 16.46 6.16 28.47 0.39 28.47 0.39 0.45 6.16 0.45 6.16 11.8 17.42 11.8 17.42 0.45 23.19 0.45"></polygon>
                    </g>
                </g>
            </g>
        </g>
    </g>
</svg>