<?xml version="1.0" encoding="UTF-8"?>
<svg width="280px" height="131px" viewBox="0 0 280 131" version="1.1" xmlns="http://www.w3.org/2000/svg" xmlns:xlink="http://www.w3.org/1999/xlink">
    <title>score-board-3s</title>
    <g id="Page-1" stroke="none" stroke-width="1" fill="none" fill-rule="evenodd">
        <g id="score-board-3s" transform="translate(3.000000, 3.000000)">
            <path d="M164.44,100.7 L139.37,87.61 C137.916966,86.8489013 136.183034,86.8489013 134.73,87.61 L109.73,100.84 C108.053596,101.709987 106.030032,101.561102 104.499009,100.455129 C102.967986,99.3491554 102.190818,97.4748587 102.49,95.61 L107.19,67.73 C107.462268,66.1128 106.924176,64.4648918 105.75,63.32 L85.45,43.65 C84.1055175,42.323922 83.622847,40.3534942 84.2022253,38.5561526 C84.7816037,36.7588111 86.3241749,35.4412259 88.19,35.15 L116.19,31 C117.812019,30.7599317 119.213251,29.7398344 119.94,28.27 L132.38,2.87 C133.229766,1.18389835 134.956868,0.120283315 136.845,0.120283315 C138.733132,0.120283315 140.460234,1.18389835 141.31,2.87 L153.9,28.19 C154.631197,29.6586163 156.03633,30.6750954 157.66,30.91 L185.66,34.91 C187.530182,35.1885172 189.083281,36.4981761 189.673584,38.2944759 C190.263888,40.0907758 189.790409,42.0664124 188.45,43.4 L168.25,63.19 C167.083087,64.338788 166.55264,65.9861626 166.83,67.6 L171.69,95.46 C171.996363,97.3293751 171.219993,99.2113592 169.684704,100.321003 C168.149415,101.430646 166.118877,101.577379 164.44,100.7 L164.44,100.7 Z" id="Path" fill="#FFC82E" fill-rule="nonzero"></path>
            <path d="M164.44,100.7 L139.37,87.61 C137.916966,86.8489013 136.183034,86.8489013 134.73,87.61 L109.73,100.84 C108.053596,101.709987 106.030032,101.561102 104.499009,100.455129 C102.967986,99.3491554 102.190818,97.4748587 102.49,95.61 L107.19,67.73 C107.462268,66.1128 106.924176,64.4648918 105.75,63.32 L85.45,43.65 C84.1055175,42.323922 83.622847,40.3534942 84.2022253,38.5561526 C84.7816037,36.7588111 86.3241749,35.4412259 88.19,35.15 L116.19,31 C117.812019,30.7599317 119.213251,29.7398344 119.94,28.27 L132.38,2.87 C133.229766,1.18389835 134.956868,0.120283315 136.845,0.120283315 C138.733132,0.120283315 140.460234,1.18389835 141.31,2.87 L153.9,28.19 C154.631197,29.6586163 156.03633,30.6750954 157.66,30.91 L185.66,34.91 C187.530182,35.1885172 189.083281,36.4981761 189.673584,38.2944759 C190.263888,40.0907758 189.790409,42.0664124 188.45,43.4 L168.25,63.19 C167.083087,64.338788 166.55264,65.9861626 166.83,67.6 L171.69,95.46 C171.996363,97.3293751 171.219993,99.2113592 169.684704,100.321003 C168.149415,101.430646 166.118877,101.577379 164.44,100.7 L164.44,100.7 Z" id="Path" stroke="#7C501F" stroke-width="6"></path>
            <path d="M242.69,123.48 L226,108.79 C225.032143,107.94071 223.709633,107.619422 222.46,107.93 L200.91,113.34 C199.465014,113.700092 197.940778,113.210321 196.976007,112.075919 C196.011236,110.941518 195.772562,109.358418 196.36,107.99 L205.18,87.59 C205.691835,86.4080039 205.587048,85.0495202 204.9,83.96 L193.1,65.14 C192.299868,63.8765767 192.288299,62.267976 193.070177,60.9931752 C193.852055,59.7183745 195.291138,58.9995066 196.78,59.14 L218.9,61.22 C220.18258,61.3466711 221.444636,60.8298648 222.27,59.84 L236.53,42.84 C237.483746,41.6951674 239.005275,41.1919372 240.45355,41.5423262 C241.901825,41.8927153 243.025051,43.0358059 243.35,44.49 L248.2,66.17 C248.49394,67.4222115 249.372118,68.4566749 250.56,68.95 L271.18,77.24 C272.558503,77.7999946 273.50113,79.0921572 273.613464,80.5758163 C273.725798,82.0594754 272.988472,83.4788344 271.71,84.24 L252.59,95.56 C251.479164,96.2131828 250.763896,97.3740895 250.68,98.66 L249.16,120.83 C249.040884,122.301712 248.104903,123.581643 246.738546,124.141279 C245.372189,124.700916 243.807277,124.445307 242.69,123.48 L242.69,123.48 Z" id="Path" fill="#FFC82E" fill-rule="nonzero"></path>
            <path d="M242.69,123.48 L226,108.79 C225.032143,107.94071 223.709633,107.619422 222.46,107.93 L200.91,113.34 C199.465014,113.700092 197.940778,113.210321 196.976007,112.075919 C196.011236,110.941518 195.772562,109.358418 196.36,107.99 L205.18,87.59 C205.691835,86.4080039 205.587048,85.0495202 204.9,83.96 L193.1,65.14 C192.299868,63.8765767 192.288299,62.267976 193.070177,60.9931752 C193.852055,59.7183745 195.291138,58.9995066 196.78,59.14 L218.9,61.22 C220.18258,61.3466711 221.444636,60.8298648 222.27,59.84 L236.53,42.84 C237.483746,41.6951674 239.005275,41.1919372 240.45355,41.5423262 C241.901825,41.8927153 243.025051,43.0358059 243.35,44.49 L248.2,66.17 C248.49394,67.4222115 249.372118,68.4566749 250.56,68.95 L271.18,77.24 C272.558503,77.7999946 273.50113,79.0921572 273.613464,80.5758163 C273.725798,82.0594754 272.988472,83.4788344 271.71,84.24 L252.59,95.56 C251.479164,96.2131828 250.763896,97.3740895 250.68,98.66 L249.16,120.83 C249.040884,122.301712 248.104903,123.581643 246.738546,124.141279 C245.372189,124.700916 243.807277,124.445307 242.69,123.48 L242.69,123.48 Z" id="Path" stroke="#7C501F" stroke-width="6"></path>
            <path d="M31.15,123.48 L47.82,108.79 C48.7878573,107.94071 50.110367,107.619422 51.36,107.93 L72.91,113.34 C74.3524477,113.697534 75.8730433,113.208653 76.8368641,112.077487 C77.8006849,110.946322 78.0419812,109.3674 77.46,108 L68.64,87.6 C68.1387379,86.4264598 68.2433131,85.0819219 68.92,84 L80.72,65.18 C81.5201321,63.9165767 81.5317008,62.307976 80.749823,61.0331752 C79.9679452,59.7583745 78.5288625,59.0395066 77.04,59.18 L54.92,61.24 C53.6374197,61.3666711 52.3753639,60.8498648 51.55,59.86 L37.29,42.86 C36.3362544,41.7151674 34.8147247,41.2119372 33.3664499,41.5623262 C31.9181751,41.9127153 30.7949488,43.0558059 30.47,44.51 L25.62,66.15 C25.32606,67.4022115 24.4478825,68.4366749 23.26,68.93 L2.64,77.22 C1.26149742,77.7799946 0.318870316,79.0721572 0.206536125,80.5558163 C0.0942019341,82.0394754 0.831528121,83.4588344 2.11,84.22 L21.23,95.54 C22.340836,96.1931828 23.0561043,97.3540895 23.14,98.64 L24.66,120.81 C24.766663,122.293156 25.7033272,123.588272 27.0784868,124.154015 C28.4536463,124.719759 30.0305169,124.458717 31.15,123.48 Z" id="Path" fill="#FFC82E" fill-rule="nonzero"></path>
            <path d="M31.15,123.48 L47.82,108.79 C48.7878573,107.94071 50.110367,107.619422 51.36,107.93 L72.91,113.34 C74.3524477,113.697534 75.8730433,113.208653 76.8368641,112.077487 C77.8006849,110.946322 78.0419812,109.3674 77.46,108 L68.64,87.6 C68.1387379,86.4264598 68.2433131,85.0819219 68.92,84 L80.72,65.18 C81.5201321,63.9165767 81.5317008,62.307976 80.749823,61.0331752 C79.9679452,59.7583745 78.5288625,59.0395066 77.04,59.18 L54.92,61.24 C53.6374197,61.3666711 52.3753639,60.8498648 51.55,59.86 L37.29,42.86 C36.3362544,41.7151674 34.8147247,41.2119372 33.3664499,41.5623262 C31.9181751,41.9127153 30.7949488,43.0558059 30.47,44.51 L25.62,66.15 C25.32606,67.4022115 24.4478825,68.4366749 23.26,68.93 L2.64,77.22 C1.26149742,77.7799946 0.318870316,79.0721572 0.206536125,80.5558163 C0.0942019341,82.0394754 0.831528121,83.4588344 2.11,84.22 L21.23,95.54 C22.340836,96.1931828 23.0561043,97.3540895 23.14,98.64 L24.66,120.81 C24.766663,122.293156 25.7033272,123.588272 27.0784868,124.154015 C28.4536463,124.719759 30.0305169,124.458717 31.15,123.48 Z" id="Path" stroke="#7C501F" stroke-width="6"></path>
        </g>
    </g>
</svg>