<?xml version="1.0" encoding="UTF-8"?>
<svg width="211px" height="96px" viewBox="0 0 211 96" version="1.1" xmlns="http://www.w3.org/2000/svg" xmlns:xlink="http://www.w3.org/1999/xlink">
    <title>score-board-2s</title>
    <g id="Page-1" stroke="none" stroke-width="1" fill="none" fill-rule="evenodd">
        <g id="score-board-2s" transform="translate(3.000000, 3.000000)">
            <path d="M182.69,89.06 L160.69,77.58 C159.419663,76.909713 157.900337,76.909713 156.63,77.58 L134.72,89.17 C133.25217,89.9529949 131.466695,89.8324586 130.117423,88.859283 C128.768151,87.8861074 128.090274,86.2299264 128.37,84.59 L132.49,60.14 C132.731325,58.7243451 132.260064,57.2806419 131.23,56.28 L113.45,39 C112.254232,37.8447604 111.819593,36.1099972 112.329414,34.5274287 C112.839235,32.9448602 114.204754,31.7900135 115.85,31.55 L140.37,28 C141.790743,27.793416 143.018058,26.8991227 143.65,25.61 L154.56,3.3 C155.292315,1.80594825 156.811126,0.858951537 158.475,0.858951537 C160.138874,0.858951537 161.657685,1.80594825 162.39,3.3 L173.39,25.5 C174.026396,26.7879191 175.257618,27.6785907 176.68,27.88 L201.22,31.38 C202.864988,31.614319 204.234768,32.7612621 204.754479,34.339486 C205.27419,35.9177099 204.853902,37.6541245 203.67,38.82 L186,56.15 C184.977362,57.1505085 184.513499,58.5907297 184.76,60 L189,84.44 C189.287039,86.0749943 188.620736,87.7311338 187.281362,88.7117846 C185.941988,89.6924354 184.161951,89.8274359 182.69,89.06 L182.69,89.06 Z" id="Path" fill="#FFC82E" fill-rule="nonzero"></path>
            <path d="M182.69,89.06 L160.69,77.58 C159.419663,76.909713 157.900337,76.909713 156.63,77.58 L134.72,89.17 C133.25217,89.9529949 131.466695,89.8324586 130.117423,88.859283 C128.768151,87.8861074 128.090274,86.2299264 128.37,84.59 L132.49,60.14 C132.731325,58.7243451 132.260064,57.2806419 131.23,56.28 L113.45,39 C112.254232,37.8447604 111.819593,36.1099972 112.329414,34.5274287 C112.839235,32.9448602 114.204754,31.7900135 115.85,31.55 L140.37,28 C141.790743,27.793416 143.018058,26.8991227 143.65,25.61 L154.56,3.3 C155.292315,1.80594825 156.811126,0.858951537 158.475,0.858951537 C160.138874,0.858951537 161.657685,1.80594825 162.39,3.3 L173.39,25.5 C174.026396,26.7879191 175.257618,27.6785907 176.68,27.88 L201.22,31.38 C202.864988,31.614319 204.234768,32.7612621 204.754479,34.339486 C205.27419,35.9177099 204.853902,37.6541245 203.67,38.82 L186,56.15 C184.977362,57.1505085 184.513499,58.5907297 184.76,60 L189,84.44 C189.287039,86.0749943 188.620736,87.7311338 187.281362,88.7117846 C185.941988,89.6924354 184.161951,89.8274359 182.69,89.06 L182.69,89.06 Z" id="Path" stroke="#7C501F" stroke-width="6"></path>
            <path d="M71.4,89.06 L49.4,77.58 C48.1296626,76.909713 46.6103374,76.909713 45.34,77.58 L23.44,89.19 C21.9728681,89.9672495 20.1916292,89.843775 18.8457712,88.8715307 C17.4999133,87.8992863 16.8230563,86.2470385 17.1,84.61 L21.22,60.16 C21.4697498,58.7511977 21.0140413,57.3093658 20,56.3 L2.15,39 C0.954231718,37.8447604 0.519593277,36.1099972 1.029414,34.5274287 C1.53923473,32.9448602 2.90475421,31.7900135 4.55,31.55 L29.08,28 C30.4993952,27.7901146 31.7253283,26.8968281 32.36,25.61 L43.27,3.3 C44.0023149,1.80594825 45.5211263,0.858951537 47.185,0.858951537 C48.8488737,0.858951537 50.3676851,1.80594825 51.1,3.3 L62.1,25.5 C62.7383321,26.7905808 63.9739072,27.6816925 65.4,27.88 L90,31.35 C91.6432574,31.5874563 93.0100054,32.7356209 93.5274064,34.31327 C94.0448074,35.890919 93.623475,37.6254971 92.44,38.79 L74.74,56.15 C73.7043368,57.1435954 73.2254192,58.5840897 73.46,60 L77.72,84.42 C78.0191034,86.0611166 77.3555956,87.729048 76.010932,88.7162694 C74.6662683,89.7034908 72.8761762,89.8369366 71.4,89.06 Z" id="Path" fill="#FFC82E" fill-rule="nonzero"></path>
            <path d="M71.4,89.06 L49.4,77.58 C48.1296626,76.909713 46.6103374,76.909713 45.34,77.58 L23.44,89.19 C21.9728681,89.9672495 20.1916292,89.843775 18.8457712,88.8715307 C17.4999133,87.8992863 16.8230563,86.2470385 17.1,84.61 L21.22,60.16 C21.4697498,58.7511977 21.0140413,57.3093658 20,56.3 L2.15,39 C0.954231718,37.8447604 0.519593277,36.1099972 1.029414,34.5274287 C1.53923473,32.9448602 2.90475421,31.7900135 4.55,31.55 L29.08,28 C30.4993952,27.7901146 31.7253283,26.8968281 32.36,25.61 L43.27,3.3 C44.0023149,1.80594825 45.5211263,0.858951537 47.185,0.858951537 C48.8488737,0.858951537 50.3676851,1.80594825 51.1,3.3 L62.1,25.5 C62.7383321,26.7905808 63.9739072,27.6816925 65.4,27.88 L90,31.35 C91.6432574,31.5874563 93.0100054,32.7356209 93.5274064,34.31327 C94.0448074,35.890919 93.623475,37.6254971 92.44,38.79 L74.74,56.15 C73.7043368,57.1435954 73.2254192,58.5840897 73.46,60 L77.72,84.42 C78.0191034,86.0611166 77.3555956,87.729048 76.010932,88.7162694 C74.6662683,89.7034908 72.8761762,89.8369366 71.4,89.06 Z" id="Path" stroke="#7C501F" stroke-width="6"></path>
        </g>
    </g>
</svg>