<?xml version="1.0" encoding="UTF-8"?>
<svg width="113px" height="108px" viewBox="0 0 113 108" version="1.1" xmlns="http://www.w3.org/2000/svg" xmlns:xlink="http://www.w3.org/1999/xlink">
    <title>score-board-1s</title>
    <g id="Page-1" stroke="none" stroke-width="1" fill="none" fill-rule="evenodd">
        <g id="score-board-1s" transform="translate(3.000000, 3.000000)">
            <path d="M81.44,101.22 L56.37,88.13 C54.9169655,87.3689013 53.1830345,87.3689013 51.73,88.13 L26.73,101.36 C25.0535958,102.229987 23.0300317,102.081102 21.4990091,100.975129 C19.9679865,99.8691554 19.1908185,97.9948587 19.49,96.13 L24.19,68.24 C24.4588259,66.6260677 23.9210017,64.982716 22.75,63.84 L2.45,44.17 C1.09953072,42.8445638 0.612988516,40.8703222 1.19291998,39.0691482 C1.77285145,37.2679741 3.31988753,35.9484921 5.19,35.66 L33.19,31.52 C34.8140857,31.2778405 36.2157523,30.2536895 36.94,28.78 L49.38,3.39 C50.2297663,1.70389835 51.9568683,0.640283315 53.845,0.640283315 C55.7331317,0.640283315 57.4602337,1.70389835 58.31,3.39 L70.9,28.71 C71.6336869,30.1747622 73.0383879,31.187193 74.66,31.42 L102.66,35.42 C104.530182,35.6985172 106.083281,37.0081761 106.673584,38.8044759 C107.263888,40.6007758 106.790409,42.5764124 105.45,43.91 L85.25,63.71 C84.0830869,64.858788 83.5526398,66.5061626 83.83,68.12 L88.65,96 C88.936899,97.8546542 88.1610716,99.7137844 86.6409387,100.814352 C85.1208058,101.91492 83.1123898,102.071567 81.44,101.22 L81.44,101.22 Z" id="Path" fill="#FFC82E" fill-rule="nonzero"></path>
            <path d="M81.44,101.22 L56.37,88.13 C54.9169655,87.3689013 53.1830345,87.3689013 51.73,88.13 L26.73,101.36 C25.0535958,102.229987 23.0300317,102.081102 21.4990091,100.975129 C19.9679865,99.8691554 19.1908185,97.9948587 19.49,96.13 L24.19,68.24 C24.4588259,66.6260677 23.9210017,64.982716 22.75,63.84 L2.45,44.17 C1.09953072,42.8445638 0.612988516,40.8703222 1.19291998,39.0691482 C1.77285145,37.2679741 3.31988753,35.9484921 5.19,35.66 L33.19,31.52 C34.8140857,31.2778405 36.2157523,30.2536895 36.94,28.78 L49.38,3.39 C50.2297663,1.70389835 51.9568683,0.640283315 53.845,0.640283315 C55.7331317,0.640283315 57.4602337,1.70389835 58.31,3.39 L70.9,28.71 C71.6336869,30.1747622 73.0383879,31.187193 74.66,31.42 L102.66,35.42 C104.530182,35.6985172 106.083281,37.0081761 106.673584,38.8044759 C107.263888,40.6007758 106.790409,42.5764124 105.45,43.91 L85.25,63.71 C84.0830869,64.858788 83.5526398,66.5061626 83.83,68.12 L88.65,96 C88.936899,97.8546542 88.1610716,99.7137844 86.6409387,100.814352 C85.1208058,101.91492 83.1123898,102.071567 81.44,101.22 L81.44,101.22 Z" id="Path" stroke="#7C501F" stroke-width="6"></path>
        </g>
    </g>
</svg>